<svg width="100" height="60" viewBox="0 0 100 60" fill="none" xmlns="http://www.w3.org/2000/svg">
<path d="M26.6923 18.7319H17.3846L16.6154 22.8295H25.0769C29.2308 22.8295 30.4615 24.2929 30.3846 26.6344C30.3846 27.8783 29.8462 29.9271 29.5385 30.5856C28.9231 32.3417 27.6154 34.3905 22.6923 34.3905H14.5385L13.7692 38.488H23.0769C26.3846 38.488 27.7692 38.1222 29.2308 37.4636C32.5385 36.0002 34.4615 32.9271 35.2308 28.9027C36.3846 22.9758 34.9231 18.7319 26.6923 18.7319Z" fill="white"/>
<path d="M55.5385 38.561L56.2308 34.9756H64.2308C64.8461 34.9756 65.3077 34.6098 65.3846 34.0244C65.5385 33.439 65.2308 33.0732 64.5385 33.0732H60.6923C57.6923 33.0732 56.2308 31.3902 56.7692 28.5366C57.3077 25.6829 59.3846 24 62.3846 24H71.0769L70.3846 27.5854H62.7692C62.1538 27.5854 61.6923 27.9512 61.6154 28.5366C61.4615 29.122 61.7692 29.4878 62.4615 29.4878H66.3077C69.3077 29.4878 70.7692 31.1707 70.2308 34.0244C69.6923 36.878 67.6923 38.561 64.6154 38.561H55.5385Z" fill="white"/>
<path d="M43.4616 38.561C38.5385 38.561 36.3077 36.0001 37.1539 31.3171C38 26.6342 41.2308 24.0732 46.1539 24.0732H54.9231L52.2308 38.6342L43.4616 38.561ZM49.1539 27.5854H46.9231C44.2308 27.5854 42.6154 28.683 42.1539 31.3171C41.6154 33.8781 42.6923 35.0488 45.3846 35.0488H47.8462L49.1539 27.5854Z" fill="white"/>
<path d="M82 38.5611L83.5384 30.0733C83.8461 28.3904 83.0769 27.6587 81.3846 27.6587H78.923L76.9231 38.488H71.8461L75.5384 18.6587H80.6154L79.6154 23.927H83.3846C87.8461 23.927 89.4615 25.7563 88.6154 30.0002L87.0769 38.488L82 38.5611Z" fill="white"/>
<path d="M13.3077 26.561C10.8462 26.561 10.5385 28.0976 10.3077 28.9757C10 30.1464 9.9231 30.6586 9.9231 30.6586H19.4616C21.9231 30.6586 22.2308 29.122 22.4616 28.244C22.7693 27.0732 22.8462 26.561 22.8462 26.561H13.3077Z" fill="white"/>
</svg>
