<svg width="100" height="60" viewBox="0 0 100 60" fill="none" xmlns="http://www.w3.org/2000/svg">
<path d="M22.8461 28.9022C22.8461 29.4875 22.7692 30.0729 22.6923 30.6583C21.8461 34.6095 18.3077 37.5363 14 37.7558H13.6154C8.46151 37.7558 4.38458 33.8046 4.38458 28.9754C4.38458 24.0729 8.53843 20.1949 13.6154 20.1949C18.7692 20.1217 22.8461 23.9997 22.8461 28.9022Z" fill="#479B65"/>
<path d="M16.1538 27.439C16.3846 27.439 16.5384 27.439 16.7692 27.439C17.2307 27.439 17.6153 27.6585 17.923 27.9512C18.1538 28.2439 18.3846 28.6097 18.4615 28.9756C18.5384 29.3414 18.6153 29.6341 18.6153 30C18.6153 30.3658 18.4615 30.6585 18.2307 30.9512C18.0769 31.1707 17.8461 31.3902 17.6153 31.5366C17.4615 31.6829 17.3076 31.7561 17.0769 31.9024C16.7692 32.0488 16.4615 32.1951 16.0769 32.3414C15.9999 32.3414 15.923 32.4146 15.9999 32.4878C16.1538 33 16.3846 33.5122 16.5384 34.0975C16.5384 34.1707 16.5384 34.1707 16.5384 34.1707L15.6153 34.3902C15.5384 34.3902 15.5384 34.4634 15.4615 34.3171C15.3076 33.8049 15.0769 33.2927 14.923 32.7073C14.923 32.6341 14.923 32.6341 14.8461 32.6341L14.0769 32.8536C13.9999 32.8536 13.9999 32.9268 13.9999 32.9268L14.6153 34.6097L13.5384 35.1219C13.4615 35.1219 13.4615 35.1219 13.4615 35.0488C13.3846 34.7561 13.2307 34.4634 13.1538 34.1707L12.923 33.439C12.923 33.3658 12.8461 33.3658 12.8461 33.3658L11.4615 33.8049L10.6922 34.0244C10.6153 34.0244 10.6153 34.0244 10.6153 33.9512C10.5384 33.5853 10.4615 33.1463 10.4615 32.7805C10.4615 32.7073 10.4615 32.7073 10.5384 32.6341C10.7692 32.561 10.9999 32.4878 11.3076 32.4146C11.5384 32.3414 11.6153 32.0488 11.5384 31.9024L10.6153 29.3414C10.3846 28.6829 10.1538 28.0244 9.92302 27.3658C9.84609 27.0732 9.5384 26.9268 9.23071 27C8.92302 27.0732 8.69225 27.1463 8.38455 27.2927C8.30763 27.2927 8.30763 27.2927 8.30763 27.2927L7.99994 26.2683C7.99994 26.1951 7.99994 26.1951 8.07686 26.1951C8.5384 26.0488 9.07686 25.9024 9.5384 25.7561L10.1538 25.5366C10.2307 25.5366 10.2307 25.4634 10.1538 25.4634L9.61532 23.9268C9.61532 23.8536 9.61532 23.7805 9.69225 23.7805C9.99994 23.7073 10.3076 23.561 10.6153 23.4878C10.6922 23.4878 10.6922 23.4878 10.6922 23.561C10.8461 24.0731 11.0769 24.5853 11.2307 25.0975C11.2307 25.1707 11.2307 25.1707 11.3076 25.1707L12.0769 24.9512C12.1538 24.9512 12.1538 24.9512 12.1538 24.878C11.9999 24.3658 11.7692 23.8536 11.6153 23.3414C11.6153 23.2683 11.6153 23.2683 11.6922 23.2683L12.6153 22.9756C12.6922 22.9756 12.6922 22.9756 12.7692 23.0488L13.3076 24.5853C13.3076 24.6585 13.3846 24.6585 13.4615 24.6585C13.923 24.5122 14.3846 24.5122 14.8461 24.5122C15.3076 24.5122 15.7692 24.6585 16.1538 24.9512C16.3846 25.0975 16.5384 25.3171 16.6922 25.6097C16.8461 25.9024 16.923 26.1951 16.923 26.4878C16.923 26.9268 16.7692 27.2927 16.4615 27.5853L16.1538 27.439ZM13.8461 27.8049C13.923 27.8049 13.9999 27.7317 14.0769 27.6585C14.1538 27.5853 14.2307 27.5122 14.3076 27.439C14.6922 27.1463 14.7692 26.6341 14.4615 26.1951C14.3076 25.9756 14.0769 25.8292 13.8461 25.7561C13.4615 25.6829 13.0769 25.7561 12.6922 25.8292C12.3846 25.9024 12.0769 26.0488 11.6922 26.1219C11.6153 26.1219 11.6153 26.1951 11.6153 26.2683C11.8461 26.8536 12.0769 27.439 12.2307 28.0244C12.2307 28.0975 12.2307 28.1707 12.3076 28.2439C12.3846 28.2439 12.4615 28.2439 12.5384 28.1707C12.9999 28.1707 13.4615 28.0244 13.8461 27.8049ZM15.5384 30.9512C15.6922 30.878 15.7692 30.8049 15.923 30.6585C16.0769 30.5122 16.2307 30.3658 16.3076 30.2195C16.4615 29.7805 16.3076 29.3414 15.9999 29.1219C15.7692 28.9756 15.4615 28.9024 15.2307 28.9024C14.8461 28.9024 14.5384 28.9756 14.1538 29.0488C13.7692 29.1219 13.3076 29.2683 12.923 29.4146C12.8461 29.4146 12.8461 29.4878 12.8461 29.4878C13.0769 30.2195 13.3846 30.9512 13.6153 31.6097C13.6153 31.6829 13.6922 31.6829 13.7692 31.6829C13.9999 31.6097 14.3076 31.5366 14.5384 31.3902C14.8461 31.3171 15.2307 31.1707 15.5384 30.9512Z" fill="#FEFEFE"/>
<path d="M29.3846 26.8548C29.8462 26.8548 30.2308 26.9279 30.5385 27.0743C30.8462 27.2206 31.1539 27.4401 31.3846 27.6596C31.6154 27.9523 31.7692 28.245 31.8462 28.6109C31.9231 28.9767 32 29.3426 32 29.7084C32 30.2938 31.8462 30.8792 31.6154 31.4645C31.3846 32.0499 31.0769 32.4889 30.6154 32.9279C30.2308 33.367 29.6923 33.6596 29.1539 33.8791C28.6154 34.0987 28 34.245 27.3077 34.245C27.2308 34.245 27.0769 34.245 26.8462 34.245C26.6154 34.245 26.3846 34.245 26.1539 34.1718C25.8462 34.1718 25.6154 34.0987 25.3077 34.0255C25 33.9523 24.6923 33.8791 24.4615 33.7328L26.9231 23.9279L29.1539 23.6353L28.2308 27.0743C28.3846 27.0011 28.6154 26.9279 28.7692 26.8548C28.9231 26.7816 29.1539 26.8548 29.3846 26.8548ZM27.5385 32.5621C27.8462 32.5621 28.1539 32.4889 28.4615 32.3426C28.7692 32.1962 29 31.9767 29.2308 31.7572C29.4615 31.5377 29.6154 31.245 29.7692 30.8792C29.9231 30.5865 29.9231 30.2206 29.9231 29.8548C29.9231 29.4157 29.8462 29.1231 29.6923 28.8304C29.5385 28.5377 29.2308 28.4645 28.8462 28.4645C28.6923 28.4645 28.5385 28.4645 28.3077 28.5377C28.0769 28.6109 27.9231 28.684 27.7692 28.8304L26.8462 32.4889C26.9231 32.4889 26.9231 32.4889 27 32.4889C27.0769 32.4889 27.0769 32.4889 27.1539 32.4889C27.2308 32.4889 27.2308 32.4889 27.3077 32.4889C27.3846 32.4889 27.4615 32.5621 27.5385 32.5621Z" fill="white"/>
<path d="M34.6923 34.0243H32.6154L34.3847 26.9267H36.4616L34.6923 34.0243ZM35.6923 26.1218C35.3847 26.1218 35.1539 26.0486 34.9231 25.9023C34.6923 25.756 34.5385 25.4633 34.5385 25.1706C34.5385 24.9511 34.6154 24.8047 34.6923 24.6584C34.7693 24.5121 34.8462 24.3657 35 24.2194C35.1539 24.073 35.3077 23.9999 35.4616 23.9267C35.6154 23.8535 35.8462 23.8535 36 23.8535C36.3077 23.8535 36.5385 23.9267 36.7693 24.073C37 24.2194 37.1539 24.5121 37.1539 24.8047C37.1539 25.0243 37.077 25.1706 37 25.3169C36.9231 25.4633 36.8462 25.6096 36.6923 25.756C36.5385 25.9023 36.3847 25.9755 36.2308 26.0486C36.077 26.0486 35.9231 26.1218 35.6923 26.1218Z" fill="white"/>
<path d="M38.6154 25.1706L40.8461 24.8779L40.3077 26.9999H42.6923L42.2308 28.6096H39.9231L39.2308 31.0974C39.1538 31.317 39.1538 31.4633 39.1538 31.6828C39.1538 31.8291 39.1538 32.0487 39.2308 32.1218C39.3077 32.2682 39.3846 32.3413 39.5385 32.4145C39.6923 32.4877 39.9231 32.4877 40.1538 32.4877C40.3846 32.4877 40.6154 32.4877 40.8461 32.4145C41.0769 32.3413 41.3077 32.3413 41.4615 32.2682L41.6154 33.8048C41.3077 33.8779 41 34.0243 40.6923 34.0243C40.3846 34.0974 40 34.0974 39.5385 34.0974C38.9231 34.0974 38.3846 34.0243 38 33.8048C37.6154 33.5852 37.3846 33.3657 37.2308 33.0731C37.0769 32.7804 37 32.4145 37 31.9755C37 31.5365 37.0769 31.0974 37.2308 30.6584L38.6154 25.1706Z" fill="white"/>
<path d="M42.6923 31.2437C42.6923 30.6583 42.7692 30.073 43 29.4876C43.2308 28.9754 43.5385 28.4632 43.9231 28.0973C44.3077 27.6583 44.7692 27.3656 45.3077 27.1461C45.8462 26.9266 46.4616 26.7803 47.1539 26.7803C47.6154 26.7803 47.9231 26.8534 48.3077 26.9266C48.6154 26.9998 48.9231 27.073 49.2308 27.2193L48.4616 28.7559C48.3077 28.6827 48.0769 28.6095 47.8462 28.5364C47.6154 28.4632 47.3846 28.4632 47.0769 28.4632C46.3846 28.4632 45.8462 28.6827 45.3846 29.1217C45 29.5608 44.7692 30.2193 44.7692 30.951C44.7692 31.39 44.8462 31.7559 45.0769 32.0486C45.3077 32.3412 45.6923 32.4876 46.2308 32.4876C46.5385 32.4876 46.7692 32.4876 47 32.4144C47.2308 32.3412 47.4616 32.2681 47.6923 32.1949L47.8462 33.8047C47.6154 33.8778 47.3077 34.0242 47 34.0973C46.6923 34.1705 46.3077 34.2437 45.8462 34.2437C45.2308 34.2437 44.7692 34.1705 44.3846 34.0242C44 33.8778 43.6154 33.6583 43.3846 33.3656C43.1539 33.073 42.9231 32.7803 42.8462 32.4144C42.7692 32.0486 42.6923 31.6095 42.6923 31.2437Z" fill="white"/>
<path d="M52.0769 34.2437C51.5385 34.2437 51.1539 34.1705 50.7693 34.0242C50.3846 33.8778 50.0769 33.6583 49.8462 33.4388C49.6154 33.1461 49.4616 32.8534 49.3077 32.4876C49.1539 32.1217 49.1539 31.7559 49.1539 31.3169C49.1539 30.8047 49.2308 30.2193 49.4616 29.7071C49.6154 29.1949 49.9231 28.6827 50.3077 28.2437C50.6923 27.8047 51.0769 27.4388 51.6154 27.2193C52.1539 26.9266 52.6923 26.7803 53.3846 26.7803C53.8462 26.7803 54.3077 26.8534 54.6923 26.9998C55.0769 27.1461 55.3846 27.3656 55.6154 27.5852C55.8462 27.8778 56 28.1705 56.1539 28.5364C56.3077 28.9022 56.3077 29.2681 56.3077 29.7071C56.3077 30.2193 56.2308 30.8047 56.0769 31.3169C55.9231 31.8291 55.6154 32.3412 55.3077 32.7803C54.9231 33.2193 54.5385 33.5851 54 33.8047C53.4616 34.0242 52.7693 34.2437 52.0769 34.2437ZM53.1539 28.4632C52.8462 28.4632 52.5385 28.5364 52.3077 28.6827C52.0769 28.8291 51.8462 29.0486 51.6923 29.3412C51.5385 29.6339 51.3846 29.8534 51.3077 30.2193C51.2308 30.512 51.1539 30.8047 51.1539 31.0973C51.1539 31.5364 51.2308 31.9022 51.3846 32.1217C51.5385 32.3412 51.8462 32.4876 52.2308 32.4876C52.5385 32.4876 52.8462 32.4144 53.0769 32.2681C53.3077 32.1217 53.5385 31.9022 53.6923 31.6095C53.8462 31.3169 54 31.0973 54.0769 30.7315C54.1539 30.4388 54.2308 30.1461 54.2308 29.8534C54.2308 29.4144 54.1539 29.0486 54 28.8291C53.7693 28.6095 53.5385 28.4632 53.1539 28.4632Z" fill="white"/>
<path d="M58.9231 34.0243H56.8462L58.6154 26.9267H60.6923L58.9231 34.0243ZM59.9231 26.1218C59.6154 26.1218 59.3847 26.0486 59.1539 25.9023C58.9231 25.756 58.7693 25.4633 58.7693 25.1706C58.7693 24.9511 58.8462 24.8047 58.9231 24.6584C59 24.5121 59.077 24.3657 59.2308 24.2194C59.3846 24.073 59.5385 23.9999 59.6923 23.9267C59.8462 23.8535 60.077 23.8535 60.2308 23.8535C60.5385 23.8535 60.7693 23.9267 61 24.073C61.2308 24.2194 61.3847 24.5121 61.3847 24.8047C61.3847 25.0243 61.3077 25.1706 61.2308 25.3169C61.1539 25.4633 61.077 25.6096 60.9231 25.756C60.7693 25.9023 60.6154 25.9755 60.4616 26.0486C60.3077 26.0486 60.1539 26.1218 59.9231 26.1218Z" fill="white"/>
<path d="M62.5384 27.2925C62.6923 27.2193 62.8461 27.2193 63.0769 27.1461C63.3077 27.073 63.4615 26.9998 63.6923 26.9998C63.9231 26.9266 64.2308 26.9266 64.4615 26.8534C64.7692 26.8534 65.0769 26.7803 65.4615 26.7803C66.5384 26.7803 67.3077 27.073 67.7692 27.7315C68.1538 28.3169 68.2308 29.1949 68 30.2193L67 34.0242H64.9231L65.8461 30.2925C65.9231 30.073 65.9231 29.8534 66 29.6339C66.0769 29.4144 66 29.1949 66 29.0486C66 28.9022 65.8461 28.7559 65.7692 28.6095C65.6154 28.5364 65.3846 28.4632 65.1538 28.4632C64.8461 28.4632 64.6154 28.4632 64.3077 28.5364L62.9231 34.0242H60.8461L62.5384 27.2925Z" fill="white"/>
<path d="M74.6154 33.7317C74.4616 33.878 74.1539 33.9512 73.7693 34.0976C73.3846 34.2439 72.9231 34.2439 72.4616 34.2439C71.6154 34.2439 70.9231 34.0244 70.5385 33.5122C70.0769 33.0732 69.9231 32.4146 69.9231 31.6098C69.9231 31.0244 70 30.439 70.2308 29.8537C70.4616 29.2683 70.6923 28.8293 71.0769 28.3902C71.4616 27.9512 71.9231 27.5854 72.4616 27.3659C73 27.1463 73.6154 27 74.3846 27C74.8462 27 75.3846 27.0732 75.8462 27.2195L75.3846 27.9512C75.1539 27.878 74.9231 27.8049 74.7693 27.8049C74.6154 27.8049 74.3846 27.7317 74.1539 27.7317C73.6154 27.7317 73.2308 27.8049 72.7693 28.0244C72.3846 28.2439 72 28.5366 71.6923 28.8293C71.3846 29.1951 71.1539 29.561 71 30C70.8462 30.439 70.7692 30.9512 70.7692 31.4634C70.7692 32.0488 70.9231 32.4878 71.2308 32.8537C71.5385 33.2195 72 33.3659 72.6154 33.3659C72.8462 33.3659 73 33.3659 73.2308 33.2927C73.4616 33.2927 73.6154 33.2195 73.7693 33.1463C73.9231 33.0732 74.0769 33.0732 74.2308 33C74.3846 32.9268 74.4616 32.9268 74.5385 32.8537L74.6154 33.7317Z" fill="white"/>
<path d="M80.8462 34.1707C80.7693 34.0975 80.7693 33.9511 80.6924 33.8048C80.6154 33.6585 80.6154 33.5121 80.6154 33.3658C80.3077 33.6585 79.9231 33.878 79.5385 34.0243C79.1539 34.1707 78.7693 34.2438 78.3847 34.2438C78.077 34.2438 77.7693 34.1707 77.5385 34.0975C77.3077 34.0243 77 33.878 76.8462 33.6585C76.6154 33.439 76.4616 33.2194 76.3077 32.8536C76.1539 32.5609 76.077 32.1219 76.077 31.6829C76.077 30.9511 76.2308 30.2926 76.4616 29.7072C76.6924 29.1219 77.077 28.6097 77.4616 28.2438C77.9231 27.8048 78.3847 27.5121 79 27.2926C79.6154 27.0731 80.2308 26.9268 81 26.9268C81.6154 26.9268 82.1539 26.9999 82.6924 27.2194L81.6154 31.3902C81.5385 31.6097 81.5385 31.8292 81.4616 32.0487C81.3847 32.2682 81.3847 32.4146 81.3847 32.6341C81.3847 32.8536 81.3847 33.0731 81.4616 33.2926C81.5385 33.5121 81.6154 33.7316 81.6923 34.0243L80.8462 34.1707ZM81.6923 27.878C81.5385 27.878 81.3847 27.8048 81.2308 27.8048C81.077 27.8048 80.9231 27.8048 80.7693 27.8048C80.1539 27.8048 79.6924 27.878 79.2308 28.0975C78.7693 28.317 78.3847 28.6097 78.077 28.9755C77.7693 29.3414 77.5385 29.7072 77.3847 30.1463C77.2308 30.5853 77.1539 31.0243 77.1539 31.5365C77.1539 31.9024 77.1539 32.195 77.2308 32.4877C77.3077 32.7072 77.3847 32.9268 77.5385 33.0731C77.6924 33.2194 77.8462 33.3658 78 33.3658C78.1539 33.3658 78.3847 33.439 78.5385 33.439C78.9231 33.439 79.3077 33.3658 79.6154 33.1463C79.9231 32.9268 80.3077 32.7072 80.6154 32.4146C80.6154 32.195 80.6154 31.9024 80.6924 31.6097C80.7693 31.317 80.8462 31.0243 80.9231 30.7316L81.6923 27.878Z" fill="white"/>
<path d="M83.2308 32.9268C83.6154 33.0731 83.9231 33.2194 84.1539 33.2926C84.3846 33.3658 84.6923 33.3658 85.0769 33.3658C85.3077 33.3658 85.5385 33.3658 85.7692 33.2926C86 33.2194 86.1539 33.1463 86.3077 33.0731C86.4616 32.9999 86.6154 32.8536 86.6923 32.7072C86.7692 32.5609 86.8462 32.3414 86.8462 32.1219C86.8462 31.9024 86.7692 31.6829 86.6154 31.5365C86.4616 31.3902 86.3077 31.2438 86.0769 31.1707C85.8462 31.0975 85.6923 30.9511 85.3846 30.8048C85.1539 30.7316 84.9231 30.5853 84.6923 30.4389C84.4616 30.2926 84.3077 30.1463 84.1539 29.9268C84 29.7072 83.9231 29.4146 83.9231 29.1219C83.9231 28.756 84 28.3902 84.1539 28.0975C84.3077 27.8048 84.5385 27.5853 84.7692 27.439C85 27.2926 85.3077 27.1463 85.6154 27.0731C85.9231 26.9999 86.3077 26.9268 86.6154 26.9268C86.9231 26.9268 87.2308 26.9268 87.5385 26.9999C87.8462 27.0731 88.1539 27.1463 88.3846 27.2194L88 28.0243C87.7693 27.9511 87.5385 27.878 87.3077 27.8048C87.0769 27.7316 86.7692 27.7316 86.5385 27.7316C86.3077 27.7316 86.0769 27.7316 85.8462 27.8048C85.6154 27.878 85.4616 27.9511 85.3077 28.0243C85.1539 28.0975 85 28.2438 84.9231 28.3902C84.8462 28.5365 84.7692 28.756 84.7692 28.9755C84.7692 29.195 84.8462 29.4146 85 29.5609C85.1539 29.7072 85.3077 29.8536 85.5385 29.9999C85.7692 30.1463 85.9231 30.2194 86.2308 30.3658C86.4616 30.439 86.6923 30.5853 86.9231 30.7316C87.1539 30.878 87.3077 31.0243 87.4616 31.2438C87.6154 31.4633 87.6923 31.6829 87.6923 32.0487C87.6923 32.4146 87.6154 32.7804 87.4616 33.0731C87.3077 33.3658 87.0769 33.5853 86.8462 33.8048C86.6154 33.9511 86.3077 34.0975 86 34.1707C85.6923 34.2438 85.3077 34.317 85 34.317C84.6154 34.317 84.2308 34.2438 83.9231 34.1707C83.6154 34.0975 83.2308 33.9511 82.9231 33.8048L83.2308 32.9268Z" fill="white"/>
<path d="M89.9231 34.0244H89L91.5385 23.7074L92.4615 23.561L91.5385 27.2196C92.1538 27.0001 92.6923 26.8537 93.2308 26.8537C93.5385 26.8537 93.8462 26.9269 94.1538 27.0001C94.4615 27.0732 94.6923 27.2196 94.8462 27.4391C95.0769 27.5854 95.2308 27.8781 95.3077 28.0976C95.4615 28.3903 95.4615 28.683 95.4615 29.0488C95.4615 29.2684 95.4615 29.4879 95.3846 29.7805C95.3846 30.0001 95.3077 30.2927 95.2308 30.5123L94.3846 33.9513H93.4615L94.2308 30.8781C94.3077 30.5854 94.3846 30.2927 94.4615 30.0001C94.5385 29.7074 94.5385 29.4147 94.5385 29.122C94.5385 28.8293 94.4615 28.6098 94.3846 28.4635C94.3077 28.244 94.1538 28.0976 94 28.0244C93.8461 27.9513 93.6923 27.8049 93.4615 27.8049C93.2308 27.8049 93.0769 27.7318 92.8461 27.7318C92.5385 27.7318 92.3077 27.7318 92 27.8049C91.6923 27.8781 91.4615 27.9513 91.2308 28.0244L89.9231 34.0244Z" fill="white"/>
</svg>
