<svg width="100" height="60" viewBox="0 0 100 60" fill="none" xmlns="http://www.w3.org/2000/svg">
<path d="M88.9373 33.2942C88.9757 33.282 89.0013 33.2453 89.0269 33.2085C90.3457 31.0657 91.6133 28.8983 92.7785 26.682C92.9194 26.4249 93.0474 26.1555 93.1754 25.8861C93.2138 25.8249 93.2395 25.7759 93.3291 25.7759C94.1357 25.7759 94.9424 25.7759 95.7491 25.7759C95.7619 25.7759 95.7747 25.7881 95.7747 25.7881C95.7875 25.8371 95.7491 25.8616 95.7363 25.8983C93.9309 29.1677 92.0359 32.3759 89.8848 35.4493C89.7695 35.6208 89.6415 35.7922 89.5263 35.9759C89.4879 36.0371 89.411 36.0738 89.3342 36.0738C88.6556 36.0738 87.9898 36.0738 87.3112 36.0738C87.1831 36.0738 87.1831 36.0738 87.1575 35.9514C86.927 34.7269 86.7094 33.5024 86.5173 32.2779C86.3765 31.3718 86.2356 30.4779 86.1076 29.5718C86.0179 28.8861 85.9283 28.2004 85.8515 27.5147C85.7875 27.0126 85.7363 26.5228 85.685 26.0208C85.6594 25.7759 85.6466 25.8126 85.8899 25.8126C86.6197 25.8126 87.3368 25.8126 88.0666 25.8126C88.105 25.8126 88.1562 25.8126 88.1946 25.8126C88.2587 25.8126 88.2715 25.8371 88.2843 25.8983C88.2843 25.9963 88.2971 26.0942 88.2971 26.2045C88.3355 27.184 88.4251 28.1759 88.5147 29.1555C88.5788 29.9514 88.6556 30.7473 88.7452 31.5432C88.7964 32.0942 88.8605 32.6942 88.9373 33.2942Z" fill="#D82A3C"/>
<path d="M83.5724 28.1148C83.201 27.8699 82.8041 27.6862 82.3688 27.5638C81.7798 27.4046 81.1652 27.4046 80.5762 27.5393C80.3585 27.5882 80.1537 27.6984 79.9872 27.8331C79.5391 28.1638 79.5006 28.9352 79.9232 29.3515C80.1024 29.5229 80.3201 29.6699 80.5634 29.7678C81.1908 30.025 81.7798 30.3556 82.3304 30.7474C82.6761 30.9923 82.9578 31.3107 83.1626 31.678C83.3163 31.9474 83.4187 32.2535 83.4571 32.5597C83.5211 33.1474 83.4443 33.7474 83.2138 34.2984C83.0218 34.7393 82.7145 35.1188 82.3176 35.4005C81.7926 35.7678 81.1908 36.0127 80.5506 36.1229C79.7695 36.2699 78.9757 36.3066 78.1946 36.2209C77.4392 36.1474 76.7094 35.9515 76.0307 35.6454C75.8643 35.5719 75.7106 35.4617 75.5442 35.376C75.4802 35.3393 75.4674 35.3148 75.5058 35.2413C75.8131 34.7148 76.1204 34.1882 76.4277 33.6617C76.4661 33.5882 76.5173 33.576 76.5941 33.625C76.7862 33.7474 77.0038 33.8576 77.2087 33.9433C77.6441 34.127 78.105 34.2617 78.5788 34.3107C79.1933 34.3719 79.7951 34.3597 80.3585 34.1025C80.8963 33.8576 81.0884 33.3433 80.9475 32.8291C80.9091 32.7066 80.8451 32.5964 80.7554 32.5107C80.4866 32.2413 80.1665 32.0209 79.7951 31.8862C79.3086 31.6658 78.8348 31.3964 78.3995 31.0903C77.8489 30.7107 77.4136 30.2209 77.2471 29.5719C77.0038 28.6291 77.1319 27.7229 77.7593 26.927C78.1434 26.4495 78.6812 26.0821 79.283 25.8984C81.0371 25.3229 82.7401 25.4699 84.379 26.3025C84.5967 26.4127 84.5967 26.425 84.4814 26.6209C84.2126 27.074 83.9437 27.5393 83.6748 27.9923C83.6364 28.0168 83.6108 28.0535 83.5724 28.1148Z" fill="#D82A3C"/>
<path d="M32.2663 24.5635C31.9462 25.8369 31.6389 27.0859 31.3188 28.3594C31.4725 28.3104 31.5877 28.2614 31.703 28.2247C32.3304 28.0288 33.009 28.041 33.6364 28.2492C34.443 28.5063 35.0576 29.1308 35.2753 29.9145C35.9923 32.1676 34.84 34.7022 32.6505 35.7553C31.9846 36.0737 31.2676 36.2451 30.525 36.2574C29.6031 36.2941 28.6812 36.1716 27.7849 35.9267C27.6056 35.8778 27.4392 35.8043 27.2727 35.7431C27.1959 35.7063 27.1703 35.6696 27.1959 35.5839C27.3752 34.8859 27.5416 34.2002 27.7209 33.5023C28.2971 31.2002 28.8732 28.9104 29.4366 26.6084C29.5647 26.0818 29.7055 25.5553 29.8336 25.0288C29.8464 24.9431 29.9104 24.8818 30 24.8818C30.653 24.7839 31.3188 24.6859 31.9718 24.588C32.0615 24.5757 32.1639 24.5635 32.2663 24.5635ZM29.8208 34.3716C30.1793 34.4451 30.5378 34.4696 30.8963 34.4206C31.5365 34.3104 32.0999 33.9676 32.4712 33.4778C32.8681 32.9757 33.1242 32.3635 33.1754 31.739C33.2266 31.3104 33.1754 30.8818 33.009 30.4778C32.9193 30.2574 32.7401 30.0859 32.4968 30.0247C31.9846 29.8778 31.4213 29.9512 30.9731 30.2329C30.8707 30.2941 30.8067 30.392 30.7811 30.5023C30.525 31.5798 30.2433 32.6451 29.9872 33.7227C29.936 33.9186 29.872 34.1512 29.8208 34.3716Z" fill="white"/>
<path d="M54.2638 32.9388C54.2766 31.751 54.6991 30.5877 55.4802 29.6571C56.0691 28.9224 56.8886 28.3959 57.8233 28.1633C58.5275 27.9918 59.2702 27.9918 59.9744 28.1878C60.9219 28.4449 61.5365 29.0326 61.8566 29.9143C62.0743 30.551 62.1511 31.2367 62.0487 31.8979C61.9719 32.5959 61.7542 33.2694 61.4341 33.8939C61.0628 34.6041 60.4994 35.2163 59.7952 35.6571C59.3342 35.951 58.822 36.1347 58.2715 36.2081C57.6953 36.3061 57.1063 36.2939 56.5301 36.1714C55.3777 35.9143 54.6863 35.2041 54.3918 34.1265C54.3022 33.7347 54.251 33.3428 54.2638 32.9388ZM59.7952 31.4816C59.7952 31.3469 59.7824 31.2367 59.7824 31.1143C59.7567 30.8694 59.6927 30.6245 59.5903 30.4041C59.5007 30.1959 59.3086 30.0367 59.0653 29.9877C58.6044 29.8531 58.0922 29.951 57.7209 30.2449C57.4136 30.4775 57.1703 30.7592 57.0039 31.0898C56.6709 31.7265 56.5301 32.4245 56.5685 33.1347C56.5813 33.4286 56.6581 33.7224 56.8118 33.9918C56.9142 34.1877 57.1063 34.3224 57.324 34.3714C57.7593 34.4816 58.2202 34.3959 58.5788 34.151C58.9117 33.9183 59.1678 33.6122 59.347 33.2571C59.6287 32.6939 59.7824 32.0939 59.7952 31.4816Z" fill="white"/>
<path d="M71.6389 36.0614L71.8566 35.192C72.1511 34.0165 72.4456 32.8287 72.7401 31.641C72.8297 31.3349 72.8553 31.0043 72.8297 30.6859C72.8169 30.3063 72.5096 29.9879 72.0999 29.9634C71.7286 29.9145 71.3572 29.9757 70.9859 30.0124C70.8963 30.0247 70.8835 30.0859 70.8707 30.1471C70.7683 30.5757 70.653 31.0165 70.5506 31.4451C70.1793 32.9389 69.8079 34.4328 69.4366 35.9267C69.3982 36.0614 69.3982 36.0614 69.2574 36.0614H67.2215C67.1831 36.0614 67.1319 36.0614 67.0935 36.0491C67.1831 35.7063 67.2727 35.3512 67.3624 35.0083C67.8873 32.9512 68.4123 30.8818 68.9373 28.8247C68.9501 28.8002 68.9501 28.7757 68.9501 28.7634C68.9629 28.6532 69.0269 28.6165 69.1293 28.592C70.1537 28.2492 71.242 28.09 72.3175 28.1022C72.7529 28.1022 73.1882 28.1634 73.6108 28.2859C74.4686 28.5553 74.9552 29.1185 75.1344 29.9512C75.2497 30.5145 75.2241 31.09 75.0704 31.641C74.7759 32.8655 74.4558 34.0777 74.1485 35.3022C74.0973 35.5226 74.0333 35.7553 73.9821 35.9757C73.9693 36.0369 73.9437 36.0859 73.854 36.0859C73.137 36.0614 72.4072 36.0614 71.6389 36.0614Z" fill="white"/>
<path d="M45.1345 25.9839L44.84 27.1227C44.7375 27.5023 44.6479 27.8696 44.5455 28.2737H47.1191C47.0679 28.4818 47.0167 28.6655 46.9782 28.8492C46.8886 29.2165 46.7862 29.5961 46.6966 29.9635C46.6709 30.0614 46.6325 30.0859 46.5301 30.0859C45.7747 30.0859 45.0192 30.0859 44.2638 30.0859C44.0973 30.0859 44.0973 30.0859 44.0589 30.2451C43.8412 31.09 43.6364 31.9349 43.4187 32.792C43.3675 33.0247 43.3163 33.2574 43.3035 33.49C43.2523 33.9676 43.5083 34.2982 44.0077 34.3839C44.4174 34.4451 44.84 34.4329 45.2369 34.3349C45.4418 34.2982 45.6338 34.2492 45.8387 34.1757C45.8515 34.2737 45.8643 34.3594 45.8771 34.4451C45.9283 34.8859 45.9667 35.3145 46.0179 35.7553C46.0307 35.8165 46.0051 35.8778 45.9411 35.9023H45.9283C45.032 36.2206 44.0589 36.3308 43.1114 36.2451C42.8297 36.2206 42.548 36.1594 42.2919 36.0614C41.6261 35.8043 41.242 35.3267 41.0756 34.6655C40.9987 34.2614 40.9987 33.8451 41.0628 33.441C41.1396 32.7308 41.3444 32.0451 41.5237 31.3472C41.9206 29.7431 42.3176 28.139 42.7145 26.5349C42.7657 26.3512 42.7657 26.339 42.9578 26.3145L45.0704 26.0084C45.0704 25.9839 45.096 25.9839 45.1345 25.9839Z" fill="white"/>
<path d="M52.7913 34.1022C52.8297 34.4573 52.8681 34.8124 52.9065 35.1675C52.9193 35.3634 52.945 35.5594 52.9706 35.7553C52.9834 35.8287 52.9706 35.8655 52.8937 35.89C51.8566 36.2696 50.7298 36.3675 49.6415 36.1594C48.6684 35.9267 47.9129 35.4247 47.516 34.5185C47.3496 34.1512 47.2599 33.7593 47.2215 33.3553C47.1319 32.3267 47.3496 31.2981 47.8617 30.3797C48.566 29.143 49.6543 28.4083 51.0884 28.1389C52.0871 27.943 53.1242 28.041 54.0717 28.4083C54.1613 28.445 54.2894 28.4573 54.3022 28.5308C54.315 28.6042 54.251 28.6899 54.2126 28.7634C54.0077 29.2165 53.8028 29.6573 53.5852 30.1104C53.5339 30.2083 53.5596 30.2451 53.3931 30.1838C52.9322 30.0002 52.4456 29.9144 51.9462 29.9267C50.9091 29.9634 50.1152 30.5144 49.7823 31.4451C49.5519 32.0818 49.5007 32.7675 49.6671 33.4287C49.7055 33.5634 49.7567 33.6859 49.8208 33.8083C49.9872 34.1145 50.3073 34.3226 50.6786 34.3716C51.242 34.4573 51.8054 34.4083 52.3432 34.2491C52.4968 34.2002 52.6377 34.1512 52.7913 34.1022Z" fill="white"/>
<path d="M36.1075 36.0495C36.1716 35.8046 36.2228 35.5719 36.2868 35.3393C36.863 33.0372 37.4392 30.7352 38.0154 28.4331C38.0282 28.3964 38.0282 28.3719 38.041 28.3352C38.041 28.274 38.0794 28.2617 38.1434 28.2617C38.1562 28.2617 38.1818 28.2617 38.1946 28.2617H40.2689H40.3585C40.3713 28.3107 40.3713 28.3597 40.3457 28.4087C39.7183 30.9066 39.0781 33.4168 38.4507 35.9148C38.4251 36.0127 38.3995 36.0495 38.297 36.0495C37.6056 36.0495 36.9014 36.0495 36.21 36.0495C36.1716 36.0617 36.146 36.0617 36.1075 36.0495Z" fill="white"/>
<path d="M62.7017 36.0491C62.8041 35.6573 62.8938 35.2777 62.9962 34.8859C63.534 32.7308 64.0717 30.5634 64.6095 28.4083C64.6479 28.2736 64.6479 28.2736 64.7888 28.2736H66.8118C66.863 28.2614 66.9142 28.2736 66.9655 28.2859C66.8886 28.592 66.8118 28.8981 66.735 29.2042C66.1716 31.4328 65.6082 33.6614 65.0448 35.8777C65.0448 35.9022 65.032 35.9267 65.032 35.9389C65.0192 36.0247 64.9808 36.0614 64.8784 36.0614C64.1742 36.0614 63.4699 36.0614 62.7785 36.0614C62.7657 36.0614 62.7401 36.0614 62.7017 36.0491Z" fill="white"/>
<path d="M41.1267 25.8247C41.1011 26.5594 40.5378 27.1839 39.7823 27.3063C39.4366 27.3675 39.0909 27.3063 38.7964 27.1349C38.3867 26.9145 38.233 26.5716 38.2714 26.1431C38.3355 25.3594 38.9885 24.7471 39.8079 24.7104C40.1536 24.6859 40.4993 24.7961 40.7682 25.0043C41.0115 25.2002 41.1523 25.5063 41.1267 25.8247Z" fill="white"/>
<path d="M64.8656 26.1798C64.8656 25.494 65.4418 24.8573 66.1972 24.7349C66.5045 24.6859 66.8118 24.7226 67.0935 24.8451C67.6697 25.0777 67.7721 25.5798 67.7209 25.9471C67.6441 26.7063 66.991 27.2818 66.21 27.3308C65.8131 27.3553 65.429 27.2206 65.1473 26.9512C64.9168 26.743 64.8528 26.4859 64.8656 26.1798Z" fill="white"/>
<path d="M16.21 39.294C16.0691 39.1348 15.8643 39.0491 15.6466 39.0613C15.4289 39.0858 15.2113 39.0736 14.9936 39.0491C14.904 39.0369 14.8143 39.0124 14.7375 38.9756C14.6095 38.9144 14.4686 38.9022 14.3406 38.9389C14.2894 38.9389 14.251 38.9634 14.2253 39.0124C14.1869 39.0491 14.1485 39.0369 14.1101 39.0246C14.0717 39.0124 14.0717 38.9634 14.0845 38.9267C14.1101 38.7675 14.2125 38.6205 14.3534 38.5226C14.5326 38.4001 14.7247 38.2777 14.9168 38.1675C15.1985 38.0083 15.5442 38.0328 15.8002 38.2042C16.0051 38.3634 16.2484 38.4736 16.5045 38.5471L16.5685 38.5593C16.6197 38.5226 16.5813 38.4858 16.5813 38.4491C16.5301 38.3022 16.4661 38.1552 16.3764 38.0205C16.3124 37.8981 16.1716 37.8246 16.0179 37.8491C15.8131 37.8858 15.685 37.7756 15.5954 37.6164C15.5442 37.5307 15.5442 37.4083 15.4673 37.3716C15.3905 37.3348 15.2753 37.3838 15.1728 37.396C15.0832 37.4205 14.9808 37.4083 14.8912 37.3716C14.904 37.3103 14.968 37.2858 15.0192 37.2613C15.3393 37.0777 15.7106 36.9797 16.0819 36.9675C16.2484 36.9675 16.4148 37.0164 16.5429 37.1144C16.7606 37.2736 16.9782 37.445 17.1831 37.6287C17.2215 37.6654 17.2727 37.7022 17.3239 37.7267C17.3367 37.7144 17.3495 37.7022 17.3495 37.7022C17.4008 37.3103 17.388 36.9185 17.3239 36.5267C17.2983 36.3675 17.2983 36.3797 17.1319 36.3675C16.7349 36.3552 16.3252 36.3307 15.9283 36.3185C15.5314 36.294 15.1344 36.2328 14.7375 36.1593C14.507 36.1226 14.2766 36.0981 14.0461 36.0858C14.0589 36.2573 14.1613 36.392 14.1997 36.5511C13.8796 36.6491 13.5723 36.6491 13.2906 36.4532C13.1498 36.343 13.0346 36.2205 12.9321 36.0858C12.8041 35.9144 12.676 35.743 12.548 35.5838C12.42 35.4124 12.2279 35.2777 12.0102 35.2042C11.8694 35.1552 11.7285 35.094 11.5749 35.0328C11.6133 35.2532 11.7926 35.4124 11.7413 35.645C11.6517 35.645 11.5621 35.6083 11.4981 35.5593C11.306 35.4369 11.1396 35.2777 10.9987 35.1062C10.8066 34.8858 10.653 34.6409 10.4865 34.396C10.3329 34.1511 10.1536 33.9185 9.97438 33.6858C9.93597 33.6491 9.91036 33.5879 9.83354 33.5634C9.85915 33.6981 9.87195 33.8205 9.89756 33.943C9.83354 33.9797 9.80793 33.943 9.76952 33.9307C9.53904 33.8083 9.35979 33.6001 9.27016 33.3552C9.16772 33.0858 9.1037 32.8164 9.06529 32.5348C9.03968 32.3879 9.01407 32.2409 8.98847 32.1062C8.95005 31.8858 8.86043 31.6654 8.74519 31.4818C8.62995 31.2981 8.56593 31.0777 8.56593 30.8573C8.56593 30.5144 8.60434 30.1838 8.66836 29.8532C8.68117 29.7307 8.69397 29.6083 8.69397 29.4858C8.69397 29.4001 8.66836 29.3022 8.61715 29.2287C8.55313 29.143 8.54032 29.0328 8.57874 28.9348C8.69397 28.5797 8.84762 28.2369 9.03968 27.9062C9.14212 27.7593 9.28296 27.6369 9.44941 27.5756C9.85915 27.4042 10.3073 27.343 10.7426 27.392C10.8195 27.392 10.8579 27.4287 10.8323 27.5022C10.7682 27.7716 10.8323 28.0409 10.8323 28.3103C10.8451 28.4573 10.8066 28.6164 10.7298 28.7511C10.653 28.8981 10.6018 29.0573 10.589 29.2164C10.5762 29.2777 10.6018 29.3267 10.653 29.3511C10.7426 29.4124 10.8451 29.4613 10.9475 29.5103C11.0371 29.5471 11.1268 29.596 11.2036 29.6573C11.3444 29.7307 11.4212 29.8777 11.4212 30.0246C11.434 30.196 11.4853 30.3675 11.5877 30.5144C11.6517 30.6246 11.7542 30.7103 11.8822 30.7348C12.1511 30.796 12.4072 30.9185 12.612 31.1022C12.7145 31.2001 12.8425 31.2613 12.9705 31.2981C13.1242 31.3471 13.265 31.4328 13.3803 31.5552C13.5851 31.7879 13.8668 31.8246 14.1485 31.7879C14.3406 31.7634 14.5326 31.7022 14.6863 31.592C14.8399 31.5062 14.9808 31.4083 15.1216 31.3103C15.16 31.2736 15.2241 31.2613 15.2625 31.2981C15.2753 31.3103 15.2753 31.3103 15.2881 31.3226C15.3905 31.445 15.5058 31.5675 15.621 31.6899C16.0051 32.1185 16.4405 32.4858 16.927 32.792C17.2471 32.9879 17.6184 33.1226 17.9897 33.1715C18.7068 33.2573 19.3854 32.9022 19.6927 32.2777C19.8207 31.9838 19.9104 31.6654 19.9488 31.3471C19.9872 31.0409 20.0512 30.7471 20.128 30.4532C20.1921 30.1838 20.3201 29.9389 20.4994 29.7307C20.5634 29.6573 20.6402 29.5838 20.717 29.5348C20.8451 29.4369 20.8451 29.4369 20.9091 29.5838C20.9987 29.7797 21.0755 29.9879 21.1652 30.1838C21.2292 30.196 21.242 30.1593 21.2676 30.1348C21.4084 29.9756 21.5365 29.8164 21.6517 29.6573C21.7157 29.5838 21.7413 29.4858 21.7029 29.3879C21.6261 29.094 21.5621 28.8001 21.5237 28.494C21.4853 28.2124 21.5365 27.9185 21.6645 27.6613C21.767 27.7471 21.8566 27.8573 21.9334 27.9675C21.959 27.992 21.9718 28.0287 21.9974 28.0532C22.0615 28.1144 22.1127 28.1144 22.1639 28.0409C22.2279 27.943 22.2919 27.8573 22.3687 27.7593C22.4584 27.6613 22.4712 27.5267 22.4072 27.4164C22.3047 27.2083 22.2279 26.9879 22.1383 26.7797C22.0358 26.5593 22.023 26.3144 22.0743 26.0818C22.0871 26.0083 22.1255 25.9348 22.1639 25.8736C22.2919 25.9593 22.3431 26.094 22.4712 26.192C22.5736 26.0328 22.6504 25.8613 22.6888 25.6777C22.7017 25.543 22.6632 25.4205 22.5736 25.3226C22.3431 25.0409 22.2279 24.6858 22.2279 24.3307C22.2279 24.294 22.2023 24.2328 22.2535 24.2083C22.3047 24.1838 22.3559 24.2205 22.3944 24.2573C22.4712 24.3062 22.4712 24.4042 22.5224 24.4777C22.7017 24.3185 22.7785 24.0613 22.7017 23.8409C22.6632 23.743 22.612 23.6573 22.548 23.5715C22.4584 23.4613 22.3687 23.3389 22.2919 23.2287C22.1127 22.9715 22.0358 22.6654 22.0871 22.3593C22.1511 22.3593 22.1767 22.4205 22.2279 22.4328C22.2919 22.4573 22.3687 22.445 22.4328 22.396C22.4968 22.3471 22.4456 22.2858 22.42 22.2491C22.3303 22.0777 22.2407 21.9185 22.1511 21.7593C22.0486 21.6001 21.959 21.4164 21.895 21.245C21.8182 21.0491 21.8182 20.8409 21.8822 20.645C21.959 20.645 21.9974 20.7062 22.0486 20.743C22.3687 21.0246 22.676 21.3185 23.0218 21.5879C23.0602 21.6124 23.0858 21.6369 23.1242 21.6613C23.3803 21.894 23.7132 22.0287 24.0589 22.0532C24.5582 22.1022 25.032 22.2369 25.4673 22.4695C25.5442 22.5062 25.6338 22.543 25.749 22.5797C25.6594 22.3471 25.5826 22.1267 25.4929 21.9185C25.4161 21.796 25.4417 21.6369 25.5442 21.5389C25.6466 21.4164 25.749 21.294 25.8643 21.1838C25.8899 21.1471 25.9411 21.1103 25.9923 21.1103C26.0819 21.2818 26.1716 21.4777 26.2612 21.6491C26.3508 21.8205 26.3252 22.0287 26.3764 22.2246C26.4148 22.1267 26.4276 22.0409 26.4148 21.943C26.4148 21.6491 26.4917 21.5634 26.7862 21.4899C26.927 21.4532 27.0679 21.4409 27.2087 21.4287C27.3239 21.4287 27.3367 21.4287 27.3495 21.5511C27.3623 21.7348 27.3239 21.9185 27.2599 22.1022C27.2343 22.1634 27.2215 22.2246 27.1831 22.3226C27.4264 22.2369 27.6312 22.1389 27.8617 22.1879C28.0794 22.2491 28.2842 22.3715 28.4379 22.5307C28.3098 22.6409 28.169 22.7267 28.0026 22.7879C27.9129 22.8246 27.8233 22.8491 27.7337 22.8736C27.516 22.9471 27.3239 23.0695 27.1703 23.2409C27.2343 23.3389 27.3495 23.4001 27.4648 23.4001C27.7849 23.4491 28.0794 23.6205 28.2714 23.8777C28.3227 23.9511 28.3739 24.0246 28.3995 24.0981C28.4251 24.1593 28.4251 24.1838 28.3483 24.2205C28.1178 24.3307 27.8617 24.3307 27.6312 24.2205L27.3495 24.0736C27.1063 23.9511 26.8374 23.9022 26.5685 23.9144C26.4917 23.9144 26.4533 23.9511 26.4533 24.0246C26.4533 24.1226 26.4276 24.2205 26.4148 24.3307C26.4148 24.4777 26.3764 24.6246 26.5045 24.7471C26.5557 24.796 26.5173 24.845 26.4276 24.845C26.0435 24.894 25.685 24.6369 25.6338 24.2695C25.6338 24.245 25.6338 24.2205 25.6338 24.1838C25.621 24.0613 25.621 23.9511 25.6466 23.8287C25.6594 23.7675 25.6594 23.694 25.6594 23.6328L25.0064 23.7062C25.0192 23.7797 25.0448 23.8532 25.0832 23.9267C25.3265 24.4777 25.5826 25.0287 25.7746 25.6042C25.9923 26.2409 26.1203 26.9144 26.1332 27.5879C26.1716 28.8491 25.9411 30.1103 25.4289 31.2858C24.8527 32.5715 23.9308 33.6981 22.7529 34.543C22.3687 34.8246 21.9718 35.0818 21.5493 35.3144C21.4597 35.3634 21.37 35.4246 21.2804 35.4736C21.1011 35.5716 20.9987 35.743 21.0115 35.9389C21.0243 36.1226 21.0115 36.3062 20.9603 36.4777C20.8707 36.7471 20.717 36.992 20.5122 37.1879C20.4609 37.1634 20.4353 37.1144 20.3969 37.0654C20.3457 37.0042 20.2945 36.943 20.2305 36.8818C20.1664 36.8083 20.064 36.8083 19.9872 36.8695C19.9616 36.8818 19.9488 36.9062 19.936 36.9307C19.8719 37.0409 19.8463 37.1756 19.8591 37.3103C19.8976 37.6042 19.7567 37.8124 19.539 37.996C19.4238 37.8981 19.3598 37.7511 19.2445 37.6287C19.0781 37.8124 18.9244 37.9838 18.7708 38.1552C18.7836 38.2164 18.8348 38.2164 18.8732 38.2164C19.0397 38.2409 19.2061 38.2532 19.3854 38.2777C19.5903 38.3144 19.7567 38.4246 19.8591 38.596C20.0512 38.8899 20.1664 39.2328 20.2177 39.5756C20.2305 39.7226 20.2049 39.8695 20.128 40.0042C20.0384 39.9797 20 39.9062 19.9616 39.845C19.9104 39.7471 19.8335 39.6736 19.7567 39.6001C19.6671 39.5144 19.5262 39.4777 19.3982 39.5022C19.1805 39.5511 18.9501 39.4899 18.7708 39.3552C18.7324 39.3307 18.694 39.3062 18.6556 39.294C18.5019 39.5144 18.2842 39.7103 18.1178 39.9307C17.9385 40.1756 17.8489 40.4818 17.8745 40.7756C17.8745 40.8981 17.8873 41.0205 17.9001 41.143C17.9129 41.3267 17.8489 41.4981 17.7337 41.6328C17.6184 41.7675 17.516 41.9144 17.4264 42.0858C17.3623 42.0981 17.3367 42.0613 17.2983 42.0246C17.0422 41.7797 16.8502 41.4613 16.7734 41.1185C16.7349 40.9593 16.7734 40.7879 16.8758 40.6532C16.9142 40.5797 16.9782 40.5185 17.0166 40.445C17.1319 40.2736 17.1703 40.0777 17.1319 39.8818C17.0807 39.8573 17.0422 39.894 17.0038 39.9062C16.6709 40.0164 16.338 40.1144 16.0179 40.2491C15.8899 40.2858 15.7874 40.396 15.749 40.5307C15.685 40.7267 15.5186 40.8858 15.3137 40.9348L15.2113 40.9593C15.1472 40.9715 15.1088 41.0328 15.1216 41.094V41.1062C15.1472 41.2532 15.1728 41.4001 15.1985 41.5593C14.9168 41.3879 14.7119 41.1185 14.6351 40.8124C14.5839 40.543 14.6735 40.2613 14.8655 40.0654C15.0704 39.8573 15.3137 39.6858 15.5826 39.5756C15.8002 39.4164 16.0051 39.3552 16.21 39.294Z" fill="#E9B201"/>
<path d="M10.653 20.5717C10.653 20.5594 10.6402 20.5472 10.6402 20.5472C10.8067 20.29 11.0243 20.0941 11.3829 20.0941C11.6773 20.1064 11.959 20.0941 12.2535 20.0696C12.4584 20.0451 12.6505 19.9961 12.8553 19.9349C12.8041 19.8125 12.6761 19.739 12.5352 19.7268C12.484 19.7268 12.4584 19.7145 12.4328 19.6778C12.4072 19.641 12.4456 19.6043 12.484 19.5798C12.7145 19.3839 13.0346 19.2982 13.3419 19.3349C13.5339 19.3717 13.726 19.4206 13.9053 19.4819C14.0461 19.5431 14.2126 19.5431 14.3662 19.4819C14.4686 19.4451 14.5839 19.4329 14.6991 19.4451C14.6095 19.3349 14.5839 19.2002 14.4046 19.2125C14.379 19.2125 14.3662 19.2002 14.3406 19.188C14.251 19.139 14.251 19.1023 14.3406 19.0533C14.7887 18.7839 15.3777 18.8329 15.7619 19.1757C16.0179 19.4084 16.2356 19.4451 16.6069 19.3594C16.5429 19.1635 16.3636 19.0288 16.1588 18.9921C16.4789 18.7472 16.927 18.7227 17.2855 18.9308C17.4136 19.0166 17.5288 19.1145 17.6569 19.2002C17.9001 19.3717 18.2074 19.4574 18.5147 19.4329C18.4763 19.3227 18.3995 19.2247 18.2971 19.1513C18.2074 19.09 18.0794 19.0655 17.9898 18.9553C18.2971 18.8574 18.63 18.8941 18.8989 19.0533C19.0397 19.139 19.1677 19.2247 19.283 19.3349C19.3854 19.4206 19.5007 19.5064 19.6159 19.5798C19.7311 19.4941 19.6671 19.4206 19.6287 19.3349C19.5903 19.2492 19.5775 19.1757 19.5519 19.09C19.6159 19.0655 19.6799 19.0655 19.7439 19.09C20.2177 19.237 20.653 19.4941 20.9987 19.8492C21.114 19.9839 21.2036 20.1431 21.2548 20.3023C21.3829 20.6696 21.4725 21.0492 21.5365 21.441C21.5749 21.588 21.6005 21.7472 21.6133 21.9064C21.6133 21.9798 21.6133 22.0533 21.6005 22.1268C21.5493 22.4206 21.5749 22.7145 21.6902 22.9839C21.7414 23.1431 21.8182 23.29 21.8694 23.4492C21.9206 23.5839 21.9206 23.7308 21.8694 23.8655C21.7414 24.2206 21.7414 24.588 21.8694 24.9431C21.8694 24.9553 21.8694 24.9676 21.8822 24.9798C21.9846 25.1757 21.9078 25.3227 21.7542 25.4574C21.6773 25.5308 21.6133 25.6288 21.6005 25.739C21.5621 25.9227 21.5365 26.1064 21.5493 26.29C21.5621 26.4247 21.5365 26.5594 21.4469 26.6819C21.3957 26.5961 21.3572 26.5104 21.3316 26.4125C21.242 26.1553 21.1652 25.9104 21.0884 25.6533C20.9859 25.3472 20.8323 25.0533 20.6274 24.7839C20.5122 24.6247 20.3969 24.4533 20.2945 24.2819C20.2177 24.1594 20.1921 24.0002 20.2433 23.8533C20.2817 23.7064 20.2945 23.5594 20.2561 23.4125C20.1793 22.9717 20.0128 22.5676 19.7567 22.2002C19.6543 22.0533 19.5135 21.9186 19.347 21.8329C19.0013 21.6492 18.694 21.7594 18.5403 22.1023C18.4507 22.3594 18.4379 22.6288 18.5019 22.8859C18.5147 22.9717 18.5403 23.0451 18.5531 23.1431C18.4251 23.1431 18.2971 23.1186 18.169 23.0819C17.9642 23.0206 17.7593 22.9717 17.5544 22.9349C16.6966 22.8002 15.8259 22.9227 15.0448 23.29C14.6735 23.4737 14.315 23.6819 13.9821 23.9268C13.8412 24.037 13.6876 24.1349 13.5339 24.2329C13.4187 24.3064 13.2779 24.3431 13.137 24.3308C12.945 24.3064 12.7529 24.3064 12.5608 24.2819C11.9718 24.2206 11.4085 24.3186 10.8451 24.4288C10.3073 24.539 9.78234 24.6615 9.23176 24.7349C8.84764 24.8084 8.43791 24.7961 8.05379 24.7227C7.73368 24.637 7.73368 24.637 7.83612 24.3308C7.90014 24.1472 7.96416 23.9513 8.02818 23.7676C8.07939 23.6084 8.11781 23.5839 7.91294 23.5349C7.90014 23.5349 7.87453 23.5227 7.86172 23.5227C7.7849 23.4982 7.73368 23.4125 7.7721 23.339C7.7721 23.3268 7.7849 23.3268 7.7849 23.3145C7.87453 23.0329 8.11781 22.8002 8.4123 22.7268C8.48912 22.7023 8.56595 22.6778 8.65558 22.6655C8.98848 22.5676 9.27018 22.3594 9.44943 22.0778C9.51345 21.9798 9.50065 21.9676 9.38541 21.9676C9.30859 21.9553 9.21896 21.9553 9.14213 21.9553C9.06531 21.9553 9.0397 21.9064 9.06531 21.8451C9.14213 21.6247 9.29578 21.4533 9.51345 21.3553C9.71832 21.2696 9.94879 21.2206 10.1793 21.1961C10.1921 21.1961 10.2177 21.1961 10.2305 21.1961C10.4482 21.2084 10.6658 21.1349 10.8323 20.988C10.8963 20.939 10.9603 20.89 11.0371 20.8533C11.0627 20.8288 11.1012 20.8166 11.0884 20.7798C11.0756 20.7431 11.0627 20.7064 11.0243 20.7064C10.9219 20.7186 10.8323 20.6451 10.7298 20.6574C10.6786 20.5839 10.6658 20.5839 10.653 20.5717Z" fill="#E9B201"/>
<path d="M16.146 31.2246C16.2868 31.2491 16.4149 31.2981 16.5301 31.3716C16.735 31.494 16.927 31.6165 17.1191 31.7512C17.2855 31.8614 17.4648 31.9348 17.6697 31.9838C17.7849 32.0083 17.9129 32.0083 18.041 31.9961C18.3867 31.9593 18.63 31.6655 18.5916 31.3471C18.5916 31.3104 18.5788 31.2736 18.566 31.2369C18.5019 30.992 18.3739 30.7593 18.1946 30.5757C18.0282 30.4042 17.8489 30.2328 17.6569 30.0859C17.388 29.8655 17.1063 29.6573 16.863 29.4124C16.5429 29.1063 16.274 28.7512 16.082 28.3593C16.0307 28.2491 16.0179 28.2491 15.9027 28.2859C15.7875 28.3226 15.6338 28.3593 15.493 28.3961C15.2881 28.4328 15.0832 28.5063 14.9168 28.6042C14.8656 28.5308 14.8143 28.4573 14.7759 28.3838C14.7119 28.2369 14.5455 28.1634 14.3918 28.2124C14.3406 28.2246 14.2894 28.2246 14.2254 28.2369C14.2382 28.4328 14.3278 28.6165 14.4942 28.7267C14.6991 28.8614 14.9424 28.9593 15.1857 29.0083C15.2625 29.0206 15.3393 28.9961 15.3905 28.9348C15.4546 28.8614 15.5314 28.8001 15.621 28.7512C15.6722 28.7144 15.7362 28.7267 15.7875 28.7634C16.0692 29.045 16.3252 29.3389 16.4149 29.7308C16.4917 30.0246 16.3636 30.3308 16.082 30.4655C15.9411 30.5389 15.8003 30.5879 15.6338 30.6001C15.6594 30.4655 15.7619 30.3675 15.7747 30.2328C15.7875 30.0981 15.7619 29.9634 15.7106 29.841C15.4417 29.9512 15.1857 30.0736 15.032 30.3185C14.9936 30.3797 14.968 30.441 14.9296 30.5022C14.7631 30.8206 14.4174 31.0042 14.0461 31.0042C13.9181 31.0042 13.8028 30.9675 13.6876 30.9063C13.4827 30.8083 13.2907 30.6736 13.0474 30.6124C12.9962 30.6001 12.9834 30.5512 12.9706 30.5144C12.9578 30.4287 12.9321 30.343 12.9193 30.245C12.9065 30.1716 12.8809 30.0859 12.8425 30.0246C12.8041 29.9022 12.6633 29.841 12.548 29.8777C12.4584 29.9022 12.3688 29.9389 12.2919 29.9879C12.2407 30.0124 12.1895 30.0614 12.1255 30.0736C11.9462 29.7797 12.0871 29.5471 12.3047 29.3267C12.1127 29.2777 11.959 29.2532 11.8054 29.2042C11.6645 29.1675 11.5365 29.1185 11.4213 29.045C11.3572 29.0206 11.3188 28.9471 11.3444 28.8859C11.4597 28.4695 11.8182 28.1634 12.2663 28.0899C12.5736 28.041 12.8937 28.0532 13.201 28.1022C13.2651 28.1144 13.3419 28.1267 13.4187 28.1144C13.2138 27.894 12.9193 27.7593 12.612 27.7471C12.3944 27.7471 12.1767 27.7593 11.959 27.7961C11.7926 27.8206 11.6133 27.8328 11.4469 27.8083C11.4853 27.7104 11.5365 27.6246 11.6133 27.5634C11.7798 27.4042 11.959 27.2695 12.1511 27.1593C12.2535 27.0981 12.356 27.0246 12.4456 26.9389C12.3688 26.8777 12.2791 26.8287 12.1895 26.8165C12.0487 26.7797 11.895 26.7553 11.7414 26.743C11.178 26.7308 10.6146 26.7553 10.064 26.8287C9.59027 26.8777 9.11652 26.9634 8.64277 26.9879C7.93854 27.0246 7.23432 26.9144 6.58131 26.6818C6.31242 26.5838 6.05634 26.4369 5.83867 26.2655C5.69783 26.1553 5.59539 25.9961 5.53137 25.8369C5.6338 25.8124 5.74904 25.8124 5.85147 25.8491C6.08195 25.8981 6.31242 25.9716 6.5429 26.0695C7.24712 26.3267 8.02817 26.3879 8.77081 26.2287C9.3726 26.1185 9.94879 25.9348 10.5378 25.7879C11.0371 25.641 11.5621 25.5797 12.0871 25.6042C12.2663 25.6165 12.4584 25.6042 12.6376 25.5675C12.8041 25.5308 12.9578 25.4695 13.0986 25.3593C12.9578 25.2614 12.7785 25.2002 12.612 25.1879C12.1895 25.1389 11.767 25.1512 11.3444 25.2369C10.7298 25.3348 10.1408 25.5063 9.53906 25.641C8.7324 25.8246 7.88733 25.7879 7.09347 25.5553C6.88861 25.5063 6.70935 25.4083 6.5429 25.2859C6.40205 25.1757 6.31242 25.0165 6.32523 24.845C6.32523 24.7471 6.33803 24.7348 6.44046 24.7593C6.59411 24.7961 6.73496 24.8573 6.863 24.9308C7.1703 25.0899 7.5032 25.2002 7.83611 25.2736C8.33547 25.3716 8.84764 25.3838 9.347 25.3104C9.93598 25.2369 10.4994 25.0899 11.0755 24.9675C11.4085 24.894 11.7542 24.845 12.0999 24.8206C12.4968 24.7961 12.9065 24.8328 13.2907 24.9308C13.5723 24.992 13.8796 24.9797 14.1485 24.8818C14.5711 24.7348 14.4942 24.7471 14.7247 25.0655C14.8528 25.2614 14.9552 25.4695 15.0192 25.6899C15.0448 25.7757 15.0832 25.8614 15.1216 25.9348C15.1601 26.0328 15.2753 26.0818 15.3777 26.0695C15.4033 26.0695 15.4417 26.0695 15.4674 26.0573C15.8131 25.9593 16.1588 25.8981 16.5045 25.8491C16.7862 25.8124 17.0167 25.6165 17.0935 25.3593C17.1319 25.2491 17.1703 25.1389 17.1959 25.041C17.2215 24.943 17.2599 24.845 17.3111 24.7593C17.4136 24.5144 17.6313 24.3308 17.9001 24.2573C18.0538 24.2083 18.2074 24.1838 18.3611 24.1471C18.6684 24.0736 18.9501 23.9389 19.1934 23.743C19.283 23.6818 19.3214 23.5716 19.283 23.4859C19.2318 23.3267 19.1805 23.1675 19.1421 22.9961C19.1165 22.8981 19.0909 22.8124 19.0653 22.7144C19.0269 22.592 19.0525 22.4695 19.1293 22.3716C19.2062 22.3961 19.2446 22.4573 19.2958 22.5185C19.5007 22.8002 19.6159 23.1185 19.6543 23.4614C19.6671 23.5471 19.6671 23.6451 19.6799 23.7308C19.7183 23.8655 19.6415 24.0002 19.5135 24.0491C19.3214 24.1471 19.1421 24.2328 18.9373 24.3063C18.7196 24.3797 18.5147 24.4655 18.3099 24.5757C18.105 24.6736 17.977 24.8573 17.9642 25.0655C17.9642 25.2246 18.0922 25.3471 18.2458 25.3593C18.4251 25.3471 18.6172 25.4083 18.758 25.5063C18.8476 25.5797 18.9629 25.641 19.0653 25.6899C19.1934 25.7512 19.347 25.7879 19.4878 25.7879C19.5519 25.7879 19.6159 25.7757 19.6671 25.8369C19.5391 25.9104 19.3982 25.9716 19.2574 26.0328C19.0909 26.1185 19.0781 26.0695 19.1165 26.2777C19.1293 26.3512 19.1421 26.4369 19.1293 26.5104C19.1165 26.6083 19.0781 26.6328 18.9757 26.5961C18.8732 26.5471 18.7708 26.5226 18.6556 26.5226C18.5916 26.5104 18.5147 26.5593 18.5019 26.6206C18.5019 26.6328 18.5019 26.6328 18.5019 26.645C18.4763 26.7553 18.4507 26.8777 18.4251 26.9879C18.4123 27.0491 18.3867 27.0614 18.3227 27.0369C18.2202 27.0002 18.1178 26.9757 18.0154 26.9389C17.9898 26.9267 17.9385 26.9267 17.9257 26.9634C17.9257 26.9634 17.9257 26.9757 17.9129 26.9879C17.8873 27.0614 17.8489 27.1348 17.8105 27.2083C17.7849 27.294 17.6953 27.343 17.6056 27.3185C17.58 27.3185 17.5672 27.3063 17.5416 27.294C17.4136 27.2206 17.4008 27.2206 17.3752 27.3675C17.3496 27.5512 17.2471 27.7226 17.1063 27.8573C17.0295 27.7961 16.9654 27.7226 16.927 27.6369C16.9014 27.6124 16.8886 27.5757 16.8502 27.5757C16.8118 27.5757 16.8118 27.6246 16.799 27.6491C16.7734 27.8206 16.7862 28.0042 16.8374 28.1634C16.9142 28.4083 17.0295 28.641 17.2087 28.8369C17.4136 29.0695 17.6313 29.2899 17.8617 29.4981C18.1562 29.7553 18.4251 30.0246 18.6812 30.3063C18.9501 30.6001 19.1293 30.943 19.2062 31.3226C19.2318 31.4818 19.2446 31.641 19.219 31.8001C19.1805 32.0818 18.9757 32.3144 18.694 32.4001C18.4123 32.4859 18.105 32.4981 17.8233 32.4369C17.3752 32.3634 16.9654 32.2042 16.5941 31.9471C16.4405 31.8491 16.3124 31.7144 16.2228 31.5675C16.1588 31.4573 16.1332 31.3471 16.146 31.2246ZM13.6236 27.245C13.8156 27.3308 14.0333 27.3553 14.2382 27.3185C14.5711 27.2695 14.7631 27.0614 14.7631 26.7797C14.7631 26.7553 14.7631 26.7185 14.7503 26.694C14.6479 26.5838 14.4814 26.5593 14.3534 26.6328C14.1997 26.7797 14.0205 26.9022 13.8284 27.0002C13.726 27.0614 13.6492 27.1471 13.6236 27.245ZM17.1575 26.1797C17.2215 26.2287 17.2983 26.2655 17.388 26.2899C17.6825 26.4246 18.0154 26.3757 18.2587 26.1675C18.3483 26.1063 18.3483 26.094 18.2587 26.0206C18.1306 25.9226 17.9642 25.8859 17.8105 25.9348C17.58 25.9716 17.3624 26.0573 17.1575 26.1797Z" fill="#E9B201"/>
<path d="M5.13445 34.2371C5.3137 34.2616 5.50576 34.2616 5.68502 34.2616C5.99232 34.2494 6.26121 34.1147 6.42766 33.8698C6.29962 33.8698 6.15877 33.882 6.03073 33.9188C5.85147 33.9555 5.67222 34.0045 5.48016 34.0412C5.28809 34.0902 5.07043 34.0657 4.89117 33.98C4.39181 33.7106 4.03329 33.331 3.93086 32.7678C3.86684 32.4127 3.99488 32.0943 4.16133 31.7514C4.19975 31.8371 4.23816 31.8861 4.26377 31.9473C4.3662 32.18 4.50705 32.4127 4.6735 32.6208C4.89117 32.9024 5.22407 33.0616 5.59539 33.0616C5.77465 33.0616 5.95391 33.0494 6.12036 33.0004C6.67094 32.8657 6.95263 32.4861 7.10628 31.9963C7.10628 31.9841 7.10628 31.9841 7.09347 31.9718C7.02945 31.9963 7.01665 32.0575 6.97824 32.0943C6.60692 32.4861 6.14597 32.7065 5.58259 32.6453C5.23688 32.6208 4.94238 32.4127 4.81434 32.1065C4.71191 31.8739 4.6863 31.6167 4.71191 31.3596C4.71191 31.2861 4.75032 31.2616 4.82715 31.2739C4.94238 31.2861 5.04482 31.3106 5.14725 31.3596C5.54418 31.58 5.9283 31.4943 6.29962 31.2861C6.68374 31.0902 6.92702 30.7106 6.93982 30.2943C6.96543 29.9392 6.97824 29.5841 6.95263 29.229C6.91421 28.7637 6.95263 28.2984 7.04226 27.8576C7.14469 27.4535 7.13188 27.4535 7.56722 27.478C7.77209 27.4902 7.96415 27.5024 8.16902 27.5024C8.25864 27.5024 8.27145 27.5269 8.25864 27.6127C8.20743 27.8698 8.14341 28.1269 8.05378 28.3841C7.86172 28.9841 7.75928 29.6086 7.74648 30.2453C7.72087 30.9065 7.74648 31.5678 7.75928 32.2167C7.78489 32.6208 7.74648 33.0126 7.66966 33.4045C7.56722 33.882 7.24712 34.2739 6.79898 34.482C6.5685 34.6045 6.31242 34.6902 6.04354 34.7269C5.63381 34.7882 5.33931 34.6412 5.13445 34.2371Z" fill="#E9B201"/>
<path d="M19.283 28.4695C19.283 28.6287 19.347 28.7879 19.3598 28.947C19.3598 28.996 19.4366 29.0817 19.3598 29.1062C19.283 29.143 19.1805 29.1307 19.1165 29.0695C19.0653 29.0205 19.0141 28.9838 18.9501 28.947C18.886 28.8981 18.7836 28.8981 18.7196 28.9593C18.6556 29.0083 18.5787 29.0695 18.5147 29.1185C18.3739 29.2287 18.169 29.2287 18.041 29.1062C17.9513 29.045 17.8745 28.9593 17.8105 28.8736C17.6697 28.7021 17.5416 28.5062 17.4392 28.3103C17.5032 28.2981 17.5672 28.2981 17.644 28.3226C17.7977 28.347 17.9513 28.3226 18.0922 28.2491C18.233 28.1756 18.2458 28.1389 18.1818 28.0042C18.1306 27.9062 18.0922 27.8083 18.041 27.7103C18.0154 27.6613 18.0282 27.6246 18.0922 27.6124C18.2074 27.5756 18.3227 27.5879 18.4379 27.6368C18.4635 27.6491 18.4763 27.6491 18.5019 27.6613C18.7196 27.7226 18.7324 27.7103 18.7708 27.5022C18.7836 27.3675 18.8092 27.245 18.8604 27.1226C19.1293 27.2817 19.4366 27.3307 19.7183 27.4777C19.7695 27.5021 19.8335 27.5389 19.8848 27.5756C20.0384 27.6858 20.0256 27.6858 19.9232 27.845C19.8592 27.9307 19.8335 28.0409 19.8335 28.1511C19.8463 28.4817 19.872 28.4328 19.5391 28.445C19.475 28.445 19.411 28.4572 19.347 28.4572C19.3086 28.445 19.2958 28.4572 19.283 28.4695Z" fill="#E9B201"/>
<path d="M5.53138 31.1269C5.33932 31.1269 5.17287 31.0411 5.07044 30.8942C5.03202 30.8575 5.03202 30.7962 5.07044 30.7595C5.08324 30.7473 5.10885 30.735 5.12165 30.735C5.18567 30.7228 5.24969 30.7228 5.31371 30.7105C5.44175 30.6983 5.44175 30.6983 5.45456 30.5758C5.45456 30.4901 5.45456 30.4044 5.45456 30.3187C5.44175 30.2697 5.48017 30.2208 5.54419 30.2085C5.63382 30.184 5.72345 30.1595 5.81307 30.135C6.03074 30.0861 6.26122 30.184 6.36365 30.3799C6.44048 30.5024 6.5045 30.6371 6.55571 30.7595C6.58132 30.8085 6.58132 30.8575 6.5173 30.8575C6.24841 30.9064 5.99233 31.0167 5.72345 31.0779C5.63382 31.1146 5.5826 31.1269 5.53138 31.1269Z" fill="#E9B201"/>
<path d="M10.6786 20.6085C10.6658 20.6209 10.6786 20.6581 10.653 20.6581C10.6146 20.6581 10.589 20.6209 10.589 20.5961C10.589 20.5837 10.6274 20.5714 10.6402 20.5837C10.653 20.5961 10.6658 20.6085 10.6786 20.6085Z" fill="#E9B201"/>
</svg>
