<svg width="100" height="60" viewBox="0 0 100 60" fill="none" xmlns="http://www.w3.org/2000/svg">
<path d="M14.3846 37.8294C19.5251 37.8294 23.6923 33.8655 23.6923 28.9757C23.6923 24.086 19.5251 20.1221 14.3846 20.1221C9.24413 20.1221 5.07693 24.086 5.07693 28.9757C5.07693 33.8655 9.24413 37.8294 14.3846 37.8294Z" fill="#BDBDBD"/>
<path d="M12.9231 23.561L11.4615 28.7562L10.4615 29.122L10 30.8049L11 30.4391L10.1538 33.4391H19L19.6154 31.244H14.3077L14.9231 29.122L15.9231 28.7562L16.3846 27.0732L15.3846 27.3659L16.4615 23.561H12.9231Z" fill="white"/>
<path d="M24.4615 35.8538L27.2308 23.1221H30L27.6923 33.7318H34.4615L34.0769 35.8538H24.4615Z" fill="white"/>
<path d="M37.8461 26.6343H40.4615L38.3846 35.8538H35.7692L37.8461 26.6343ZM38.6154 23.1221H41.2308L40.7692 25.3904H38.1538L38.6154 23.1221Z" fill="white"/>
<path d="M41.6154 28.4634L42 26.6341H43.3077L43.6154 25.1707L46.6154 23.4878L45.9231 26.7073H47.5385L47.1538 28.5366H45.5385L44.6923 32.4146C44.5385 33.1463 44.4615 33.5122 44.4615 33.5854C44.4615 33.8049 44.5385 33.9512 44.6154 34.0244C44.7692 34.0975 45 34.1707 45.3077 34.1707C45.3846 34.1707 45.6923 34.1707 46.1538 34.0975L45.7692 35.9268C45.3077 36 44.8462 36.0732 44.3846 36.0732C43.4615 36.0732 42.7692 35.9268 42.3846 35.561C42 35.1951 41.7692 34.7561 41.7692 34.1707C41.7692 33.878 41.8462 33.2195 42.0769 32.1951L42.9231 28.4634H41.6154Z" fill="white"/>
<path d="M56.6154 31.9755H50.0769C50.0769 32.0487 50.0769 32.1219 50.0769 32.195C50.0769 32.7804 50.2308 33.2926 50.6154 33.6585C51 34.0243 51.4615 34.2438 51.9231 34.2438C52.7692 34.2438 53.4615 33.8048 53.9231 32.9267L56.2308 33.2926C55.7692 34.1707 55.1539 34.8292 54.3846 35.3414C53.6154 35.7804 52.7692 35.9999 51.8462 35.9999C50.5385 35.9999 49.4615 35.6341 48.6923 34.8292C47.8462 34.0243 47.4615 32.9999 47.4615 31.756C47.4615 30.5121 47.8462 29.3414 48.5385 28.3902C49.5385 27.0731 51 26.4146 52.8462 26.4146C54 26.4146 55 26.7804 55.6923 27.4389C56.3846 28.1706 56.7692 29.1219 56.7692 30.3658C56.7692 31.0243 56.7692 31.5365 56.6154 31.9755ZM54.3846 30.5121C54.3846 30.3658 54.3846 30.2926 54.3846 30.2926C54.3846 29.6341 54.2308 29.1219 53.9231 28.756C53.6154 28.3902 53.1539 28.2438 52.6154 28.2438C52.0769 28.2438 51.6154 28.4633 51.1539 28.8292C50.6923 29.195 50.4615 29.7804 50.3077 30.5121H54.3846Z" fill="white"/>
<path d="M64.1539 32.3414L66.6923 32.7072C66.3077 33.8048 65.6154 34.6097 64.8462 35.195C64 35.7804 63.077 35.9999 62 35.9999C60.7693 35.9999 59.7693 35.6341 59.077 34.9755C58.3846 34.2438 58 33.2926 58 32.1219C58 31.0975 58.2308 30.1463 58.6923 29.2682C59.1539 28.3902 59.7693 27.6585 60.6923 27.1463C61.5385 26.6341 62.5385 26.4146 63.6154 26.4146C64.7693 26.4146 65.6923 26.7072 66.3846 27.2926C67.077 27.878 67.4616 28.6097 67.5385 29.5609L65.077 29.7804C65 29.2682 64.8462 28.9024 64.6154 28.6097C64.3077 28.3902 64 28.2438 63.5385 28.2438C63 28.2438 62.5385 28.3902 62.1539 28.756C61.6923 29.1219 61.3846 29.6341 61.1539 30.3658C60.9231 31.0975 60.7693 31.756 60.7693 32.3414C60.7693 32.8536 60.9231 33.2926 61.1539 33.5853C61.4616 33.878 61.7693 34.0243 62.2308 34.0243C62.6923 34.0243 63.077 33.878 63.4616 33.5853C63.6154 33.3658 63.9231 32.9267 64.1539 32.3414Z" fill="white"/>
<path d="M68.3077 32.0487C68.3077 30.3658 68.8462 28.9755 69.8462 27.9511C70.8462 26.9267 72.1539 26.4146 73.8462 26.4146C75.3077 26.4146 76.3846 26.7804 77.1539 27.5121C77.9231 28.2438 78.3846 29.2682 78.3846 30.5121C78.3846 31.9755 77.8462 33.2926 76.8462 34.3902C75.8462 35.4877 74.5385 35.9999 72.8462 35.9999C71.9231 35.9999 71.1539 35.8536 70.3846 35.4877C69.6923 35.1219 69.1539 34.6828 68.8462 34.0243C68.5385 33.4389 68.3077 32.7804 68.3077 32.0487ZM75.7692 30.2194C75.7692 29.6341 75.6154 29.1219 75.2308 28.8292C74.8462 28.4633 74.3846 28.317 73.8462 28.317C73.3077 28.317 72.7692 28.4633 72.3077 28.8292C71.8462 29.195 71.5385 29.6341 71.3077 30.2926C71.0769 30.9511 70.9231 31.5365 70.9231 32.0487C70.9231 32.7072 71.0769 33.2194 71.4616 33.5853C71.8462 33.9511 72.3077 34.1707 72.8462 34.1707C73.5385 34.1707 74.1539 33.878 74.6154 33.2926C75.4616 32.4146 75.7692 31.3902 75.7692 30.2194Z" fill="white"/>
<path d="M81.3846 26.6343H84L82 35.8538H79.3846L81.3846 26.6343ZM82.1539 23.1221H84.7692L84.3077 25.3904H81.6923L82.1539 23.1221Z" fill="white"/>
<path d="M86.6154 26.6341H89.0769L88.8462 27.8048C89.4615 27.2926 90.0769 26.9267 90.6154 26.7072C91.1538 26.4877 91.6923 26.4146 92.3077 26.4146C93.0769 26.4146 93.7692 26.6341 94.1538 27.0731C94.6154 27.5121 94.8462 28.0975 94.8462 28.8292C94.8462 29.1219 94.7692 29.7804 94.5385 30.6585L93.3846 35.8536H90.7692L91.9231 30.6585C92.0769 29.8536 92.1538 29.4146 92.1538 29.2682C92.1538 28.9755 92.0769 28.6828 91.8462 28.5365C91.6154 28.3902 91.3846 28.2438 91 28.2438C90.6154 28.2438 90.1538 28.3902 89.6923 28.6828C89.2308 28.9755 88.8462 29.4146 88.6154 29.9267C88.3846 30.2926 88.2308 31.0243 87.9231 32.1219L87.0769 35.9267H84.6154L86.6154 26.6341Z" fill="white"/>
</svg>
