<svg width="100" height="60" viewBox="0 0 100 60" fill="none" xmlns="http://www.w3.org/2000/svg">
<path d="M17.8462 46.8777C17.8462 47.0241 17.6923 47.1704 17.5385 47.1704H11.3846C11.5385 48.6338 12.6923 49.9509 14.3077 49.9509C15.3846 49.9509 16.2308 49.585 16.8462 48.707C16.9231 48.5606 17.0769 48.4875 17.2308 48.5606C17.3077 48.6338 17.3846 48.707 17.3846 48.7801C17.3846 48.8533 17.3846 48.9265 17.3077 48.9997C16.6923 50.0241 15.4616 50.5362 14.2308 50.5362C12.1539 50.5362 10.6923 48.7802 10.6923 46.8777C10.6923 44.9753 12.1539 43.2192 14.2308 43.2192C16.3846 43.2923 17.8462 45.0484 17.8462 46.8777ZM17.2308 46.6582C17.0769 45.1948 15.9231 43.8777 14.3077 43.8777C12.6923 43.8777 11.5385 45.1948 11.3846 46.6582H17.2308ZM25.3077 43.4387C25.4616 43.4387 25.6154 43.585 25.6154 43.7314C25.6154 43.8777 25.4616 44.0241 25.3077 44.0241H23.6923V50.1704C23.6923 50.3167 23.5385 50.4631 23.3846 50.4631C23.2308 50.4631 23.0769 50.3167 23.0769 50.1704V44.0241H21.5385C21.3846 44.0241 21.2308 43.8777 21.2308 43.7314C21.2308 43.585 21.3846 43.4387 21.5385 43.4387H23.0769V41.1704C23.0769 41.0241 23.1539 40.8777 23.3077 40.8777C23.5385 40.8777 23.6923 40.9509 23.6923 41.1704V43.4387H25.3077ZM35.3077 46.3655V50.0972C35.3077 50.2436 35.1539 50.3899 35 50.3899C34.8462 50.3899 34.6923 50.2436 34.6923 50.0972V46.3655C34.6923 45.1216 33.9231 43.8777 32.4616 43.8777C30.6154 43.8777 29.7692 45.4143 29.8462 47.0241C29.8462 47.0972 29.8462 47.2436 29.8462 47.2436V50.024C29.8462 50.1704 29.7692 50.3167 29.6154 50.3167C29.3846 50.3167 29.2308 50.2436 29.2308 50.024V37.9509C29.2308 37.8045 29.3846 37.6582 29.5385 37.6582C29.6923 37.6582 29.8462 37.8045 29.8462 37.9509V44.8289C30.3846 43.9509 31.3077 43.3655 32.3846 43.3655C34.3077 43.2923 35.3077 44.8289 35.3077 46.3655ZM46.3077 46.8777C46.3077 47.0241 46.1539 47.1704 46 47.1704H39.8462C40 48.6338 41.1539 49.9509 42.7692 49.9509C43.8462 49.9509 44.6923 49.585 45.3077 48.707C45.3846 48.5606 45.5385 48.4875 45.6923 48.5606C45.7692 48.6338 45.8462 48.707 45.8462 48.7801C45.8462 48.8533 45.8462 48.9265 45.7692 48.9997C45.1539 50.0241 43.9231 50.5362 42.6923 50.5362C40.6154 50.5362 39.1539 48.7802 39.1539 46.8777C39.1539 44.9753 40.6154 43.2192 42.6923 43.2192C44.7692 43.2923 46.3077 45.0484 46.3077 46.8777ZM45.6154 46.6582C45.4616 45.1948 44.3077 43.8777 42.6923 43.8777C41.0769 43.8777 39.9231 45.1948 39.7693 46.6582H45.6154ZM53.7692 43.7314C53.7692 43.9509 53.6923 44.0241 53.4616 44.0241C51.6923 44.2436 50.8462 45.6338 50.8462 47.3167V50.0972C50.8462 50.2436 50.7692 50.3899 50.6154 50.3899C50.3846 50.3899 50.2308 50.3167 50.2308 50.0972V43.7314C50.2308 43.585 50.3077 43.4387 50.4616 43.4387C50.6923 43.4387 50.8462 43.5119 50.8462 43.7314V45.0484C51.3846 44.2436 52.3846 43.4387 53.3846 43.4387C53.6154 43.4387 53.7692 43.5119 53.7692 43.7314ZM63.8462 46.8777C63.8462 47.0241 63.6923 47.1704 63.5385 47.1704H57.3846C57.5385 48.6338 58.6923 49.9509 60.3077 49.9509C61.3846 49.9509 62.2308 49.585 62.8462 48.707C62.9231 48.5606 63.0769 48.4875 63.2308 48.5606C63.3077 48.6338 63.3846 48.707 63.3846 48.7801C63.3846 48.8533 63.3846 48.9265 63.3077 48.9997C62.6923 50.0241 61.4616 50.5362 60.2308 50.5362C58.1539 50.5362 56.6923 48.7802 56.6923 46.8777C56.6923 44.9753 58.1539 43.2192 60.2308 43.2192C62.3846 43.2923 63.8462 45.0484 63.8462 46.8777ZM63.1539 46.6582C63 45.1948 61.8462 43.8777 60.2308 43.8777C58.6154 43.8777 57.4616 45.1948 57.3077 46.6582H63.1539ZM73.6923 43.8045V50.1704C73.6923 50.3167 73.5385 50.4631 73.3846 50.4631C73.2308 50.4631 73.0769 50.3167 73.0769 50.1704V48.9265C72.6154 49.8777 71.6923 50.6094 70.5385 50.6094C68.6923 50.6094 67.6923 49.146 67.6923 47.5363V43.8045C67.6923 43.6582 67.8462 43.5119 68 43.5119C68.1539 43.5119 68.3077 43.6582 68.3077 43.8045V47.5363C68.3077 48.7802 69.0769 50.024 70.5385 50.024C72.6154 50.024 73.0769 48.1948 73.0769 46.146V43.8045C73.0769 43.6582 73.2308 43.4387 73.4616 43.5119C73.6154 43.5119 73.6923 43.6582 73.6923 43.8045ZM89.2308 46.3655V50.0972C89.2308 50.2436 89.0769 50.3899 88.9231 50.3899C88.7692 50.3899 88.6154 50.2436 88.6154 50.0972V46.3655C88.6154 45.1216 87.8462 43.8777 86.3846 43.8777C84.5385 43.8777 83.8462 45.7802 83.8462 47.2436V50.0972C83.8462 50.2436 83.6923 50.3899 83.5385 50.3899C83.3846 50.3899 83.2308 50.2436 83.2308 50.0972V46.3655C83.2308 45.1216 82.4616 43.8777 81 43.8777C79.1539 43.8777 78.3846 45.268 78.4616 47.0972C78.4616 47.1704 78.4616 47.2436 78.4616 47.2436V50.024C78.4616 50.1704 78.3846 50.3167 78.2308 50.3167C78 50.3167 77.8462 50.2436 77.8462 50.024V43.6582C77.8462 43.5119 77.9231 43.3655 78.0769 43.3655C78.3077 43.3655 78.4616 43.4387 78.4616 43.6582V44.7558C79 43.8777 79.9231 43.2923 81 43.2923C82.2308 43.2923 83.2308 44.0241 83.6154 45.1216C84.1539 44.0241 85.0769 43.2923 86.3846 43.2923C88.1539 43.2923 89.2308 44.8289 89.2308 46.3655Z" fill="white"/>
<g opacity="0.6">
<g opacity="0.6">
<path opacity="0.6" d="M50 16.1709L39.7692 20.5611L50 26.3416L60.2308 20.5611L50 16.1709Z" fill="white"/>
</g>
</g>
<g opacity="0.45">
<g opacity="0.45">
<path opacity="0.45" d="M39.7692 20.5609L50 26.3414V4.39014L39.7692 20.5609Z" fill="white"/>
</g>
</g>
<g opacity="0.8">
<g opacity="0.8">
<path opacity="0.8" d="M50 4.39014V26.3414L60.2308 20.5609L50 4.39014Z" fill="white"/>
</g>
</g>
<g opacity="0.45">
<g opacity="0.45">
<path opacity="0.45" d="M39.7692 22.3901L50 36.1462V28.1706L39.7692 22.3901Z" fill="white"/>
</g>
</g>
<g opacity="0.8">
<g opacity="0.8">
<path opacity="0.8" d="M50 28.1707V36.1463L60.2308 22.4634L50 28.1707Z" fill="white"/>
</g>
</g>
</svg>
