<svg width="100" height="60" viewBox="0 0 100 60" fill="none" xmlns="http://www.w3.org/2000/svg">
<path d="M24.1481 30.5831C22.9173 35.2661 17.9943 38.0465 13.0712 36.8758C8.14812 35.7051 5.22504 31.0222 6.45581 26.3392C7.68658 21.6563 12.6097 18.8758 17.5327 20.0465C22.3789 21.2173 25.3789 25.9002 24.1481 30.5831Z" fill="#F7931A"/>
<path d="M19.302 27.216C19.4558 26.0453 18.5327 25.4599 17.302 25.0209L17.6866 23.4843L16.6866 23.2648L16.302 24.8014C16.0712 24.7282 15.7635 24.655 15.5327 24.655L15.9173 23.1185L14.9174 22.8989L14.5327 24.4355C14.302 24.3623 14.0712 24.3624 13.9174 24.2892L12.5327 23.9965L12.302 25.0209C12.302 25.0209 13.0712 25.1672 12.9943 25.1672C13.3789 25.2404 13.4558 25.5331 13.4558 25.7526L12.9943 27.5087H13.0712H12.9943L12.302 29.9965C12.2251 30.1428 12.1481 30.2892 11.8404 30.216L11.1481 30.0697L10.6866 31.1672L11.9943 31.4599C12.2251 31.5331 12.4558 31.6063 12.6866 31.6063L12.302 33.216L13.302 33.4355L13.6866 31.8989C13.9943 31.9721 14.225 32.0453 14.4558 32.1184L14.0712 33.655L15.0712 33.8745L15.4558 32.2648C17.1481 32.5575 18.4558 32.4843 18.9943 30.9477C19.4558 29.777 18.9943 29.1185 18.0712 28.6063C18.6866 28.4599 19.2251 28.0941 19.302 27.216ZM17.0712 30.2892C16.7635 31.4599 14.6866 30.8014 13.9943 30.655L14.5327 28.5331C15.225 28.7526 17.3789 29.0453 17.0712 30.2892ZM17.3789 27.216C17.0712 28.3136 15.3789 27.7282 14.7635 27.5819L15.225 25.6794C15.8404 25.8258 17.6097 26.1185 17.3789 27.216Z" fill="white"/>
<path d="M32.9174 25.0207C33.6866 25.0207 34.302 25.1671 34.8404 25.3866C35.3789 25.6061 35.8404 25.972 36.1481 26.411C36.5327 26.85 36.7635 27.3622 36.9174 27.8744C37.0712 28.4598 37.1481 29.0451 37.1481 29.7037C37.1481 30.7281 36.9174 31.6793 36.5327 32.5573C36.1481 33.4354 35.6097 34.2403 34.9174 34.8988C34.225 35.5573 33.4558 36.0695 32.5327 36.5085C31.6097 36.8744 30.6097 37.0939 29.5327 37.0939C29.3789 37.0939 29.1481 37.0939 28.8404 37.0939C28.5327 37.0939 28.0712 37.0207 27.6866 37.0207C27.2251 36.9476 26.7635 36.8744 26.302 36.7281C25.8404 36.5817 25.302 36.4354 24.9174 36.2159L28.9174 20.2646L32.5327 19.7524L31.0712 25.3866C31.3789 25.2403 31.6866 25.1671 31.9943 25.0939C32.2251 25.0939 32.5327 25.0207 32.9174 25.0207ZM29.9174 34.4598C30.4558 34.4598 30.9943 34.3134 31.4558 34.0939C31.9174 33.8744 32.3789 33.5085 32.6866 33.0695C32.9943 32.6305 33.302 32.1915 33.5328 31.6793C33.7635 31.1671 33.8404 30.5817 33.8404 29.9963C33.8404 29.2646 33.6866 28.7524 33.4558 28.3134C33.2251 27.9476 32.7635 27.728 32.0712 27.728C31.8404 27.728 31.6097 27.8012 31.2251 27.8012C30.8404 27.8744 30.5327 28.0207 30.302 28.2403L28.7635 34.2402C28.8404 34.2402 28.9173 34.2402 28.9943 34.3134C29.0712 34.3134 29.1481 34.3134 29.2251 34.3134C29.302 34.3134 29.3789 34.3134 29.5327 34.3134C29.6097 34.4598 29.7635 34.4598 29.9174 34.4598Z" fill="white"/>
<path d="M40.9173 36.8014H37.5327L40.4558 25.2405H43.9173L40.9173 36.8014ZM42.6096 23.8502C42.1481 23.8502 41.6866 23.7039 41.3019 23.4112C40.9173 23.1185 40.6866 22.7527 40.6866 22.1673C40.6866 21.8746 40.7635 21.5819 40.9173 21.2893C41.0712 20.9966 41.225 20.7771 41.4558 20.5575C41.6866 20.338 41.9173 20.1917 42.225 20.1185C42.5327 19.9722 42.8404 19.9722 43.1481 19.9722C43.6097 19.9722 44.0712 20.1185 44.4558 20.4112C44.8404 20.7039 45.0712 21.0697 45.0712 21.6551C45.0712 21.9478 44.9943 22.2405 44.8404 22.5331C44.6866 22.8258 44.5327 23.0453 44.302 23.2649C44.0712 23.4844 43.8404 23.6307 43.5327 23.7039C43.225 23.8502 42.9173 23.8502 42.6096 23.8502Z" fill="white"/>
<path d="M46.8405 22.3867L50.4559 21.8745L49.6097 25.3135H53.4559L52.7636 28.0208H48.9174L47.9174 32.0452C47.8405 32.4111 47.7636 32.7038 47.7636 32.9965C47.7636 33.2892 47.7635 33.5087 47.8405 33.7282C47.9174 33.9477 48.0712 34.094 48.302 34.2404C48.5328 34.3867 48.9174 34.3867 49.302 34.3867C49.6866 34.3867 49.9943 34.3867 50.3789 34.3135C50.6866 34.2404 51.0712 34.1672 51.4559 34.0209L51.6866 36.5087C51.2251 36.655 50.6866 36.8013 50.1482 36.9477C49.6097 37.094 48.9943 37.094 48.2251 37.094C47.1482 37.094 46.302 36.9477 45.7636 36.655C45.1482 36.3623 44.7635 35.9233 44.5328 35.4111C44.302 34.8989 44.1482 34.3135 44.2251 33.655C44.2251 32.9965 44.3789 32.2648 44.5328 31.5331L46.8405 22.3867Z" fill="white"/>
<path d="M53.225 32.1917C53.225 31.1673 53.3789 30.2892 53.7635 29.4112C54.0712 28.5331 54.6097 27.7282 55.225 27.0697C55.8404 26.4112 56.6097 25.899 57.5327 25.5331C58.4558 25.1673 59.4558 24.9478 60.5327 24.9478C61.225 24.9478 61.8404 25.0209 62.3789 25.1673C62.9174 25.3136 63.4558 25.4599 63.8404 25.6795L62.6866 28.2404C62.3789 28.0941 62.0712 28.0209 61.7635 27.9478C61.4558 27.8746 60.9943 27.8014 60.5327 27.8014C59.3789 27.8014 58.4558 28.1673 57.8404 28.899C57.1481 29.6307 56.8404 30.6551 56.8404 31.899C56.8404 32.6307 56.9943 33.216 57.3789 33.7282C57.6866 34.1673 58.3789 34.3868 59.2251 34.3868C59.6866 34.3868 60.0712 34.3136 60.5327 34.2404C60.9173 34.1673 61.302 34.0209 61.6097 33.8746L61.8404 36.5087C61.3789 36.6551 60.9174 36.8014 60.3789 36.9478C59.8404 37.0941 59.2251 37.1673 58.5327 37.1673C57.6097 37.1673 56.7635 37.0209 56.0712 36.8014C55.3789 36.5087 54.8404 36.216 54.4558 35.7038C53.9943 35.2648 53.6866 34.7526 53.5327 34.1673C53.302 33.5087 53.225 32.8502 53.225 32.1917Z" fill="white"/>
<path d="M68.3789 37.1673C67.5328 37.1673 66.8405 37.0209 66.2251 36.8014C65.6097 36.5819 65.1481 36.216 64.7635 35.777C64.3789 35.338 64.0712 34.8258 63.8405 34.2404C63.6097 33.6551 63.5328 32.9965 63.5328 32.338C63.5328 31.46 63.6866 30.5819 63.9943 29.7039C64.302 28.8258 64.7635 28.0209 65.302 27.3624C65.9174 26.6307 66.6097 26.1185 67.4558 25.6063C68.302 25.1673 69.302 24.9478 70.3789 24.9478C71.1482 24.9478 71.9174 25.0941 72.5328 25.3136C73.1481 25.5331 73.6097 25.899 74.0712 26.338C74.4558 26.777 74.7635 27.2892 74.9943 27.8746C75.2251 28.4599 75.302 29.1185 75.302 29.777C75.302 30.6551 75.1481 31.5331 74.8404 32.4112C74.5328 33.2892 74.1482 34.0941 73.5328 34.7526C72.9943 35.4843 72.2251 35.9965 71.3789 36.5087C70.5328 36.9477 69.5328 37.1673 68.3789 37.1673ZM70.1481 27.7282C69.6097 27.7282 69.2251 27.8746 68.8405 28.1673C68.4558 28.4599 68.1481 28.8258 67.8404 29.1916C67.6097 29.6307 67.3789 30.0697 67.2251 30.5819C67.0712 31.0941 66.9943 31.5331 66.9943 32.0453C66.9943 32.777 67.1482 33.3624 67.3789 33.7282C67.6097 34.1673 68.0712 34.3136 68.6866 34.3136C69.2251 34.3136 69.6097 34.1673 69.9943 33.8746C70.3789 33.5819 70.6866 33.216 70.9943 32.8502C71.2251 32.4112 71.4558 31.9721 71.6097 31.4599C71.7635 30.9478 71.8405 30.5087 71.8405 29.9965C71.8405 29.2648 71.6866 28.6795 71.4558 28.3136C71.2251 27.9478 70.7635 27.7282 70.1481 27.7282Z" fill="white"/>
<path d="M78.9942 36.8014H75.6096L78.5327 25.2405H81.9942L78.9942 36.8014ZM80.6096 23.8502C80.1481 23.8502 79.6866 23.7039 79.3019 23.4112C78.9173 23.1185 78.6865 22.7527 78.6865 22.1673C78.6865 21.8746 78.7635 21.5819 78.9173 21.2893C79.0712 20.9966 79.225 20.7771 79.4558 20.5575C79.6865 20.338 79.9173 20.1917 80.225 20.1185C80.5327 19.9722 80.8404 19.9722 81.1481 19.9722C81.6096 19.9722 82.0712 20.1185 82.4558 20.4112C82.8404 20.7039 83.0712 21.0697 83.0712 21.6551C83.0712 21.9478 82.9942 22.2405 82.8404 22.5331C82.6865 22.8258 82.5327 23.0453 82.3019 23.2649C82.0712 23.4844 81.8404 23.6307 81.5327 23.7039C81.225 23.8502 80.9173 23.8502 80.6096 23.8502Z" fill="white"/>
<path d="M84.3789 25.8259C84.6097 25.7527 84.9174 25.6795 85.2251 25.6064C85.5327 25.5332 85.9174 25.46 86.302 25.3137C86.6866 25.2405 87.1481 25.1673 87.6097 25.0941C88.0712 25.021 88.6097 25.021 89.2251 25.021C90.9943 25.021 92.302 25.5332 92.9943 26.4844C93.6866 27.5088 93.7635 28.8259 93.3789 30.582L91.8404 36.8015H88.3789L89.9174 30.7283C89.9943 30.3625 90.0712 29.9966 90.1481 29.6307C90.225 29.2649 90.225 28.9722 90.1481 28.6795C90.0712 28.3868 89.9174 28.1673 89.6866 28.021C89.4558 27.8746 89.1481 27.8015 88.6866 27.8015C88.225 27.8015 87.7635 27.8747 87.302 27.9478L85.0712 36.8746H81.6097L84.3789 25.8259Z" fill="white"/>
</svg>
