<svg width="52" height="52" viewBox="0 0 52 52" fill="none" xmlns="http://www.w3.org/2000/svg">
<path d="M51.2125 32.3547C47.7056 46.3789 33.6779 54.7057 19.6502 51.1997C5.62255 47.6936 -2.70641 33.6695 0.800517 19.6453C4.30744 5.62114 18.3351 -2.70573 32.3628 0.800316C46.1713 4.30636 54.7195 18.3305 51.2125 32.3547Z" fill="#F7931A"/>
<path d="M37.4041 22.2703C37.8424 18.7643 35.2122 17.0113 31.7053 15.6965L32.8012 11.0948L29.9518 10.4374L28.8559 15.0391C28.1983 14.82 27.3216 14.6009 26.6641 14.6009L27.76 9.99918L24.9106 9.34176L23.8147 13.9435C23.1572 13.7243 22.4996 13.7244 22.0613 13.5052L18.1159 12.6287L17.4584 15.6965C17.4584 15.6965 19.6502 16.1347 19.4311 16.1347C20.527 16.3539 20.7462 17.2304 20.7462 17.8878L19.4311 23.1468H19.6503H19.4311L17.4584 30.5972C17.2392 31.0354 17.02 31.4736 16.1433 31.2545L14.1707 30.8163L12.8556 34.1032L16.5817 34.9797C17.2393 35.1988 17.8968 35.418 18.5543 35.418L17.4584 40.2388L20.3078 40.8962L21.4037 36.2945C22.2804 36.5136 22.938 36.7327 23.5955 36.9518L22.4996 41.5535L25.349 42.2109L26.4449 37.3901C31.267 38.2666 34.993 38.0475 36.5273 33.4458C37.8424 29.9397 36.5273 27.9676 33.8971 26.4337C35.6506 25.9955 37.1849 24.8999 37.4041 22.2703ZM31.0477 31.4737C30.171 34.9797 24.253 33.0075 22.2804 32.5693L23.8147 26.2146C25.7874 26.872 31.9244 27.7485 31.0477 31.4737ZM31.9245 22.2703C31.0478 25.5572 26.2257 23.8042 24.4722 23.366L25.7873 17.6686C27.5408 18.1069 32.582 18.9834 31.9245 22.2703Z" fill="white"/>
</svg>
