<svg width="52" height="52" viewBox="0 0 52 52" fill="none" xmlns="http://www.w3.org/2000/svg">
<path d="M51.2125 32.3547C47.7056 46.3789 33.6779 54.7057 19.6502 51.1997C5.62255 47.6936 -2.70641 33.6695 0.800517 19.6453C4.30744 5.62114 18.3351 -2.70573 32.3628 0.800316C46.1713 4.30636 54.7195 18.3305 51.2125 32.3547Z" fill="#5DA4E6"/>
<path d="M29.3419 16H20.2714L19.5218 20.1481H27.7677C31.8157 20.1481 33.0151 21.6296 32.9402 24C32.9402 25.2593 32.4154 27.3333 32.1156 28C31.5159 29.7778 30.2415 31.8519 25.4439 31.8519H17.4978L16.7481 36H25.8187C29.0421 36 30.3914 35.6296 31.8157 34.963C35.0391 33.4815 36.9132 30.3704 37.6628 26.2963C38.7873 20.2963 37.363 16 29.3419 16Z" fill="white"/>
<path d="M16.2984 23.926C13.8996 23.926 13.5997 25.4816 13.3748 26.3704C13.075 27.5556 13 28.0742 13 28.0742H22.2954C24.6942 28.0742 24.9941 26.5186 25.219 25.6297C25.5188 24.4445 25.5938 23.926 25.5938 23.926H16.2984Z" fill="white"/>
</svg>
