<svg width="24" height="24" viewBox="0 0 24 24" fill="none" xmlns="http://www.w3.org/2000/svg"><path d="M20.875 22.425H3.125A2.378 2.378 0 01.75 20.05v-9.628c0-.695.302-1.352.83-1.803l6.546-5.61C8.436 2.725 9.838 1.5 12 1.5s3.565 1.225 3.874 1.509l6.546 5.61c.528.451.83 1.11.83 1.803v9.628a2.378 2.378 0 01-2.375 2.375zM12 3.067c-1.03 0-2.059.36-2.899 1.08l-6.546 5.61a.876.876 0 00-.305.665v9.628c0 .482.392.875.874.875h17.751a.876.876 0 00.875-.875v-9.628a.874.874 0 00-.305-.665l-6.546-5.61A4.444 4.444 0 0012 3.067z" fill="#5CDEDA"/><path d="M12 16.263c-.72 0-2.736-.094-4.735-1.488L4.07 12.54a.754.754 0 01-.184-1.045.753.753 0 011.045-.184l3.195 2.236a6.777 6.777 0 007.75 0l3.195-2.236a.75.75 0 01.86 1.229l-3.195 2.236A8.356 8.356 0 0112 16.264z" fill="#5CDEDA"/></svg>