<svg width="24" height="24" viewBox="0 0 24 24" fill="none" xmlns="http://www.w3.org/2000/svg"><path d="M12 7a3 3 0 100-6 3 3 0 000 6zm2.562 5.629l3.421 2.678a1.178 1.178 0 001.671 0 1.193 1.193 0 000-1.682L15.755 8.58A1.962 1.962 0 0014.363 8H9.637a1.952 1.952 0 00-1.392.58l-3.899 5.045a1.19 1.19 0 00-.256 1.296 1.19 1.19 0 00.64.644 1.174 1.174 0 001.287-.258l3.42-2.678-2.73 8.68a1.196 1.196 0 00.572 1.58 1.175 1.175 0 001.57-.575L12 17.322l3.151 4.992a1.174 1.174 0 001.569.573 1.196 1.196 0 00.573-1.578l-2.73-8.68z" stroke="#6D71F9" stroke-width="2" stroke-linecap="round" stroke-linejoin="round"/></svg>