<svg width="100" height="60" viewBox="0 0 100 60" fill="none" xmlns="http://www.w3.org/2000/svg"><path d="M22.846 28.902c0 .585-.077 1.17-.154 1.756-.846 3.951-4.384 6.878-8.692 7.098h-.385c-5.153 0-9.23-3.951-9.23-8.78 0-4.903 4.153-8.781 9.23-8.781 5.154-.073 9.231 3.805 9.231 8.707z" fill="#479B65"/><path d="M16.154 27.439h.615c.462 0 .846.22 1.154.512.23.293.462.659.539 1.025.076.365.153.658.153 1.024s-.153.659-.384.951c-.154.22-.385.44-.616.586-.153.146-.307.22-.538.365a12.8 12.8 0 01-1 .44c-.077 0-.154.073-.077.146.154.512.385 1.024.538 1.61v.073l-.923.22c-.077 0-.077.072-.154-.074-.153-.512-.384-1.024-.538-1.61 0-.073 0-.073-.077-.073l-.77.22c-.076 0-.076.073-.076.073l.615 1.683-1.077.512c-.077 0-.077 0-.077-.073-.076-.293-.23-.586-.307-.878l-.231-.732c0-.073-.077-.073-.077-.073l-1.385.439-.769.22c-.077 0-.077 0-.077-.074-.077-.366-.154-.805-.154-1.17 0-.074 0-.074.077-.147.231-.073.462-.146.77-.22.23-.073.307-.365.23-.512l-.923-2.56c-.23-.66-.461-1.318-.692-1.976-.077-.293-.385-.44-.692-.366a3.874 3.874 0 00-.846.293h-.077L8 26.268c0-.073 0-.073.077-.073.461-.146 1-.293 1.461-.439l.616-.22c.077 0 .077-.073 0-.073l-.539-1.536c0-.073 0-.146.077-.146.308-.074.616-.22.923-.293.077 0 .077 0 .077.073.154.512.385 1.024.539 1.537 0 .073 0 .073.077.073l.769-.22c.077 0 .077 0 .077-.073-.154-.512-.385-1.024-.539-1.537 0-.073 0-.073.077-.073l.923-.292c.077 0 .077 0 .154.073l.539 1.536c0 .073.077.073.153.073.462-.146.924-.146 1.385-.146.462 0 .923.146 1.308.44.23.145.384.365.538.658.154.292.231.585.231.878 0 .439-.154.805-.461 1.097l-.308-.146zm-2.308.366c.077 0 .154-.073.23-.146l.232-.22c.384-.293.461-.805.153-1.244a1.193 1.193 0 00-.615-.439c-.385-.073-.77 0-1.154.073-.307.073-.615.22-1 .293-.077 0-.077.073-.077.146.231.586.462 1.171.616 1.756 0 .073 0 .147.077.22.077 0 .153 0 .23-.073.462 0 .923-.147 1.308-.366zm1.692 3.146c.154-.073.231-.146.385-.293.154-.146.308-.292.385-.439.154-.439 0-.878-.308-1.097a1.54 1.54 0 00-.77-.22c-.384 0-.692.074-1.076.147-.385.073-.846.22-1.231.366-.077 0-.077.073-.077.073.23.732.539 1.463.77 2.122 0 .073.076.073.153.073.23-.073.539-.146.77-.293.307-.073.692-.22 1-.439z" fill="#FEFEFE"/><path d="M29.385 26.855c.461 0 .846.073 1.153.22.308.146.616.365.847.585.23.292.384.585.461.95.077.367.154.733.154 1.098 0 .586-.154 1.171-.385 1.757a3.886 3.886 0 01-1 1.463c-.384.439-.923.732-1.461.951a4.85 4.85 0 01-1.846.366h-.462c-.23 0-.461 0-.692-.073-.308 0-.539-.073-.846-.146-.308-.074-.616-.147-.846-.293l2.461-9.805 2.23-.293-.922 3.44c.154-.074.384-.147.538-.22.154-.073.385 0 .616 0zm-1.847 5.707c.308 0 .616-.073.924-.22.307-.146.538-.365.769-.585.23-.22.384-.512.538-.878.154-.293.154-.658.154-1.024 0-.44-.077-.732-.23-1.025-.155-.292-.462-.365-.847-.365-.154 0-.308 0-.538.073-.231.073-.385.146-.539.292l-.923 3.659h.462c.077 0 .154.073.23.073zm7.154 1.462h-2.077l1.77-7.097h2.077l-1.77 7.097zm1-7.902c-.307 0-.538-.073-.769-.22a.887.887 0 01-.385-.731c0-.22.077-.366.154-.513a1.54 1.54 0 01.308-.439c.154-.146.308-.22.462-.292.153-.073.384-.073.538-.073.308 0 .538.073.77.219a.89.89 0 01.384.732c0 .22-.077.366-.154.512a1.526 1.526 0 01-.308.439c-.154.146-.307.22-.461.293-.154 0-.308.073-.539.073zm2.923-.952l2.231-.292L40.308 27h2.384l-.461 1.61h-2.308l-.692 2.487c-.077.22-.077.366-.077.586 0 .146 0 .366.077.439.077.146.154.22.307.292.154.074.385.074.616.074.23 0 .461 0 .692-.074.23-.073.462-.073.616-.146l.153 1.537c-.307.073-.615.22-.923.22-.307.072-.692.072-1.154.072-.615 0-1.153-.073-1.538-.292-.385-.22-.615-.44-.77-.732-.153-.293-.23-.659-.23-1.098 0-.439.077-.878.23-1.317l1.385-5.487zm4.077 6.074c0-.586.077-1.171.308-1.756.23-.513.538-1.025.923-1.39.385-.44.846-.732 1.385-.952a4.853 4.853 0 011.846-.366c.461 0 .77.073 1.154.147.307.073.615.146.923.292l-.77 1.537a5.462 5.462 0 00-.615-.22c-.23-.073-.461-.073-.77-.073-.691 0-1.23.22-1.691.659-.385.439-.616 1.097-.616 1.829 0 .439.077.805.308 1.098.23.292.615.439 1.154.439.307 0 .538 0 .769-.074l.692-.22.154 1.61c-.23.074-.538.22-.846.293a4.878 4.878 0 01-1.154.147c-.615 0-1.077-.074-1.461-.22-.385-.146-.77-.366-1-.658-.231-.293-.462-.586-.539-.952-.077-.365-.154-.805-.154-1.17zm9.385 3c-.538 0-.923-.074-1.308-.22a2.778 2.778 0 01-.923-.585 3.887 3.887 0 01-.538-.951c-.154-.366-.154-.732-.154-1.171 0-.512.077-1.098.308-1.61.153-.512.461-1.024.846-1.463.384-.44.769-.805 1.307-1.025a3.506 3.506 0 011.77-.439c.461 0 .923.073 1.307.22.385.146.693.366.923.585.231.293.385.585.539.951.154.366.154.732.154 1.171 0 .512-.077 1.098-.231 1.61-.154.512-.462 1.024-.77 1.463-.384.44-.769.805-1.307 1.025-.538.22-1.23.439-1.923.439zm1.077-5.78c-.308 0-.616.072-.846.219a1.762 1.762 0 00-.616.658c-.154.293-.307.512-.384.878-.077.293-.154.586-.154.878 0 .44.077.805.23 1.025.154.22.462.366.847.366.307 0 .615-.074.846-.22a1.76 1.76 0 00.615-.659c.154-.292.308-.512.385-.878.077-.292.154-.585.154-.878 0-.439-.077-.804-.231-1.024-.23-.22-.462-.366-.846-.366zm5.769 5.56h-2.077l1.77-7.097h2.076l-1.769 7.097zm1-7.902c-.308 0-.538-.073-.77-.22a.887.887 0 01-.384-.731c0-.22.077-.366.154-.513a1.54 1.54 0 01.308-.439c.154-.146.307-.22.461-.292.154-.073.385-.073.539-.073.307 0 .538.073.769.219a.89.89 0 01.385.732c0 .22-.077.366-.154.512a1.526 1.526 0 01-.308.439c-.154.146-.308.22-.461.293-.154 0-.308.073-.539.073zm2.615 1.171c.154-.074.308-.074.539-.147.23-.073.385-.146.615-.146.231-.073.539-.073.77-.147.307 0 .615-.073 1-.073 1.076 0 1.846.293 2.307.951.385.586.462 1.464.231 2.488l-1 3.805h-2.077l.923-3.732c.077-.219.077-.439.154-.658.077-.22 0-.44 0-.585 0-.147-.154-.293-.23-.44a1.51 1.51 0 00-.616-.146c-.308 0-.539 0-.846.073l-1.385 5.488h-2.077l1.692-6.732zm12.077 6.439c-.153.146-.461.22-.846.366-.384.146-.846.146-1.307.146-.847 0-1.539-.22-1.924-.732-.461-.439-.615-1.097-.615-1.902 0-.586.077-1.171.308-1.756.23-.586.461-1.025.846-1.464.385-.439.846-.805 1.385-1.024A4.958 4.958 0 0174.385 27c.461 0 1 .073 1.461.22l-.461.731c-.231-.073-.462-.146-.616-.146-.154 0-.384-.073-.615-.073-.539 0-.923.073-1.385.292a5.86 5.86 0 00-1.077.805A3.666 3.666 0 0071 30a4.5 4.5 0 00-.23 1.463c0 .586.153 1.025.46 1.39.308.366.77.513 1.385.513.231 0 .385 0 .616-.073.23 0 .384-.074.538-.147.154-.073.308-.073.462-.146.154-.073.23-.073.308-.146l.076.878zm6.231.438c-.077-.073-.077-.219-.154-.365-.077-.147-.077-.293-.077-.44a3.25 3.25 0 01-1.076.66c-.385.146-.77.219-1.154.219a2.87 2.87 0 01-.847-.147c-.23-.073-.538-.219-.692-.439-.23-.219-.384-.439-.538-.804-.154-.293-.231-.732-.231-1.171 0-.732.154-1.39.385-1.976a4.216 4.216 0 011-1.463A4.125 4.125 0 0179 27.293c.615-.22 1.23-.366 2-.366.615 0 1.154.073 1.692.292l-1.077 4.171c-.076.22-.076.44-.153.659-.077.22-.077.366-.077.585 0 .22 0 .44.077.659.076.22.153.439.23.731l-.846.147zm.846-6.292c-.153 0-.307-.073-.461-.073h-.462c-.615 0-1.077.073-1.538.293a3.372 3.372 0 00-1.154.878 3.65 3.65 0 00-.692 1.17 4.07 4.07 0 00-.231 1.39c0 .366 0 .659.077.952.077.22.154.439.308.585.153.146.307.293.461.293.154 0 .385.073.538.073.385 0 .77-.073 1.077-.293.308-.22.693-.439 1-.731 0-.22 0-.513.077-.805l.231-.878.77-2.854zm1.538 5.049c.385.146.693.292.924.366.23.073.538.073.923.073.23 0 .462 0 .692-.073.231-.074.385-.147.539-.22a.905.905 0 00.384-.366c.077-.146.154-.366.154-.585a.809.809 0 00-.23-.585c-.154-.147-.308-.293-.54-.366-.23-.073-.384-.22-.691-.366-.231-.073-.462-.22-.693-.366a1.755 1.755 0 01-.538-.512 1.421 1.421 0 01-.23-.805c0-.366.076-.732.23-1.024a1.76 1.76 0 01.615-.659 2.93 2.93 0 01.846-.366c.308-.073.693-.146 1-.146.308 0 .616 0 .924.073.307.073.615.146.846.22l-.385.804-.692-.22c-.231-.072-.539-.072-.77-.072-.23 0-.461 0-.692.073-.23.073-.384.146-.538.22a.906.906 0 00-.385.365 1.325 1.325 0 00-.154.585c0 .22.077.44.231.586.154.146.308.293.538.439.231.146.385.22.693.366.23.073.461.22.692.366.23.146.385.292.539.512.153.22.23.439.23.805 0 .366-.077.731-.23 1.024-.154.293-.385.512-.616.732-.23.146-.538.292-.846.366-.308.073-.692.146-1 .146a4.76 4.76 0 01-1.077-.146 5.517 5.517 0 01-1-.366l.308-.878zm6.693 1.097H89l2.538-10.317.924-.146-.924 3.659c.616-.22 1.154-.366 1.693-.366.308 0 .615.073.923.146.308.073.538.22.692.44.23.145.385.438.462.658.153.292.153.585.153.95 0 .22 0 .44-.076.733 0 .22-.077.512-.154.731l-.846 3.44h-.924l.77-3.074.23-.878c.078-.293.078-.585.078-.878 0-.293-.078-.512-.154-.659a.761.761 0 00-.385-.439c-.154-.073-.308-.22-.538-.22-.231 0-.385-.072-.616-.072-.308 0-.538 0-.846.073a9.746 9.746 0 00-.77.22l-1.307 6z" fill="#fff"/></svg>