<svg width="24" height="24" viewBox="0 0 24 24" fill="none" xmlns="http://www.w3.org/2000/svg"><path d="M3.002 8.473a6.245 6.245 0 00.366 2.266S3.844 12 4.5 12.656L12.008 21l7.496-8.344a5.713 5.713 0 001.134-1.91c.257-.717.38-1.487.36-2.26a6.203 6.203 0 00-.474-2.233 5.61 5.61 0 00-1.228-1.835 4.882 4.882 0 00-1.778-1.128 4.473 4.473 0 00-2.03-.235 4.617 4.617 0 00-1.945.698 5.234 5.234 0 00-1.535 1.515 5.242 5.242 0 00-1.532-1.528 4.62 4.62 0 00-1.949-.708 4.473 4.473 0 00-2.037.23 4.88 4.88 0 00-1.784 1.13 5.612 5.612 0 00-1.232 1.84 6.204 6.204 0 00-.472 2.241z" stroke="#B8B9D0" stroke-width="2" stroke-linecap="round" stroke-linejoin="round"/></svg>