<svg width="100" height="60" viewBox="0 0 100 60" fill="none" xmlns="http://www.w3.org/2000/svg"><path d="M88.937 33.294c.039-.012.064-.049.09-.085 1.319-2.143 2.586-4.31 3.751-6.527.141-.257.27-.526.397-.796.039-.061.065-.11.154-.11h2.42c.013 0 .026.012.026.012.012.05-.026.074-.039.11-1.805 3.27-3.7 6.478-5.851 9.551-.116.172-.244.343-.359.527a.229.229 0 01-.192.098h-2.023c-.128 0-.128 0-.154-.123-.23-1.224-.448-2.449-.64-3.673-.14-.906-.281-1.8-.41-2.706a111.9 111.9 0 01-.255-2.057 59.725 59.725 0 01-.167-1.494c-.026-.245-.038-.208.205-.208h2.305c.064 0 .077.024.09.085 0 .098.012.196.012.306.038.98.128 1.972.218 2.951.064.796.14 1.592.23 2.388.051.551.115 1.151.192 1.751zm-5.365-5.179a4.259 4.259 0 00-1.203-.551 3.7 3.7 0 00-1.793-.025 1.5 1.5 0 00-.589.294c-.448.33-.486 1.102-.064 1.519.18.17.397.318.64.416a8.81 8.81 0 011.767.98c.346.244.628.563.833.93.153.27.256.576.294.882a3.518 3.518 0 01-.243 1.738c-.192.441-.5.82-.896 1.102a4.367 4.367 0 01-1.767.723 8.015 8.015 0 01-2.356.098 6.881 6.881 0 01-2.164-.576c-.167-.073-.32-.183-.487-.269-.064-.037-.077-.061-.038-.135l.922-1.58c.038-.073.09-.085.166-.036.192.122.41.233.615.318a4.8 4.8 0 001.37.368c.614.06 1.216.049 1.78-.209.537-.244.73-.759.589-1.273a.744.744 0 00-.193-.318 2.622 2.622 0 00-.96-.625 8.62 8.62 0 01-1.395-.796c-.551-.38-.986-.87-1.153-1.518-.243-.943-.115-1.85.512-2.645a3.152 3.152 0 011.524-1.029c1.754-.575 3.457-.428 5.096.404.218.11.218.123.102.319-.268.453-.537.918-.806 1.371a.358.358 0 00-.103.123z" fill="#D82A3C"/><path d="M32.266 24.564c-.32 1.273-.627 2.522-.947 3.795.154-.049.269-.098.384-.134a3.16 3.16 0 011.933.024c.807.257 1.422.882 1.64 1.666.716 2.253-.436 4.787-2.626 5.84a5.098 5.098 0 01-2.125.502 9.037 9.037 0 01-2.74-.33c-.18-.05-.346-.123-.512-.184-.077-.037-.103-.073-.077-.16.18-.697.346-1.383.525-2.08.576-2.303 1.152-4.593 1.716-6.895.128-.526.268-1.053.397-1.58a.164.164 0 01.166-.146l1.972-.294c.09-.012.192-.024.294-.024zm-2.445 9.808a3.18 3.18 0 001.075.049 2.508 2.508 0 001.575-.943 3.27 3.27 0 00.704-1.739c.052-.429 0-.857-.166-1.261a.747.747 0 00-.512-.453 1.9 1.9 0 00-1.524.208.418.418 0 00-.192.27c-.256 1.077-.538 2.142-.794 3.22-.051.196-.115.428-.166.649zm24.443-1.433a5.194 5.194 0 011.216-3.282 4.339 4.339 0 012.343-1.494 4.267 4.267 0 012.151.025c.948.257 1.563.845 1.883 1.726a4.2 4.2 0 01.192 1.984 5.768 5.768 0 01-.615 1.996 4.6 4.6 0 01-1.639 1.763 3.725 3.725 0 01-1.523.551 4.629 4.629 0 01-1.742-.037c-1.152-.257-1.844-.967-2.138-2.044a4.632 4.632 0 01-.128-1.188zm5.531-1.457c0-.135-.013-.245-.013-.368a2.258 2.258 0 00-.192-.71.72.72 0 00-.525-.416 1.509 1.509 0 00-1.344.257c-.307.232-.55.514-.717.845a3.92 3.92 0 00-.435 2.045c.012.294.09.587.243.857a.76.76 0 00.512.38c.435.11.896.024 1.255-.221.333-.233.589-.539.768-.894a4.15 4.15 0 00.448-1.775zm11.844 4.579l.218-.869c.294-1.175.589-2.363.883-3.551.09-.306.115-.637.09-.955a.76.76 0 00-.73-.723c-.371-.049-.743.013-1.114.05-.09.012-.103.073-.115.134-.103.429-.218.87-.32 1.298l-1.114 4.482c-.039.134-.039.134-.18.134h-2.035c-.039 0-.09 0-.128-.012.09-.343.179-.698.268-1.04.525-2.058 1.05-4.127 1.575-6.184.013-.025.013-.05.013-.062.013-.11.077-.147.18-.171a9.738 9.738 0 013.188-.49c.435 0 .87.061 1.293.184.858.27 1.344.832 1.523 1.665a3.59 3.59 0 01-.064 1.69c-.294 1.224-.614 2.437-.921 3.661-.052.22-.116.453-.167.674-.013.06-.038.11-.128.11-.717-.025-1.447-.025-2.215-.025zM45.135 25.984l-.295 1.139c-.103.38-.192.747-.295 1.15h2.574c-.051.209-.102.393-.14.576-.09.367-.193.747-.282 1.114-.026.098-.065.123-.167.123h-2.266c-.167 0-.167 0-.205.16-.218.844-.423 1.689-.64 2.546-.051.233-.103.465-.115.698-.052.478.204.808.704.894.41.061.832.049 1.229-.05.205-.036.397-.085.602-.158l.038.27c.051.44.09.869.14 1.31a.121.121 0 01-.076.146h-.013a6.668 6.668 0 01-2.817.343 3.055 3.055 0 01-.82-.184c-.665-.257-1.049-.734-1.215-1.395a3.572 3.572 0 01-.013-1.225c.077-.71.281-1.396.46-2.094l1.191-4.812c.052-.184.052-.196.244-.22l2.112-.307c0-.024.026-.024.065-.024zm7.656 8.118l.116 1.066c.012.195.038.391.064.587.012.074 0 .11-.077.135a6.128 6.128 0 01-3.252.27c-.974-.233-1.73-.735-2.126-1.641a3.63 3.63 0 01-.294-1.164 5.165 5.165 0 01.64-2.975c.704-1.237 1.792-1.972 3.226-2.241a5.395 5.395 0 012.984.27c.09.036.217.048.23.122.013.073-.051.159-.09.232-.204.453-.41.894-.627 1.347-.051.098-.025.135-.192.074a3.644 3.644 0 00-1.447-.257c-1.037.036-1.83.587-2.164 1.518a3.385 3.385 0 00-.115 1.984c.038.134.09.257.154.38.166.306.486.514.858.563a3.82 3.82 0 001.664-.123c.154-.049.295-.098.448-.147zM36.108 36.05c.064-.245.115-.478.179-.71l1.728-6.907c.013-.037.013-.061.026-.098 0-.061.038-.073.102-.073h2.217a.197.197 0 01-.013.147c-.628 2.498-1.268 5.008-1.895 7.506-.026.098-.051.135-.154.135H36.21a.148.148 0 01-.102 0zm26.594 0c.102-.393.192-.772.294-1.164.538-2.155 1.076-4.323 1.613-6.478.039-.134.039-.134.18-.134h2.023a.33.33 0 01.154.012l-.231.918c-.563 2.229-1.127 4.457-1.69 6.674 0 .024-.013.049-.013.06-.013.087-.051.123-.154.123h-2.1c-.012 0-.038 0-.076-.012zM41.127 25.825c-.026.734-.59 1.359-1.345 1.481-.345.061-.691 0-.986-.171-.41-.22-.563-.563-.525-.992.065-.784.718-1.396 1.537-1.433a1.42 1.42 0 01.96.294.96.96 0 01.359.82zm23.739.355c0-.686.576-1.323 1.331-1.445a1.6 1.6 0 01.897.11c.576.233.678.735.627 1.102-.077.76-.73 1.335-1.511 1.384a1.404 1.404 0 01-1.063-.38c-.23-.208-.294-.465-.281-.771z" fill="#fff"/><path d="M16.21 39.294a.695.695 0 00-.563-.233 2.911 2.911 0 01-.653-.012.876.876 0 01-.256-.073.561.561 0 00-.397-.037c-.052 0-.09.024-.116.073-.038.037-.076.025-.115.013-.038-.013-.038-.062-.025-.098a.628.628 0 01.268-.404 8.96 8.96 0 01.564-.356.848.848 0 01.883.037c.205.16.448.27.704.343l.064.012c.052-.036.013-.073.013-.11a1.888 1.888 0 00-.205-.428.34.34 0 00-.358-.172c-.205.037-.333-.073-.423-.233-.05-.085-.05-.208-.128-.244-.077-.037-.192.012-.294.024a.448.448 0 01-.282-.024c.013-.062.077-.086.128-.11a2.3 2.3 0 011.063-.294c.166 0 .333.048.46.146.219.16.436.331.641.515a.57.57 0 00.14.098l.026-.025a4.016 4.016 0 00-.025-1.175c-.026-.16-.026-.147-.192-.16-.397-.012-.807-.036-1.204-.048a9.915 9.915 0 01-1.19-.16 6.646 6.646 0 00-.692-.073c.013.171.115.306.154.465-.32.098-.628.098-.91-.098a1.98 1.98 0 01-.358-.367 17.963 17.963 0 00-.384-.502 1.121 1.121 0 00-.538-.38c-.14-.049-.281-.11-.435-.171.038.22.218.38.166.612a.415.415 0 01-.243-.086 2.155 2.155 0 01-.5-.453c-.191-.22-.345-.465-.511-.71a9.106 9.106 0 00-.513-.71c-.038-.037-.064-.098-.14-.123.025.135.038.258.064.38-.064.037-.09 0-.128-.012a1.072 1.072 0 01-.5-.576 3.675 3.675 0 01-.205-.82c-.025-.147-.05-.294-.077-.429a1.778 1.778 0 00-.243-.624 1.187 1.187 0 01-.18-.625c0-.343.04-.673.103-1.004.013-.122.026-.245.026-.367a.466.466 0 00-.077-.257.303.303 0 01-.038-.294c.115-.355.269-.698.46-1.029a.885.885 0 01.41-.33c.41-.172.858-.233 1.294-.184.076 0 .115.037.09.11-.065.27 0 .539 0 .808a.775.775 0 01-.103.441 1.228 1.228 0 00-.141.465c-.013.062.013.11.064.135.09.061.192.11.294.16.09.036.18.085.257.146.14.074.217.22.217.368a.98.98 0 00.167.49c.064.11.166.195.294.22.27.061.525.184.73.367.102.098.23.16.358.196a.96.96 0 01.41.257c.205.233.487.27.768.233.193-.025.385-.086.538-.196.154-.086.295-.184.436-.282.038-.036.102-.049.14-.012l.026.025c.102.122.218.244.333.367.384.428.82.796 1.306 1.102.32.196.691.33 1.063.38.717.085 1.395-.27 1.703-.894.128-.294.217-.613.256-.93.038-.307.102-.6.179-.895.064-.27.192-.514.371-.722.064-.074.141-.147.218-.196.128-.098.128-.098.192.049.09.196.167.404.256.6.064.012.077-.025.103-.05a6.47 6.47 0 00.384-.477.258.258 0 00.05-.27 6.925 6.925 0 01-.178-.893 1.445 1.445 0 01.14-.833c.103.086.193.196.27.306.025.025.038.062.063.086.064.061.116.061.167-.012.064-.098.128-.184.205-.282a.286.286 0 00.038-.343c-.102-.208-.18-.428-.269-.636a1.09 1.09 0 01-.064-.698.609.609 0 01.09-.208c.128.085.18.22.307.318.103-.16.18-.33.218-.514a.447.447 0 00-.115-.355 1.566 1.566 0 01-.346-.992c0-.037-.026-.098.025-.123.052-.024.103.013.141.05.077.048.077.146.128.22a.604.604 0 00.18-.637 1.145 1.145 0 00-.154-.27c-.09-.11-.18-.232-.256-.342a1.173 1.173 0 01-.205-.87c.064 0 .09.061.14.074.065.024.142.012.206-.037s.013-.11-.013-.147c-.09-.171-.18-.33-.269-.49a2.765 2.765 0 01-.256-.514.88.88 0 01-.013-.6c.077 0 .115.061.167.098.32.282.627.576.973.845.038.024.064.049.102.073.256.233.59.368.935.392.5.05.973.184 1.408.416.077.037.167.074.282.11-.09-.232-.166-.452-.256-.66a.304.304 0 01.051-.38 4.28 4.28 0 01.32-.355c.026-.037.077-.074.128-.074.09.172.18.368.27.54.089.17.063.379.114.575a.534.534 0 00.039-.282c0-.294.077-.38.371-.453a2.51 2.51 0 01.423-.061c.115 0 .128 0 .14.122.013.184-.025.368-.09.551-.025.061-.038.123-.076.22.243-.085.448-.183.679-.134.217.061.422.184.576.343-.128.11-.269.196-.435.257-.09.037-.18.061-.27.086a1.31 1.31 0 00-.563.367.36.36 0 00.295.16c.32.048.614.22.806.477a.976.976 0 01.128.22c.026.061.026.086-.05.123a.82.82 0 01-.718 0l-.282-.147a1.57 1.57 0 00-.78-.16c-.077 0-.116.037-.116.11 0 .099-.025.197-.038.307 0 .147-.039.294.09.416.05.049.012.098-.077.098-.384.049-.743-.208-.794-.575v-.086a1.104 1.104 0 01.013-.355c.012-.062.012-.135.012-.196l-.653.073a.756.756 0 00.077.22c.244.552.5 1.103.692 1.678.217.637.345 1.31.358 1.984a8.586 8.586 0 01-.704 3.698 8.093 8.093 0 01-2.676 3.257c-.384.282-.781.539-1.204.771-.09.05-.179.11-.269.16a.487.487 0 00-.268.465c.012.184 0 .367-.052.539-.09.27-.243.514-.448.71-.051-.025-.077-.074-.115-.123a2.158 2.158 0 00-.166-.183c-.065-.074-.167-.074-.244-.012-.025.012-.038.036-.051.06a.638.638 0 00-.077.38c.039.294-.102.502-.32.686-.115-.098-.18-.245-.295-.367-.166.183-.32.355-.473.526.013.061.064.061.102.061.167.025.333.037.512.062a.674.674 0 01.474.318c.192.294.307.637.359.98a.725.725 0 01-.09.428c-.09-.024-.128-.098-.166-.159-.052-.098-.128-.171-.205-.245a.417.417 0 00-.359-.098.773.773 0 01-.627-.147c-.039-.024-.077-.049-.115-.061-.154.22-.372.416-.538.637-.18.245-.27.55-.243.845 0 .122.012.244.025.367a.677.677 0 01-.166.49 2.392 2.392 0 00-.308.453c-.064.012-.09-.025-.128-.061a1.828 1.828 0 01-.525-.907.556.556 0 01.103-.465c.038-.073.102-.134.14-.208.116-.171.154-.367.116-.563-.051-.025-.09.012-.128.024-.333.11-.666.208-.986.343a.406.406 0 00-.269.282.616.616 0 01-.435.404l-.103.024a.113.113 0 00-.09.135v.012c.026.147.052.294.077.453a1.238 1.238 0 01-.563-.747.85.85 0 01.23-.747c.205-.208.449-.38.718-.49.217-.159.422-.22.627-.281z" fill="#E9B201"/><path d="M10.653 20.572c0-.013-.013-.025-.013-.025.167-.257.384-.453.743-.453.294.012.576 0 .87-.024.205-.025.397-.074.602-.135-.05-.122-.179-.196-.32-.208-.051 0-.077-.012-.102-.05-.026-.036.013-.073.051-.097.23-.196.55-.282.858-.245.192.037.384.086.563.147a.603.603 0 00.461 0 .755.755 0 01.333-.037c-.09-.11-.115-.245-.294-.233-.026 0-.039-.012-.064-.024-.09-.049-.09-.086 0-.135a1.218 1.218 0 011.42.123c.257.232.475.27.846.183a.567.567 0 00-.448-.367 1.02 1.02 0 011.127-.061c.128.086.243.183.37.27.244.17.551.256.859.232a.59.59 0 00-.218-.282c-.09-.061-.218-.085-.307-.196.307-.098.64-.06.909.098.14.086.269.172.384.282.102.086.218.171.333.245.115-.086.051-.16.013-.245-.039-.086-.052-.16-.077-.245a.26.26 0 01.192 0c.474.147.909.404 1.255.76.115.134.205.293.256.452.128.368.218.747.282 1.139.038.147.064.306.076.465 0 .074 0 .147-.012.22-.052.295-.026.588.09.858.05.16.127.306.178.465a.583.583 0 010 .416 1.56 1.56 0 000 1.078c0 .012 0 .025.013.037.103.196.026.343-.128.477a.478.478 0 00-.154.282 2.012 2.012 0 00-.05.551.554.554 0 01-.103.392 1.017 1.017 0 01-.115-.27c-.09-.257-.167-.502-.244-.759a3.018 3.018 0 00-.46-.87 6.95 6.95 0 01-.334-.501.502.502 0 01-.05-.429.859.859 0 00.012-.44 2.994 2.994 0 00-.5-1.213 1.159 1.159 0 00-.409-.367c-.346-.184-.653-.074-.807.27a1.36 1.36 0 00-.038.783c.013.086.038.16.051.257-.128 0-.256-.024-.384-.061a5.585 5.585 0 00-.615-.147 4.312 4.312 0 00-2.51.355c-.37.184-.729.392-1.062.637-.14.11-.294.208-.448.306a.64.64 0 01-.397.098c-.192-.025-.384-.025-.576-.05-.59-.06-1.152.038-1.716.148-.538.11-1.063.233-1.613.306a3.177 3.177 0 01-1.178-.012c-.32-.086-.32-.086-.218-.392.064-.184.128-.38.192-.563.051-.16.09-.184-.115-.233-.013 0-.038-.012-.051-.012-.077-.025-.128-.11-.09-.184 0-.012.013-.012.013-.024a.898.898 0 01.627-.588c.077-.025.154-.05.244-.061.332-.098.614-.307.793-.588.064-.098.052-.11-.064-.11-.076-.013-.166-.013-.243-.013-.077 0-.102-.049-.077-.11a.823.823 0 01.448-.49c.205-.085.436-.134.666-.159h.051a.84.84 0 00.602-.208c.064-.049.128-.098.205-.135.026-.024.064-.036.051-.073-.012-.037-.025-.074-.064-.074-.102.013-.192-.06-.294-.049-.051-.073-.064-.073-.077-.085z" fill="#E9B201"/><path d="M16.146 31.225c.14.024.269.073.384.147.205.122.397.244.59.38.165.11.345.183.55.232.115.024.243.024.371.012.346-.037.589-.33.55-.649a.344.344 0 00-.025-.11 1.494 1.494 0 00-.371-.661 4.984 4.984 0 00-.538-.49c-.269-.22-.55-.429-.794-.674a3.75 3.75 0 01-.781-1.053c-.051-.11-.064-.11-.18-.073-.114.037-.268.073-.409.11-.205.037-.41.11-.576.208-.051-.073-.103-.147-.141-.22a.314.314 0 00-.384-.172c-.051.013-.103.013-.167.025.013.196.103.38.27.49.204.134.447.232.69.281a.217.217 0 00.205-.073.832.832 0 01.231-.184c.051-.037.115-.024.166.012.282.282.538.576.628.968a.627.627 0 01-.333.734c-.14.074-.282.123-.448.135.025-.135.128-.233.14-.367a.817.817 0 00-.063-.392c-.27.11-.525.233-.679.477-.038.062-.064.123-.102.184-.167.319-.513.502-.884.502a.75.75 0 01-.358-.098c-.205-.098-.397-.232-.64-.294-.052-.012-.065-.06-.077-.098-.013-.085-.039-.171-.052-.269a.65.65 0 00-.077-.22c-.038-.123-.179-.184-.294-.147a.946.946 0 00-.256.11c-.051.024-.102.073-.166.086-.18-.294-.039-.527.179-.747-.192-.05-.346-.074-.5-.123a1.322 1.322 0 01-.384-.159c-.064-.024-.102-.098-.077-.16.116-.416.474-.722.922-.795.308-.049.628-.037.935.012.064.012.14.025.218.012-.205-.22-.5-.355-.807-.367a3.78 3.78 0 00-.653.05 1.795 1.795 0 01-.512.011.567.567 0 01.166-.245c.167-.159.346-.293.538-.404.103-.06.205-.134.295-.22a.549.549 0 00-.256-.122 2.623 2.623 0 00-.449-.074 10.932 10.932 0 00-1.677.086c-.474.049-.947.134-1.421.159a5.337 5.337 0 01-2.062-.306 2.729 2.729 0 01-.742-.416 1.034 1.034 0 01-.308-.43.57.57 0 01.32.013c.23.05.461.123.692.22a4.056 4.056 0 002.228.16c.602-.11 1.178-.294 1.767-.441a4.716 4.716 0 011.55-.184c.178.012.37 0 .55-.037.166-.036.32-.098.46-.208a1.01 1.01 0 00-.486-.171 4.01 4.01 0 00-1.268.049c-.614.098-1.203.27-1.805.404a4.872 4.872 0 01-2.446-.086 1.528 1.528 0 01-.55-.27.52.52 0 01-.218-.44c0-.098.013-.11.115-.086.154.037.295.098.423.172.307.159.64.27.973.343.5.098 1.012.11 1.511.036.589-.073 1.152-.22 1.729-.342a7.092 7.092 0 011.024-.147c.397-.025.806.012 1.19.11.282.061.59.049.859-.05.422-.146.345-.134.576.184.128.196.23.404.294.625.026.086.064.171.103.245.038.098.153.147.256.135.025 0 .064 0 .09-.013.345-.098.69-.159 1.037-.208a.707.707 0 00.588-.49c.039-.11.077-.22.103-.318.025-.098.064-.196.115-.282a.882.882 0 01.59-.502c.153-.049.306-.073.46-.11.307-.073.59-.208.832-.404.09-.061.128-.171.09-.257-.051-.16-.103-.319-.14-.49-.027-.098-.052-.184-.078-.282a.366.366 0 01.064-.342c.077.024.116.085.167.146.205.282.32.6.358.943.013.086.013.184.026.27a.265.265 0 01-.166.318 4.823 4.823 0 01-.577.257c-.217.074-.422.16-.627.27a.584.584 0 00-.346.49.3.3 0 00.282.293.834.834 0 01.512.147c.09.074.205.135.307.184.128.061.282.098.423.098.064 0 .128-.012.18.049-.129.073-.27.135-.41.196-.167.085-.18.037-.142.245a.698.698 0 01.013.232c-.013.098-.05.123-.153.086a.72.72 0 00-.32-.073c-.064-.013-.141.036-.154.098v.024c-.026.11-.051.233-.077.343-.013.061-.038.073-.102.049-.103-.037-.205-.061-.308-.098-.025-.012-.076-.012-.09.024 0 0 0 .013-.012.025a1.802 1.802 0 01-.102.22.165.165 0 01-.205.11c-.026 0-.039-.012-.064-.024-.128-.073-.141-.073-.167.073a.859.859 0 01-.269.49.603.603 0 01-.179-.22c-.026-.025-.038-.061-.077-.061-.038 0-.038.049-.051.073-.026.172-.013.355.038.514.077.245.192.478.372.674.205.233.422.453.653.661.294.257.563.527.82.808.268.294.447.637.524 1.017.026.159.039.318.013.477a.737.737 0 01-.525.6 1.751 1.751 0 01-.87.037 2.97 2.97 0 01-1.23-.49 1.19 1.19 0 01-.371-.38.545.545 0 01-.077-.342zm-2.522-3.98c.192.086.41.11.614.073.333-.049.525-.257.525-.538 0-.025 0-.062-.013-.086a.325.325 0 00-.397-.061c-.153.147-.332.27-.525.367a.426.426 0 00-.204.245zm3.533-1.065a.66.66 0 00.231.11.808.808 0 00.87-.122c.09-.062.09-.074 0-.147a.494.494 0 00-.447-.086 1.83 1.83 0 00-.654.245z" fill="#E9B201"/><path d="M5.134 34.237c.18.025.372.025.551.025a.916.916 0 00.743-.392c-.128 0-.27.012-.397.049-.18.037-.359.086-.55.122a.89.89 0 01-.59-.061c-.5-.27-.858-.649-.96-1.212-.064-.355.064-.674.23-1.017.039.086.077.135.103.196.102.233.243.466.41.674.217.281.55.44.921.44.18 0 .359-.012.525-.06.55-.135.833-.515.986-1.005 0-.012 0-.012-.013-.024-.064.024-.076.085-.115.122-.371.392-.832.612-1.395.551a.892.892 0 01-.769-.539 1.48 1.48 0 01-.102-.746c0-.074.038-.098.115-.086a.95.95 0 01.32.086c.397.22.781.134 1.153-.074.384-.196.627-.575.64-.992.025-.355.038-.71.013-1.065-.039-.465 0-.93.09-1.371.102-.405.089-.405.524-.38.205.012.397.024.602.024.09 0 .102.025.09.11a5.729 5.729 0 01-.205.772 6.522 6.522 0 00-.308 1.861c-.025.662 0 1.323.013 1.972.026.404-.013.796-.09 1.188a1.54 1.54 0 01-.87 1.077c-.23.123-.487.208-.755.245-.41.061-.705-.086-.91-.49zm14.149-5.767c0 .159.064.318.077.477 0 .049.077.135 0 .16a.223.223 0 01-.244-.037.82.82 0 00-.166-.123.182.182 0 00-.23.012l-.205.16a.365.365 0 01-.474-.013 1.014 1.014 0 01-.23-.232 3.344 3.344 0 01-.372-.564.397.397 0 01.205.013c.154.024.307 0 .448-.074.141-.073.154-.11.09-.245-.051-.098-.09-.196-.141-.294-.026-.049-.013-.085.051-.098a.484.484 0 01.346.025c.026.012.038.012.064.024.218.062.23.05.269-.159.013-.134.038-.257.09-.38.268.16.576.209.857.356.052.024.116.06.167.098.153.11.14.11.038.269a.51.51 0 00-.09.306c.013.33.039.282-.294.294-.064 0-.128.012-.192.012-.038-.012-.051 0-.064.012z" fill="#E9B201"/><path d="M5.531 31.127a.55.55 0 01-.46-.233.093.093 0 010-.134.1.1 0 01.05-.025c.065-.012.129-.012.193-.024.128-.013.128-.013.14-.135v-.257c-.012-.05.026-.098.09-.11l.27-.074a.498.498 0 01.55.245c.076.122.14.257.192.38.025.048.025.098-.039.098-.269.048-.525.159-.794.22a.492.492 0 01-.192.049zm5.148-10.519c-.013.013 0 .05-.026.05-.038 0-.064-.037-.064-.062 0-.012.038-.025.051-.012.013.012.026.024.039.024z" fill="#E9B201"/></svg>