<svg width="24" height="24" viewBox="0 0 24 24" fill="none" xmlns="http://www.w3.org/2000/svg"><g clip-path="url(#clip0)" fill="#fff"><path d="M18.005 14.449l-1.272-1.272a1.647 1.647 0 00-1.315-.477c-.49.043-.93.3-1.21.703l-.443.638c-.602-.107-1.768-.41-2.582-1.226-.816-.815-1.12-1.98-1.226-2.582l.638-.444c.403-.28.66-.72.703-1.209a1.647 1.647 0 00-.477-1.315L9.55 5.993a1.638 1.638 0 00-1.917-.303c-1.114.577-1.846 1.66-2.061 3.047-.35 2.262.695 4.93 2.728 6.962 1.773 1.773 4.029 2.795 6.076 2.795.3 0 .597-.022.886-.067 1.388-.215 2.47-.947 3.047-2.061a1.638 1.638 0 00-.303-1.917zm-.99 1.246c-.46.886-1.329 1.192-1.978 1.292-1.782.276-4.023-.634-5.708-2.318-1.684-1.685-2.594-3.926-2.318-5.709.1-.648.406-1.517 1.292-1.976a.168.168 0 01.077-.019c.05 0 .1.02.139.059L9.79 8.296c.053.053.06.113.056.154a.188.188 0 01-.083.142l-1.005.697a.729.729 0 00-.311.646c.006.097.172 2.379 1.704 3.911s3.814 1.698 3.91 1.704a.73.73 0 00.647-.312l.697-1.004a.188.188 0 01.142-.083.188.188 0 01.154.056l1.272 1.272c.059.06.075.148.04.216z"/><path d="M20.485 3.515A11.922 11.922 0 0012 0a11.922 11.922 0 00-8.485 3.515A12.031 12.031 0 00.07 10.694a12.06 12.06 0 001.566 7.361l-1.25 4.667a.729.729 0 00.892.893l4.667-1.25a12.057 12.057 0 007.361 1.565 12.03 12.03 0 007.18-3.444A11.922 11.922 0 0024 12c0-3.205-1.248-6.219-3.515-8.485zm-1.03 15.94A10.494 10.494 0 016.44 20.961a.73.73 0 00-.573-.085L2.12 21.88l1.004-3.747a.729.729 0 00-.085-.573A10.494 10.494 0 014.545 4.545c4.11-4.11 10.799-4.11 14.91 0 4.11 4.111 4.11 10.8 0 14.91z"/></g><defs><clipPath id="clip0"><path fill="#fff" d="M0 0h24v24H0z"/></clipPath></defs></svg>