<svg width="100" height="60" viewBox="0 0 100 60" fill="none" xmlns="http://www.w3.org/2000/svg"><path d="M14.385 37.83c5.14 0 9.307-3.965 9.307-8.854 0-4.89-4.167-8.854-9.307-8.854-5.14 0-9.308 3.964-9.308 8.854 0 4.89 4.167 8.853 9.308 8.853z" fill="#BDBDBD"/><path d="M12.923 23.561l-1.462 5.195-1 .366L10 30.805l1-.366-.846 3H19l.615-2.195h-5.307l.615-2.122 1-.366.462-1.683-1 .293 1.077-3.805h-3.539zm11.539 12.293l2.769-12.732H30l-2.308 10.61h6.77l-.385 2.122h-9.615zm13.384-9.22h2.616l-2.077 9.22h-2.616l2.077-9.22zm.77-3.512h2.615l-.462 2.268h-2.615l.461-2.268zm2.999 5.341L42 26.634h1.308l.307-1.463 3-1.683-.692 3.22h1.615l-.384 1.829h-1.616l-.846 3.878c-.154.731-.23 1.097-.23 1.17 0 .22.076.366.153.44.154.072.385.146.693.146.077 0 .384 0 .846-.074l-.385 1.83c-.461.073-.923.146-1.384.146-.923 0-1.616-.146-2-.512-.385-.366-.616-.805-.616-1.39 0-.293.077-.952.308-1.976l.846-3.732h-1.308zm15 3.513h-6.538v.219c0 .585.154 1.098.538 1.463.385.366.846.586 1.308.586.846 0 1.538-.44 2-1.317l2.308.366a5.441 5.441 0 01-1.846 2.048 5.032 5.032 0 01-2.539.659c-1.307 0-2.384-.366-3.154-1.17-.846-.806-1.23-1.83-1.23-3.074a5.7 5.7 0 011.076-3.366c1-1.317 2.462-1.975 4.308-1.975 1.154 0 2.154.365 2.846 1.024.693.732 1.077 1.683 1.077 2.927 0 .658 0 1.17-.154 1.61zm-2.23-1.464v-.22c0-.658-.154-1.17-.462-1.536-.308-.366-.77-.512-1.308-.512s-1 .22-1.461.585c-.462.366-.693.951-.846 1.683h4.077zm9.769 1.829l2.538.366c-.384 1.098-1.077 1.903-1.846 2.488C64 35.78 63.077 36 62 36c-1.23 0-2.23-.366-2.923-1.025-.692-.731-1.077-1.682-1.077-2.853 0-1.024.23-1.976.692-2.854.462-.878 1.077-1.61 2-2.122.846-.512 1.846-.731 2.923-.731 1.154 0 2.077.292 2.77.878.692.585 1.077 1.317 1.153 2.268l-2.461.22c-.077-.513-.23-.879-.462-1.171-.307-.22-.615-.366-1.076-.366-.539 0-1 .146-1.385.512-.462.366-.77.878-1 1.61-.23.732-.385 1.39-.385 1.975 0 .513.154.952.385 1.244.308.293.615.44 1.077.44.461 0 .846-.147 1.23-.44.154-.22.462-.658.693-1.244zm4.154-.292c0-1.683.538-3.073 1.538-4.098 1-1.024 2.308-1.536 4-1.536 1.462 0 2.539.365 3.308 1.097.77.732 1.23 1.756 1.23 3 0 1.463-.538 2.78-1.538 3.878-1 1.098-2.308 1.61-4 1.61-.923 0-1.692-.146-2.461-.512-.693-.366-1.231-.805-1.539-1.464-.308-.585-.538-1.244-.538-1.975zm7.461-1.83c0-.585-.154-1.097-.538-1.39-.385-.366-.846-.512-1.385-.512-.538 0-1.077.146-1.538.512-.462.366-.77.805-1 1.464-.231.658-.385 1.244-.385 1.756 0 .658.154 1.17.539 1.536.384.366.846.586 1.384.586.692 0 1.308-.293 1.77-.878.846-.878 1.153-1.903 1.153-3.074zm5.616-3.585H84l-2 9.22h-2.615l2-9.22zm.769-3.512h2.615l-.461 2.268h-2.616l.462-2.268zm4.461 3.512h2.462l-.23 1.17c.615-.511 1.23-.877 1.768-1.097.539-.22 1.077-.292 1.693-.292.769 0 1.461.22 1.846.658.461.44.692 1.024.692 1.756 0 .293-.077.951-.308 1.83l-1.153 5.195h-2.616l1.154-5.195c.154-.805.23-1.244.23-1.39 0-.293-.076-.586-.307-.732-.23-.147-.461-.293-.846-.293-.385 0-.846.146-1.308.439a2.897 2.897 0 00-1.077 1.244c-.23.366-.384 1.097-.692 2.195l-.846 3.805h-2.462l2-9.293z" fill="#fff"/></svg>