<svg width="100" height="60" viewBox="0 0 100 60" fill="none" xmlns="http://www.w3.org/2000/svg"><path d="M26.692 18.732h-9.307l-.77 4.098h8.462c4.154 0 5.384 1.463 5.308 3.804 0 1.244-.539 3.293-.847 3.952-.615 1.756-1.923 3.805-6.846 3.805H14.54l-.77 4.097h9.308c3.308 0 4.692-.366 6.154-1.024 3.307-1.464 5.23-4.537 6-8.561 1.154-5.927-.308-10.171-8.539-10.171zm28.846 19.829l.693-3.585h8c.615 0 1.077-.366 1.154-.952.153-.585-.154-.95-.847-.95h-3.846c-3 0-4.461-1.684-3.923-4.537.539-2.854 2.616-4.537 5.616-4.537h8.692l-.692 3.585h-7.616c-.615 0-1.077.366-1.154.952-.154.585.154.95.846.95h3.847c3 0 4.461 1.684 3.923 4.537-.539 2.854-2.539 4.537-5.616 4.537H55.54zm-12.076 0c-4.924 0-7.154-2.56-6.308-7.244.846-4.683 4.077-7.244 9-7.244h8.77L52.23 38.634l-8.77-.073zm5.692-10.976h-2.23c-2.693 0-4.309 1.098-4.77 3.732-.539 2.561.538 3.732 3.23 3.732h2.462l1.308-7.464zM82 38.561l1.538-8.488c.308-1.683-.461-2.414-2.153-2.414h-2.462l-2 10.829h-5.077l3.692-19.83h5.077l-1 5.269h3.77c4.461 0 6.076 1.83 5.23 6.073l-1.538 8.488-5.077.073z" fill="#fff"/><path d="M13.308 26.561c-2.462 0-2.77 1.537-3 2.415-.308 1.17-.385 1.683-.385 1.683h9.539c2.461 0 2.769-1.537 3-2.415.307-1.17.384-1.683.384-1.683h-9.538z" fill="#fff"/></svg>