<svg width="100" height="60" viewBox="0 0 100 60" fill="none" xmlns="http://www.w3.org/2000/svg"><path d="M24.148 30.583c-1.23 4.683-6.154 7.464-11.077 6.293-4.923-1.17-7.846-5.854-6.615-10.537 1.23-4.683 6.154-7.463 11.077-6.292 4.846 1.17 7.846 5.853 6.615 10.536z" fill="#F7931A"/><path d="M19.302 27.216c.154-1.17-.77-1.756-2-2.195l.385-1.537-1-.22-.385 1.537c-.23-.073-.538-.146-.77-.146l.385-1.537-1-.22-.384 1.538c-.231-.074-.462-.074-.616-.147l-1.384-.293-.231 1.025s.77.146.692.146c.385.073.462.366.462.586l-.462 1.756h.077-.077l-.692 2.488c-.077.146-.154.292-.462.219l-.692-.146-.461 1.097 1.307.293c.231.073.462.146.693.146l-.385 1.61 1 .22.385-1.537c.307.073.538.146.769.22l-.385 1.536 1 .22.385-1.61c1.692.292 3 .22 3.538-1.317.462-1.171 0-1.83-.923-2.342.616-.146 1.154-.512 1.231-1.39zm-2.23 3.073c-.308 1.17-2.385.512-3.078.366l.539-2.122c.692.22 2.846.512 2.538 1.756zm.307-3.073c-.308 1.098-2 .512-2.616.366l.462-1.903c.615.147 2.385.44 2.154 1.537zm15.538-2.196c.77 0 1.385.147 1.923.367.539.22 1 .585 1.308 1.024.385.439.615.951.77 1.463.153.586.23 1.171.23 1.83 0 1.024-.23 1.975-.615 2.853a7.207 7.207 0 01-1.616 2.342c-.692.658-1.461 1.17-2.384 1.61a8.083 8.083 0 01-3 .585h-.693c-.307 0-.769-.073-1.153-.073-.462-.073-.924-.147-1.385-.293-.462-.146-1-.293-1.385-.512l4-15.951 3.616-.513-1.462 5.635c.308-.147.616-.22.923-.293.231 0 .539-.073.923-.073zm-3 9.44c.539 0 1.077-.147 1.539-.366a3.25 3.25 0 001.23-1.025c.308-.439.616-.878.847-1.39.23-.512.307-1.097.307-1.683 0-.731-.153-1.244-.384-1.683-.23-.365-.693-.585-1.385-.585-.23 0-.461.073-.846.073-.385.073-.692.22-.923.44l-1.538 6c.076 0 .153 0 .23.072h.539c.077.147.23.147.384.147zm11 2.341h-3.384l2.923-11.56h3.461l-3 11.56zm1.693-12.95c-.462 0-.923-.147-1.308-.44-.385-.293-.615-.658-.615-1.244 0-.292.077-.585.23-.878a2.65 2.65 0 01.539-.732c.23-.219.461-.365.769-.438.308-.147.615-.147.923-.147.462 0 .923.146 1.308.44.384.292.615.658.615 1.243 0 .293-.077.585-.23.878a2.633 2.633 0 01-.539.732c-.23.22-.462.366-.77.439-.307.146-.615.146-.922.146zm4.23-1.464l3.616-.512-.846 3.439h3.846l-.692 2.707h-3.847l-1 4.024c-.077.366-.153.659-.153.951 0 .293 0 .513.076.732.077.22.231.366.462.512.23.147.615.147 1 .147s.692 0 1.077-.074c.308-.073.692-.146 1.077-.292l.23 2.488c-.46.146-1 .292-1.538.439-.538.146-1.154.146-1.923.146-1.077 0-1.923-.146-2.461-.439a2.46 2.46 0 01-1.231-1.244c-.231-.512-.385-1.098-.308-1.756 0-.659.154-1.39.308-2.122l2.307-9.146zm6.385 9.805c0-1.025.154-1.903.538-2.78.308-.879.847-1.684 1.462-2.342.615-.659 1.385-1.171 2.308-1.537a8.086 8.086 0 013-.585c.692 0 1.307.073 1.846.22.538.146 1.077.292 1.461.512l-1.153 2.56c-.308-.146-.616-.22-.923-.292a5.61 5.61 0 00-1.231-.147c-1.154 0-2.077.366-2.693 1.098-.692.732-1 1.756-1 3 0 .732.154 1.317.539 1.83.308.438 1 .658 1.846.658.462 0 .846-.073 1.308-.147.384-.073.769-.22 1.077-.365l.23 2.634c-.461.146-.923.292-1.461.439a7.074 7.074 0 01-1.846.22c-.923 0-1.77-.147-2.462-.367-.692-.292-1.23-.585-1.615-1.097a3.222 3.222 0 01-.923-1.537c-.231-.658-.308-1.317-.308-1.975zm15.154 4.975a6.26 6.26 0 01-2.154-.366c-.615-.22-1.077-.585-1.462-1.024a5.203 5.203 0 01-.923-1.537c-.23-.585-.307-1.244-.307-1.902 0-.878.154-1.756.461-2.634a7.824 7.824 0 011.308-2.342c.615-.731 1.308-1.243 2.154-1.756.846-.439 1.846-.658 2.923-.658.77 0 1.538.146 2.154.366.615.22 1.077.585 1.538 1.024.385.439.692.951.923 1.537.231.585.308 1.244.308 1.902 0 .878-.154 1.756-.462 2.634-.307.878-.692 1.683-1.307 2.342-.539.731-1.308 1.243-2.154 1.756-.846.439-1.846.658-3 .658zm1.77-9.439c-.54 0-.924.147-1.308.44-.385.292-.693.658-1 1.024-.231.439-.462.878-.616 1.39a4.84 4.84 0 00-.23 1.463c0 .732.153 1.317.384 1.683.23.44.692.586 1.308.586a2 2 0 001.307-.44c.385-.292.693-.658 1-1.024.231-.439.462-.878.616-1.39.153-.512.23-.951.23-1.463 0-.732-.153-1.317-.384-1.683-.23-.366-.693-.586-1.308-.586zm8.845 9.073H75.61l2.923-11.56h3.461l-3 11.56zm1.616-12.95c-.462 0-.923-.147-1.308-.44-.385-.293-.616-.658-.616-1.244 0-.292.077-.585.231-.878a2.65 2.65 0 01.539-.732c.23-.219.461-.365.769-.438.308-.147.615-.147.923-.147.462 0 .923.146 1.308.44.384.292.615.658.615 1.243 0 .293-.077.585-.23.878a2.634 2.634 0 01-.54.732c-.23.22-.46.366-.768.439-.308.146-.616.146-.923.146zm3.769 1.975c.23-.073.538-.146.846-.22.308-.073.692-.146 1.077-.292a45.88 45.88 0 011.308-.22c.461-.073 1-.073 1.615-.073 1.77 0 3.077.512 3.77 1.463.692 1.025.768 2.342.384 4.098l-1.539 6.22h-3.46l1.538-6.074.231-1.097c.077-.366.077-.659 0-.951a1.065 1.065 0 00-.461-.659c-.231-.146-.539-.22-1-.22-.462 0-.924.074-1.385.147l-2.23 8.927H81.61l2.769-11.05z" fill="#fff"/></svg>