<svg width="140" height="42" viewBox="0 0 140 42" fill="none" xmlns="http://www.w3.org/2000/svg"><g clip-path="url(#clip0)" fill-rule="evenodd" clip-rule="evenodd"><path d="M86.853 32.845C78.718 38.815 66.926 42 56.773 42c-14.236 0-27.052-5.242-36.748-13.96-.761-.685-.079-1.62.835-1.086 10.464 6.061 23.401 9.707 36.766 9.707 9.013 0 18.928-1.856 28.045-5.709 1.377-.582 2.53.898 1.182 1.893z" fill="#F90"/><path d="M90.236 28.993c-1.037-1.322-6.875-.625-9.495-.315-.798.097-.92-.595-.201-1.093 4.65-3.257 12.28-2.317 13.17-1.225.889 1.098-.232 8.712-4.602 12.346-.67.558-1.31.26-1.011-.48.98-2.438 3.18-7.904 2.139-9.233z" fill="#F90"/><path d="M80.924 4.587V1.42c0-.48.365-.801.804-.801H95.97c.457 0 .823.328.823.8v2.713c-.006.455-.39 1.05-1.073 1.99L88.34 16.61c2.743-.067 5.637.34 8.124 1.735.56.315.713.776.755 1.231v3.38c0 .46-.512 1-1.048.721-4.382-2.287-10.201-2.535-15.046.025-.494.267-1.012-.267-1.012-.728v-3.21c0-.515.006-1.395.524-2.178l8.55-12.206h-7.44c-.458 0-.823-.321-.823-.794zM28.971 24.346H24.64c-.415-.03-.744-.34-.774-.734V1.474c0-.443.371-.794.834-.794h4.04c.421.018.756.34.787.74v2.894h.08C30.658 1.517 32.64.212 35.308.212c2.712 0 4.406 1.305 5.625 4.102C41.982 1.517 44.365.212 46.92.212c1.816 0 3.802.747 5.015 2.421 1.371 1.863 1.09 4.568 1.09 6.94l-.005 13.972c0 .443-.372.8-.835.8h-4.327c-.433-.03-.78-.375-.78-.8V11.812c0-.934.085-3.264-.122-4.15-.323-1.486-1.292-1.905-2.547-1.905-1.048 0-2.145.698-2.59 1.814-.445 1.117-.402 2.985-.402 4.241v11.733c0 .443-.372.8-.835.8h-4.327c-.439-.03-.78-.375-.78-.8l-.006-11.733c0-2.47.408-6.103-2.67-6.103-3.114 0-2.992 3.543-2.992 6.103v11.733c0 .443-.371.8-.835.8M109.054.212c6.429 0 9.909 5.497 9.909 12.486 0 6.752-3.845 12.109-9.909 12.109-6.313 0-9.75-5.496-9.75-12.346 0-6.892 3.479-12.249 9.75-12.249zm.037 4.52c-3.194 0-3.395 4.332-3.395 7.032 0 2.705-.042 8.48 3.358 8.48 3.358 0 3.516-4.659 3.516-7.498 0-1.868-.079-4.1-.646-5.872-.487-1.541-1.456-2.142-2.833-2.142zM127.3 24.346h-4.315c-.432-.03-.78-.376-.78-.801l-.006-22.144c.037-.406.396-.721.835-.721h4.016a.828.828 0 01.774.618v3.386h.079c1.213-3.028 2.913-4.472 5.905-4.472 1.944 0 3.84.698 5.058 2.61C140 4.591 140 7.571 140 9.711v13.936c-.049.389-.408.698-.835.698h-4.345c-.396-.03-.725-.322-.768-.698V11.624c0-2.42.28-5.964-2.712-5.964-1.054 0-2.023.704-2.504 1.772-.61 1.353-.689 2.7-.689 4.192v11.921c-.006.443-.384.8-.847.8M69.57 13.771c0 1.681.043 3.082-.81 4.575-.689 1.213-1.786 1.96-2.999 1.96-1.663 0-2.638-1.262-2.638-3.125 0-3.677 3.309-4.344 6.447-4.344v.934zm4.37 10.514c-.287.255-.701.273-1.024.103-1.438-1.189-1.7-1.74-2.486-2.875-2.377 2.414-4.065 3.136-7.143 3.136-3.65 0-6.484-2.239-6.484-6.722 0-3.5 1.902-5.884 4.62-7.05 2.352-1.03 5.637-1.213 8.147-1.498v-.558c0-1.025.08-2.239-.53-3.124-.524-.795-1.536-1.123-2.431-1.123-1.652 0-3.12.844-3.48 2.59-.073.39-.36.771-.756.79l-4.199-.45c-.353-.078-.75-.363-.646-.903C58.491 1.529 63.098 0 67.218 0c2.109 0 4.863.558 6.527 2.148 2.108 1.96 1.907 4.574 1.907 7.42v6.721c0 2.02.841 2.906 1.633 3.998.275.388.336.856-.018 1.147-.883.734-2.456 2.099-3.321 2.863l-.006-.012M12.767 13.772c0 1.68.043 3.082-.81 4.574-.689 1.213-1.78 1.96-2.999 1.96-1.663 0-2.632-1.262-2.632-3.125 0-3.676 3.309-4.344 6.441-4.344v.935zm4.37 10.513c-.287.255-.701.273-1.024.104-1.438-1.19-1.694-1.742-2.487-2.876-2.376 2.414-4.058 3.136-7.142 3.136C2.84 24.65 0 22.411 0 17.927c0-3.5 1.907-5.884 4.62-7.05 2.352-1.03 5.636-1.212 8.147-1.498v-.558c0-1.025.08-2.238-.524-3.124-.53-.795-1.542-1.122-2.431-1.122-1.652 0-3.127.843-3.486 2.59-.073.388-.36.77-.75.789l-4.205-.45c-.353-.078-.743-.363-.646-.903.97-5.072 5.57-6.6 9.69-6.6 2.108 0 4.863.557 6.527 2.147 2.108 1.96 1.907 4.574 1.907 7.42v6.721c0 2.02.841 2.906 1.633 3.998.28.389.342.856-.012 1.147-.883.734-2.456 2.1-3.321 2.863l-.012-.012" fill="#000"/></g><defs><clipPath id="clip0"><path fill="#fff" d="M0 0h140v42H0z"/></clipPath></defs></svg>