<svg width="70" height="70" viewBox="0 0 70 70" fill="none" xmlns="http://www.w3.org/2000/svg"><g clip-path="url(#clip0)"><path d="M22.56 22.535l21.313-21.21c1.59-1.581 3.395-1.88 5.329 0l19.81 19.714c1.418 1.41 1.289 3.549 0 4.832l-43.1 42.846c-1.548 1.54-3.567 1.796-5.372 0L1.16 49.432c-1.547-1.54-1.418-3.977 0-5.388l21.4-21.509z" fill="#fff"/><path d="M22.904 24.716l22.302 22.193-20.283 20.183c-1.246 1.24-2.535 1.283-3.824 0L2.535 48.62c-1.16-1.154-1.074-2.437 0-3.506l20.369-20.397z" fill="#006491"/><path d="M46.624 45.584L24.322 23.39 44.604 3.207c1.246-1.24 2.535-1.283 3.825 0L66.992 21.68c1.16 1.154 1.074 2.437 0 3.506L46.624 45.584z" fill="#E31837"/><path d="M46.495 28.907c3.038 0 5.5-2.451 5.5-5.474s-2.462-5.473-5.5-5.473-5.5 2.45-5.5 5.473c0 3.023 2.462 5.474 5.5 5.474zM31.068 52.382c3.038 0 5.5-2.45 5.5-5.473 0-3.023-2.462-5.474-5.5-5.474s-5.5 2.451-5.5 5.474 2.462 5.473 5.5 5.473zm-16.071 0c3.038 0 5.5-2.45 5.5-5.473 0-3.023-2.462-5.474-5.5-5.474s-5.5 2.451-5.5 5.474 2.462 5.473 5.5 5.473z" fill="#fff"/></g><defs><clipPath id="clip0"><path fill="#fff" d="M0 0h70v70H0z"/></clipPath></defs></svg>