<svg width="80" height="80" viewBox="0 0 80 80" fill="none" xmlns="http://www.w3.org/2000/svg"><path d="M40 0H0v80h80V0H40z" fill="#002A5F"/><path d="M57.478 20.664h1.658c1.568-.001 2.296 1.46 2.296 2.566v17.203c.001 1.24-.728 2.39-2.133 2.381h-1.82v-22.15zm1.668-.638h-6.593v.638h1.744v38.672h-1.744v.684h7.439v-.684h-2.514V43.6h2.168c3.153 0 4.948-1.66 4.948-3.894V24.252c0-2.227-1.549-4.23-5.448-4.226zm-34.9.514c0 .638-.372.59-.67.38-1.072-.752-2.385-1.293-3.558-1.284-1.912.014-4.652.94-4.661 4.972v29.645c.029 5.15 2.507 6.111 4.95 6.137 1.901.018 2.806-.986 3.576-1.32.405-.178.85.232.85.992h.79v-18.86h1.583v-.634h-6.69v.634h1.94v16.223c0 1.316-.893 2.311-2.02 2.313-1.084 0-1.915-1.03-1.915-2.313V23.43c-.001-.924.163-3.073 1.592-3.063 2.75.02 4.211 8.065 4.231 12.227h.79v-12.59h-.786l-.002.536zm12.147 22.329l1.927-17.257 1.968 17.257h-3.895zm3.975.706l1.793 15.752H40.4v.684h6.621v-.684h-1.745l-4.398-39.31H38.06l-4.086 37.127c-.24 1.334-.365 2.155-2.282 2.184v.683h4.965v-.684c-1.406.002-2.042-.897-1.904-1.852l1.561-13.9h4.055z" fill="#fff"/></svg>