<svg width="120" height="80" viewBox="0 0 120 80" fill="none" xmlns="http://www.w3.org/2000/svg"><path d="M110.456 79.755c-5.574 0-8.881-2.812-9.134-6.862h5.331c0 1.35.759 3.147 4.056 3.259 2.286 0 3.551-1.35 3.551-2.365-.253-1.573-2.286-1.685-4.31-2.029-2.285-.327-4.056-.782-5.33-1.341-1.771-.903-2.792-2.82-2.792-4.841 0-3.603 3.054-6.415 8.375-6.415 5.078 0 8.375 2.588 8.619 6.527h-5.068c0-1.006-.253-2.7-3.298-2.7-2.032 0-3.297.335-3.55 1.797 0 2.029 4.309 1.917 7.607 2.7 3.044.79 5.077 2.7 5.077 5.408 0 4.953-4.056 6.862-9.134 6.862zm-97.13-33.229l17.5-10.017 9.387 15.873h-23.59m31.002 8.359H52.5v18.518h-4.875zM5.204 69.437c0 3.147 2.792 5.735 5.828 5.735 3.306 0 5.836-2.588 5.836-5.735 0-3.035-2.53-5.735-5.836-5.735-3.036 0-5.828 2.7-5.828 5.735zm5.575 10.352c-5.575 0-10.39-4.617-10.39-10.352s4.815-10.24 10.39-10.24c2.285 0 4.318.567 6.089 1.796V59.42h5.077v19.914h-5.077v-1.239c-1.518 1.127-3.804 1.694-6.09 1.694zm67.733-27.412L54.164 10.52 71.664.392l30.437 51.985M28.54 69.437c0 3.147 2.539 5.735 5.836 5.735 3.036 0 5.837-2.588 5.837-5.735 0-3.035-2.8-5.735-5.837-5.735-3.297 0-5.836 2.7-5.836 5.735zm5.583 10.352c-5.836 0-10.399-4.617-10.399-10.352s4.563-10.24 10.4-10.24c2.276 0 4.309.567 6.088 1.796v-8.435h5.069v26.776h-5.069v-1.239c-1.78 1.127-3.812 1.694-6.089 1.694zm-.25-51.153l17.753-9.897L71.16 52.376H52.64v4.953h-5.07v-4.953m68.731 5.109c-1.273 0-2.538-1.127-2.538-2.477 0-1.35 1.265-2.476 2.538-2.476 1.518 0 2.539 1.126 2.539 2.476s-1.021 2.477-2.539 2.477zm0-4.61c-1.273 0-2.032 1.007-2.032 2.133 0 1.127.759 2.141 2.032 2.141 1.265 0 2.024-1.014 2.024-2.14 0-1.127-.759-2.133-2.024-2.133z" fill="#2A2929"/><path d="M116.825 56.367l-.506-1.126h-.506v1.126h-.384v-2.7h1.143c.253 0 .759.344.759.791a.8.8 0 01-.506.783l.506 1.126h-.506zm-.506-2.356h-.506v.895h.506c.506 0 .506-.112.506-.448 0-.232 0-.447-.506-.447zM82.802 69.437c0 3.147 2.539 5.735 5.836 5.735 3.045 0 5.828-2.588 5.828-5.735 0-3.035-2.783-5.735-5.828-5.735-3.297 0-5.836 2.7-5.836 5.735zm5.574 10.352c-5.827 0-10.39-4.617-10.39-10.352s4.563-10.24 10.39-10.24c2.286 0 4.319.567 6.09 1.796V59.42h4.824v19.914h-4.824v-1.239c-1.771 1.127-3.804 1.694-6.09 1.694zM59.483 69.437c0 3.147 2.792 5.735 5.836 5.735 3.298 0 5.837-2.588 5.837-5.735 0-3.035-2.539-5.735-5.837-5.735-3.044 0-5.836 2.7-5.836 5.735zm11.673-16.879h5.068v26.776h-5.068v-1.239c-1.527 1.127-3.56 1.694-5.837 1.694-5.836 0-10.651-4.617-10.651-10.352s4.815-10.24 10.651-10.24c2.277 0 4.31.567 5.837 1.796v-8.435z" fill="#2A2929"/></svg>