<svg width="24" height="24" viewBox="0 0 24 24" fill="none" xmlns="http://www.w3.org/2000/svg"><path d="M19.504 12.65L12.008 21l-7.496-8.35a5.707 5.707 0 01-1.144-1.911 6.245 6.245 0 01-.366-2.266 6.204 6.204 0 01.472-2.241 5.612 5.612 0 011.232-1.84 4.88 4.88 0 011.784-1.13 4.473 4.473 0 012.037-.23 4.62 4.62 0 011.949.708c.6.385 1.12.905 1.532 1.528a5.234 5.234 0 011.535-1.515 4.617 4.617 0 011.945-.698c.684-.08 1.375 0 2.03.235.656.234 1.26.619 1.778 1.128a5.61 5.61 0 011.228 1.835 6.249 6.249 0 01.114 4.494 5.713 5.713 0 01-1.134 1.91"/></svg>