<svg width="40" height="40" viewBox="0 0 40 40" fill="none" xmlns="http://www.w3.org/2000/svg"><path d="M19.69 28.258c5.88 0 10.646-4.766 10.646-10.645 0-5.88-4.766-10.646-10.645-10.646-5.88 0-10.646 4.766-10.646 10.646 0 5.88 4.766 10.645 10.646 10.645z" fill="#2A2929"/><path d="M32.2 5.181A17.575 17.575 0 0019.69 0c-4.725 0-9.167 1.84-12.508 5.181A17.575 17.575 0 002 17.691c0 8.336 5.828 15.534 13.925 17.287L19.69 40l3.766-5.022c8.096-1.754 13.925-8.95 13.925-17.287 0-4.726-1.84-9.168-5.182-12.51zm-12.51-.563c7.166 0 12.995 5.83 12.995 12.994 0 7.166-5.83 12.995-12.994 12.995-7.165 0-12.994-5.83-12.994-12.994 0-7.165 5.829-12.995 12.994-12.995z" fill="#2A2929"/></svg>