<svg width="24" height="24" viewBox="0 0 24 24" fill="none" xmlns="http://www.w3.org/2000/svg">
<path d="M17.4208 0H6.57923C2.95144 0 0 2.95144 0 6.57928V17.4208C0 21.0486 2.95144 24 6.57923 24H17.4208C21.0486 24 24 21.0486 24 17.4208V6.57928C24 2.95144 21.0486 0 17.4208 0ZM22.5827 17.4208C22.5827 20.2671 20.2671 22.5827 17.4208 22.5827H6.57923C3.73294 22.5827 1.41731 20.2671 1.41731 17.4208V6.57928C1.41731 3.73294 3.73294 1.41731 6.57923 1.41731H17.4208C20.2671 1.41731 22.5827 3.73294 22.5827 6.57928V17.4208Z" fill="#5CDEDA"/>
<path d="M11.9999 5.41724C8.37022 5.41724 5.41724 8.37022 5.41724 11.9999C5.41724 15.6297 8.37017 18.5826 11.9999 18.5826C15.6297 18.5826 18.5827 15.6296 18.5827 11.9999C18.5827 8.37017 15.6297 5.41724 11.9999 5.41724ZM11.9999 17.1654C9.15172 17.1654 6.8345 14.8481 6.8345 11.9999C6.8345 9.15167 9.15172 6.83446 11.9999 6.83446C14.8482 6.83446 17.1654 9.15172 17.1654 11.9999C17.1654 14.8482 14.8482 17.1654 11.9999 17.1654Z" fill="#5CDEDA"/>
<path d="M18.9764 3.02368C17.8736 3.02368 16.9764 3.92092 16.9764 5.0237C16.9764 6.12648 17.8736 7.02367 18.9764 7.02367C20.0792 7.02367 20.9764 6.12643 20.9764 5.02365C20.9764 3.92087 20.0792 3.02368 18.9764 3.02368ZM18.9764 5.60631C18.6552 5.60631 18.3938 5.34493 18.3938 5.02365C18.3938 4.70237 18.6552 4.44099 18.9764 4.44099C19.2977 4.44099 19.5591 4.70242 19.5591 5.02365C19.5591 5.34488 19.2977 5.60631 18.9764 5.60631Z" fill="#5CDEDA"/>
</svg>
