<svg width="24" height="24" viewBox="0 0 24 24" fill="none" xmlns="http://www.w3.org/2000/svg">
<g clip-path="url(#clip0)">
<path d="M18.0046 14.4486L16.7326 13.1767C16.3856 12.8297 15.906 12.6558 15.4177 12.6997C14.9289 12.7435 14.4883 12.9999 14.2086 13.403L13.7655 14.0415C13.163 13.9341 11.9973 13.6303 11.1826 12.8155C10.3674 12.0003 10.0637 10.8342 9.95654 10.2325L10.5952 9.78943C10.9983 9.50968 11.2546 9.06891 11.2984 8.5802C11.3422 8.09148 11.1683 7.61223 10.8214 7.26535L9.54947 5.99345C9.03835 5.48237 8.26796 5.3604 7.63233 5.68974C6.51783 6.26715 5.78574 7.34949 5.57068 8.73737C5.22038 10.9986 6.26574 13.6662 8.29876 15.6992C10.0718 17.4723 12.3275 18.4941 14.3753 18.4941C14.6756 18.4941 14.9715 18.4721 15.2606 18.4274C16.6486 18.2124 17.7309 17.4802 18.3083 16.3658C18.3083 16.3658 18.3083 16.3658 18.3083 16.3658C18.6376 15.73 18.5156 14.9596 18.0046 14.4486ZM17.0141 15.6953C16.5553 16.5809 15.686 16.8865 15.0375 16.987C13.2546 17.2631 11.014 16.3532 9.32935 14.6686C7.6448 12.984 6.73477 10.7435 7.01096 8.96049C7.11136 8.31202 7.41708 7.44277 8.30274 6.98387C8.32674 6.97149 8.35327 6.96544 8.38018 6.96544C8.42968 6.96544 8.48049 6.98584 8.51874 7.02404L9.79069 8.29599C9.84352 8.34891 9.85027 8.40901 9.84657 8.45012C9.84287 8.49127 9.82562 8.54921 9.76412 8.59187L8.75944 9.28899C8.54935 9.43477 8.43099 9.68012 8.44772 9.9353C8.45405 10.0317 8.6198 12.3139 10.1519 13.846C11.6839 15.3781 13.9662 15.5439 14.0626 15.5502C14.3176 15.5666 14.5631 15.4486 14.7089 15.2384L15.406 14.2337C15.4486 14.1723 15.5066 14.155 15.5477 14.1513C15.5889 14.1475 15.649 14.1544 15.702 14.2073L16.9739 15.4791C17.033 15.5382 17.0495 15.6271 17.0141 15.6953Z" fill="white"/>
<path d="M20.4851 3.51487C18.2185 1.24823 15.205 0 11.9995 0C8.79401 0 5.78051 1.24823 3.51392 3.51483C1.58749 5.44125 0.364526 7.99083 0.0701507 10.6939C-0.208146 13.2493 0.347229 15.8504 1.63573 18.0552L0.385198 22.7222C0.317791 22.9737 0.389698 23.242 0.57387 23.4262C0.757948 23.6102 1.0264 23.6821 1.27774 23.6148L5.94471 22.3643C7.77772 23.4355 9.8847 24 12.0115 24C12.4429 24 12.8751 23.9768 13.306 23.9298C16.0091 23.6355 18.5587 22.4125 20.4851 20.486C22.7517 18.2195 24 15.2059 24 12.0005C24 8.79506 22.7517 5.78147 20.4851 3.51487ZM19.4545 19.4554C15.9702 22.9396 10.6185 23.5588 6.44023 20.9612C6.32361 20.8888 6.19015 20.8514 6.05539 20.8514C5.99229 20.8514 5.92892 20.8596 5.86681 20.8762L2.11976 21.8802L3.12382 18.1332C3.17595 17.9385 3.14515 17.7309 3.03879 17.5598C0.44112 13.3814 1.06034 8.02969 4.54451 4.54547C8.65526 0.434813 15.3438 0.434813 19.4545 4.54547C23.5651 8.65613 23.5651 15.3447 19.4545 19.4554Z" fill="white"/>
</g>
<defs>
<clipPath id="clip0">
<rect width="24" height="24" fill="white"/>
</clipPath>
</defs>
</svg>
