<svg width="24" height="24" viewBox="0 0 24 24" fill="none" xmlns="http://www.w3.org/2000/svg">
<path d="M20.8755 22.425H3.1245C1.815 22.425 0.75 21.3592 0.75 20.0497V10.422C0.75 9.7275 1.05225 9.0705 1.5795 8.619L8.1255 3.009C8.43525 2.72475 9.83775 1.5 12 1.5C14.1622 1.5 15.5648 2.72475 15.8745 3.009L22.4205 8.619C22.9478 9.0705 23.25 9.72825 23.25 10.422V20.0497C23.25 21.3592 22.185 22.425 20.8755 22.425ZM12 3.0675C10.9703 3.0675 9.94125 3.4275 9.10125 4.1475L2.55525 9.7575C2.361 9.92475 2.25 10.167 2.25 10.422V20.0497C2.25 20.532 2.64225 20.925 3.1245 20.925H20.8755C21.3577 20.925 21.75 20.5327 21.75 20.0497V10.422C21.75 10.1663 21.639 9.924 21.4447 9.7575L14.8988 4.1475C14.0588 3.4275 13.029 3.0675 12 3.0675Z" fill="#5CDEDA"/>
<path d="M12 16.2628C11.28 16.2628 9.264 16.169 7.26525 14.7755L4.07025 12.539C3.7335 12.3035 3.6495 11.8318 3.88575 11.4943C4.122 11.1568 4.593 11.0735 4.9305 11.3098L8.1255 13.5463C10.4445 15.1693 13.557 15.1693 15.876 13.5463L19.071 11.3098C19.4085 11.0728 19.878 11.1545 20.1158 11.4943C20.3528 11.8333 20.271 12.3013 19.9313 12.539L16.7363 14.7755C16.1445 15.1873 14.4368 16.2628 12 16.2628Z" fill="#5CDEDA"/>
</svg>
