<svg width="40" height="40" viewBox="0 0 40 40" fill="none" xmlns="http://www.w3.org/2000/svg">
<g clip-path="url(#clip0)">
<path d="M0.264366 19.3591L9.35507 10.2683C9.68162 9.88702 10.2555 9.84257 10.6368 10.1692C11.0182 10.4958 11.0626 11.0697 10.736 11.451C10.7055 11.4865 10.6724 11.5197 10.6368 11.5501L3.10064 19.0955H39.091C39.593 19.0955 40 19.5025 40 20.0046C40 20.5067 39.593 20.9136 39.091 20.9136H3.10064L10.6368 28.4498C11.0182 28.7764 11.0626 29.3503 10.736 29.7316C10.4093 30.1129 9.83553 30.1574 9.4542 29.8307C9.41866 29.8003 9.38546 29.7671 9.35507 29.7316L0.264286 20.6408C-0.088131 20.2864 -0.0881271 19.7137 0.264366 19.3591Z" fill="#6D71F9"/>
</g>
<defs>
<clipPath id="clip0">
<rect width="40" height="40" fill="white" transform="matrix(-1 0 0 1 40 0)"/>
</clipPath>
</defs>
</svg>
