<svg width="30" height="30" viewBox="0 0 30 30" fill="none" xmlns="http://www.w3.org/2000/svg">
<path d="M15 28.4C14.8768 28.4006 14.7548 28.3766 14.641 28.3293C14.5272 28.2821 14.4241 28.2126 14.3375 28.125L7.13751 20.925C5.5805 19.3696 4.5198 17.3873 4.08961 15.229C3.65942 13.0706 3.87906 10.8332 4.72075 8.79968C5.56243 6.76618 6.98835 5.02802 8.81809 3.80508C10.6478 2.58214 12.7992 1.92938 15 1.92938C17.2008 1.92938 19.3522 2.58214 21.1819 3.80508C23.0117 5.02802 24.4376 6.76618 25.2793 8.79968C26.121 10.8332 26.3406 13.0706 25.9104 15.229C25.4802 17.3873 24.4195 19.3696 22.8625 20.925L15.6625 28.125C15.5759 28.2126 15.4728 28.2821 15.359 28.3293C15.2452 28.3766 15.1232 28.4006 15 28.4ZM15 3.81251C13.1715 3.81378 11.3843 4.35698 9.86437 5.37347C8.3444 6.38996 7.15981 7.83414 6.46023 9.52356C5.76065 11.213 5.57748 13.0718 5.93386 14.8653C6.29024 16.6588 7.17017 18.3064 8.4625 19.6L15 26.1375L21.5375 19.6C22.8298 18.3064 23.7098 16.6588 24.0662 14.8653C24.4225 13.0718 24.2394 11.213 23.5398 9.52356C22.8402 7.83414 21.6556 6.38996 20.1356 5.37347C18.6157 4.35698 16.8285 3.81378 15 3.81251Z" fill="#5CDEDA"/>
<path d="M15 17.1875C14.0729 17.1875 13.1666 16.9126 12.3958 16.3975C11.6249 15.8824 11.0241 15.1504 10.6693 14.2938C10.3145 13.4373 10.2217 12.4948 10.4026 11.5855C10.5834 10.6762 11.0299 9.841 11.6854 9.18544C12.341 8.52988 13.1762 8.08344 14.0855 7.90257C14.9948 7.7217 15.9373 7.81453 16.7938 8.16932C17.6504 8.5241 18.3824 9.12491 18.8975 9.89577C19.4126 10.6666 19.6875 11.5729 19.6875 12.5C19.6875 13.7432 19.1936 14.9355 18.3146 15.8146C17.4355 16.6936 16.2432 17.1875 15 17.1875ZM15 9.6875C14.4437 9.6875 13.9 9.85245 13.4375 10.1615C12.9749 10.4705 12.6145 10.9098 12.4016 11.4237C12.1887 11.9376 12.133 12.5031 12.2415 13.0487C12.3501 13.5943 12.6179 14.0954 13.0113 14.4887C13.4046 14.8821 13.9057 15.1499 14.4513 15.2585C14.9969 15.367 15.5624 15.3113 16.0763 15.0984C16.5902 14.8855 17.0295 14.5251 17.3385 14.0625C17.6475 13.6 17.8125 13.0563 17.8125 12.5C17.8125 11.7541 17.5162 11.0387 16.9887 10.5113C16.4613 9.98382 15.7459 9.6875 15 9.6875Z" fill="#5CDEDA"/>
</svg>
