<svg width="40" height="40" viewBox="0 0 40 40" fill="none" xmlns="http://www.w3.org/2000/svg">
<g clip-path="url(#clip0)">
<path d="M39.7356 19.3591L30.6449 10.2683C30.3184 9.88702 29.7445 9.84257 29.3632 10.1692C28.9818 10.4958 28.9374 11.0697 29.264 11.451C29.2945 11.4865 29.3276 11.5197 29.3632 11.5501L36.8994 19.0955H0.909047C0.407024 19.0955 0 19.5025 0 20.0046C0 20.5067 0.407024 20.9136 0.909047 20.9136H36.8994L29.3632 28.4498C28.9818 28.7764 28.9374 29.3503 29.264 29.7316C29.5907 30.1129 30.1645 30.1574 30.5458 29.8307C30.5813 29.8003 30.6145 29.7671 30.6449 29.7316L39.7357 20.6408C40.0881 20.2864 40.0881 19.7137 39.7356 19.3591Z" fill="#6D71F9"/>
</g>
<defs>
<clipPath id="clip0">
<rect width="40" height="40" fill="white"/>
</clipPath>
</defs>
</svg>
