<svg width="24" height="24" viewBox="0 0 24 24" fill="none" xmlns="http://www.w3.org/2000/svg">
<path d="M16.5 5.25H21" stroke="white" stroke-width="2" stroke-linecap="round" stroke-linejoin="round"/>
<path d="M18.75 3V7.5" stroke="white" stroke-width="2" stroke-linecap="round" stroke-linejoin="round"/>
<path d="M17.6282 11.0796C17.2272 12.1625 16.522 13.1066 15.5974 13.7984C14.6728 14.4902 13.5681 14.9004 12.4161 14.9796C11.264 15.0588 10.1136 14.8037 9.103 14.245C8.09241 13.6862 7.26464 12.8476 6.71913 11.8298C6.17362 10.812 5.93357 9.65831 6.02782 8.5074C6.12208 7.35648 6.54662 6.25726 7.25045 5.34177C7.95428 4.42629 8.90747 3.73348 9.99549 3.34659C11.0835 2.9597 12.2601 2.89518 13.3839 3.16077" stroke="white" stroke-width="2" stroke-linecap="round" stroke-linejoin="round"/>
<path d="M3 19.9998C3.91247 18.4796 5.22451 17.2172 6.8043 16.3396C8.3841 15.462 10.176 15 12.0001 15C13.8241 15 15.616 15.4621 17.1958 16.3397C18.7756 17.2174 20.0876 18.4797 21 20" stroke="white" stroke-width="2" stroke-linecap="round" stroke-linejoin="round"/>
</svg>
