<svg width="16" height="16" viewBox="0 0 16 16" fill="none" xmlns="http://www.w3.org/2000/svg">
<path d="M8 8.5C9.10457 8.5 10 7.60457 10 6.5C10 5.39543 9.10457 4.5 8 4.5C6.89543 4.5 6 5.39543 6 6.5C6 7.60457 6.89543 8.5 8 8.5Z" stroke="#B8B9D0" stroke-linecap="round" stroke-linejoin="round"/>
<path d="M13.3337 6.46121C13.3337 11.0766 8.00033 14.6663 8.00033 14.6663C8.00033 14.6663 2.66699 11.0766 2.66699 6.46121C2.66699 5.10113 3.2289 3.79675 4.22909 2.83502C5.22928 1.8733 6.58584 1.33301 8.00033 1.33301C9.41481 1.33301 10.7714 1.8733 11.7716 2.83502C12.7718 3.79675 13.3337 5.10113 13.3337 6.46121V6.46121Z" stroke="#B8B9D0" stroke-linecap="round" stroke-linejoin="round"/>
</svg>
