<svg width="40" height="40" viewBox="0 0 40 40" fill="none" xmlns="http://www.w3.org/2000/svg">
<path d="M19.6907 28.2584C25.5702 28.2584 30.3365 23.4921 30.3365 17.6126C30.3365 11.7331 25.5702 6.9668 19.6907 6.9668C13.8112 6.9668 9.04492 11.7331 9.04492 17.6126C9.04492 23.4921 13.8112 28.2584 19.6907 28.2584Z" fill="#2A2929"/>
<path d="M32.2001 5.18145C28.8588 1.84016 24.4162 0 19.6908 0C14.9654 0 10.5228 1.84016 7.18153 5.18145C3.84016 8.5229 2 12.9654 2 17.6908C2 26.0273 7.8281 33.2245 15.9246 34.9784L19.6908 40L23.4571 34.9783C31.5535 33.2244 37.3816 26.0273 37.3816 17.6908C37.3816 12.9654 35.5414 8.5229 32.2001 5.18145ZM19.6908 4.6184C26.8558 4.6184 32.6849 10.4476 32.6849 17.6125C32.6849 24.7775 26.8558 30.6067 19.6908 30.6067C12.5258 30.6067 6.69667 24.7775 6.69667 17.6125C6.69667 10.4476 12.5258 4.6184 19.6908 4.6184Z" fill="#2A2929"/>
</svg>
