<svg width="140" height="42" viewBox="0 0 140 42" fill="none" xmlns="http://www.w3.org/2000/svg">
<g clip-path="url(#clip0)">
<path fill-rule="evenodd" clip-rule="evenodd" d="M86.8533 32.8452C78.7176 38.8149 66.9255 41.9999 56.7727 41.9999C42.5369 41.9999 29.721 36.7583 20.0252 28.0404C19.2635 27.3548 19.946 26.4206 20.8601 26.9544C31.3237 33.0151 44.2615 36.6612 57.6259 36.6612C66.6391 36.6612 76.5542 34.8048 85.671 30.9524C87.0483 30.37 88.2001 31.8503 86.8533 32.8452Z" fill="#FF9900"/>
<path fill-rule="evenodd" clip-rule="evenodd" d="M90.2355 28.993C89.1995 27.6705 83.3614 28.3682 80.7409 28.6776C79.9426 28.7746 79.8207 28.083 80.5398 27.5855C85.1896 24.3277 92.8194 25.2681 93.7091 26.3601C94.5989 27.4581 93.4776 35.0719 89.1081 38.7059C88.4377 39.264 87.7979 38.9667 88.0965 38.2266C89.0776 35.7878 91.2776 30.3216 90.2355 28.993Z" fill="#FF9900"/>
<path fill-rule="evenodd" clip-rule="evenodd" d="M80.9237 4.58654V1.4197C80.9237 0.940433 81.2893 0.618896 81.7281 0.618896H95.97C96.4271 0.618896 96.7927 0.9465 96.7927 1.4197V4.13153C96.7867 4.58654 96.4027 5.18108 95.7202 6.12142L88.3402 16.6108C91.0826 16.5441 93.9773 16.9505 96.4637 18.3459C97.0243 18.6614 97.1767 19.1224 97.2193 19.5774V22.9566C97.2193 23.4177 96.7074 23.9576 96.1711 23.6785C91.7895 21.3914 85.9696 21.1426 81.1248 23.7028C80.6312 23.9697 80.1132 23.4359 80.1132 22.9748V19.7655C80.1132 19.2498 80.1192 18.3701 80.6372 17.5875L89.1873 5.38128H81.7464C81.2893 5.38128 80.9237 5.05974 80.9237 4.58654Z" fill="black"/>
<path fill-rule="evenodd" clip-rule="evenodd" d="M28.9714 24.3459H24.6385C24.2241 24.3155 23.895 24.0061 23.8645 23.6118V1.47429C23.8645 1.03141 24.2363 0.679542 24.6994 0.679542H28.7398C29.1603 0.69773 29.4955 1.01928 29.526 1.41968V4.31352H29.6052C30.6595 1.51675 32.6401 0.212402 35.3093 0.212402C38.0212 0.212402 39.7153 1.51675 40.9341 4.31352C41.9823 1.51675 44.3651 0.212402 46.9186 0.212402C48.7346 0.212402 50.7213 0.95861 51.934 2.63303C53.3052 4.49551 53.0249 7.20127 53.0249 9.57337L53.0188 23.545C53.0188 23.9879 52.647 24.3459 52.1839 24.3459H47.8571C47.4244 24.3155 47.077 23.9697 47.077 23.545V11.812C47.077 10.8777 47.1623 8.54809 46.9551 7.66235C46.6321 6.176 45.6632 5.75739 44.4078 5.75739C43.3596 5.75739 42.2627 6.45507 41.8178 7.57135C41.3729 8.68763 41.4156 10.5562 41.4156 11.812V23.545C41.4156 23.9879 41.0438 24.3459 40.5807 24.3459H36.2539C35.8151 24.3155 35.4738 23.9697 35.4738 23.545L35.4677 11.812C35.4677 9.34283 35.876 5.70886 32.7985 5.70886C29.6844 5.70886 29.8063 9.25183 29.8063 11.812V23.545C29.8063 23.9879 29.4346 24.3459 28.9714 24.3459" fill="black"/>
<path fill-rule="evenodd" clip-rule="evenodd" d="M109.054 0.212402C115.483 0.212402 118.963 5.70886 118.963 12.6977C118.963 19.45 115.118 24.8069 109.054 24.8069C102.741 24.8069 99.3035 19.3105 99.3035 12.4611C99.3035 5.56932 102.783 0.212402 109.054 0.212402ZM109.091 4.73212C105.897 4.73212 105.696 9.06376 105.696 11.7635C105.696 14.4692 105.654 20.2447 109.054 20.2447C112.412 20.2447 112.57 15.5855 112.57 12.7463C112.57 10.8777 112.491 8.64516 111.924 6.87367C111.437 5.33273 110.468 4.73212 109.091 4.73212Z" fill="black"/>
<path fill-rule="evenodd" clip-rule="evenodd" d="M127.3 24.3459H122.985C122.553 24.3155 122.205 23.9697 122.205 23.545L122.199 1.40148C122.236 0.99501 122.595 0.679542 123.034 0.679542H127.05C127.428 0.69773 127.739 0.952545 127.824 1.29835V4.68358H127.903C129.116 1.65628 130.816 0.212402 133.808 0.212402C135.752 0.212402 137.648 0.910078 138.866 2.8211C140 4.59258 140 7.57135 140 9.7129V23.6482C139.951 24.0365 139.592 24.3459 139.165 24.3459H134.82C134.424 24.3155 134.095 24.0243 134.052 23.6482V11.6239C134.052 9.2033 134.332 5.66033 131.34 5.66033C130.286 5.66033 129.317 6.36407 128.836 7.43181C128.226 8.78469 128.147 10.1315 128.147 11.6239V23.545C128.141 23.9879 127.763 24.3459 127.3 24.3459" fill="black"/>
<path fill-rule="evenodd" clip-rule="evenodd" d="M69.5703 13.7715C69.5703 15.452 69.613 16.8534 68.7598 18.3458C68.0712 19.5591 66.9742 20.3053 65.7615 20.3053C64.0978 20.3053 63.1228 19.0435 63.1228 17.181C63.1228 13.5045 66.4319 12.8372 69.5703 12.8372V13.7715ZM73.9398 24.2851C73.6534 24.5399 73.239 24.5581 72.916 24.3883C71.4778 23.1992 71.2158 22.6471 70.4296 21.5126C68.0529 23.9272 66.3648 24.6491 63.2873 24.6491C59.6369 24.6491 56.8032 22.4105 56.8032 17.9272C56.8032 14.4267 58.7045 12.0425 61.4225 10.8776C63.7748 9.8463 67.0596 9.6643 69.5703 9.37917V8.82103C69.5703 7.79575 69.6496 6.5824 69.0402 5.69666C68.5161 4.90192 67.5044 4.57431 66.6086 4.57431C64.9571 4.57431 63.4884 5.41759 63.1289 7.16481C63.0557 7.55308 62.7693 7.93528 62.3732 7.95349L58.1743 7.50454C57.8209 7.42568 57.4248 7.14054 57.5284 6.60061C58.4912 1.52882 63.0984 0 67.218 0C69.3266 0 72.0811 0.55814 73.7448 2.14762C75.8534 4.10718 75.6523 6.72194 75.6523 9.56723V16.2892C75.6523 18.3094 76.4933 19.1951 77.2855 20.2871C77.5597 20.6754 77.6207 21.1426 77.2672 21.4338C76.3836 22.1678 74.8113 23.5328 73.9459 24.2973L73.9398 24.2851" fill="black"/>
<path fill-rule="evenodd" clip-rule="evenodd" d="M12.7672 13.7717C12.7672 15.4522 12.8098 16.8536 11.9566 18.346C11.268 19.5594 10.1772 20.3056 8.95834 20.3056C7.29465 20.3056 6.32569 19.0437 6.32569 17.1812C6.32569 13.5048 9.63479 12.8374 12.7672 12.8374V13.7717ZM17.1366 24.2854C16.8502 24.5402 16.4358 24.5584 16.1128 24.3885C14.6746 23.1994 14.4187 22.6474 13.6264 21.5129C11.2497 23.9274 9.56775 24.6494 6.48413 24.6494C2.83985 24.6494 0 22.4107 0 17.9274C0 14.4269 1.90746 12.0427 4.61933 10.8779C6.97166 9.84655 10.2564 9.66455 12.7672 9.37941V8.82127C12.7672 7.79599 12.8464 6.58265 12.2431 5.69691C11.7129 4.90216 10.7013 4.57456 9.81152 4.57456C8.16002 4.57456 6.68524 5.41784 6.32569 7.16505C6.25255 7.55333 5.96613 7.93553 5.57611 7.95373L1.37117 7.50479C1.01772 7.42593 0.627692 7.14079 0.725198 6.60085C1.69416 1.52906 6.29521 0.000244141 10.4148 0.000244141C12.5234 0.000244141 15.2779 0.558384 16.9416 2.14787C19.0502 4.10742 18.8491 6.72218 18.8491 9.56748V16.2894C18.8491 18.3096 19.6901 19.1954 20.4823 20.2874C20.7626 20.6757 20.8236 21.1428 20.4701 21.434C19.5865 22.1681 18.0142 23.5331 17.1488 24.2975L17.1366 24.2854" fill="black"/>
</g>
<defs>
<clipPath id="clip0">
<rect width="140" height="42" fill="white"/>
</clipPath>
</defs>
</svg>
