<svg width="70" height="70" viewBox="0 0 70 70" fill="none" xmlns="http://www.w3.org/2000/svg">
<g clip-path="url(#clip0)">
<path d="M22.5596 22.5352L43.8733 1.3257C45.4633 -0.256462 47.2681 -0.55579 49.2018 1.3257L69.0115 21.0386C70.4295 22.4497 70.3006 24.5878 69.0115 25.8706L25.9114 68.7173C24.3644 70.2567 22.3448 70.5132 20.54 68.7173L1.16001 49.432C-0.386954 47.8926 -0.258041 45.4552 1.16001 44.0441L22.5596 22.5352Z" fill="white"/>
<path d="M22.9037 24.7158L45.2057 46.9089L24.9233 67.0921C23.6771 68.3322 22.388 68.375 21.0989 67.0921L2.53533 48.6193C1.37511 47.4648 1.46105 46.1819 2.53533 45.1129L22.9037 24.7158Z" fill="#006491"/>
<path d="M46.6237 45.5835L24.3216 23.3904L44.604 3.20714C45.8502 1.96707 47.1393 1.92431 48.4285 3.20714L66.992 21.68C68.1522 22.8345 68.0663 24.1173 66.992 25.1864L46.6237 45.5835Z" fill="#E31837"/>
<path d="M46.4948 28.9066C49.5325 28.9066 51.9951 26.456 51.9951 23.4331C51.9951 20.4103 49.5325 17.9597 46.4948 17.9597C43.4571 17.9597 40.9945 20.4103 40.9945 23.4331C40.9945 26.456 43.4571 28.9066 46.4948 28.9066Z" fill="white"/>
<path d="M31.0682 52.3824C34.1059 52.3824 36.5685 49.9319 36.5685 46.909C36.5685 43.8861 34.1059 41.4355 31.0682 41.4355C28.0304 41.4355 25.5679 43.8861 25.5679 46.909C25.5679 49.9319 28.0304 52.3824 31.0682 52.3824Z" fill="white"/>
<path d="M14.9969 52.3824C18.0347 52.3824 20.4972 49.9319 20.4972 46.909C20.4972 43.8861 18.0347 41.4355 14.9969 41.4355C11.9592 41.4355 9.49661 43.8861 9.49661 46.909C9.49661 49.9319 11.9592 52.3824 14.9969 52.3824Z" fill="white"/>
</g>
<defs>
<clipPath id="clip0">
<rect width="70" height="70" fill="white"/>
</clipPath>
</defs>
</svg>
