<svg width="80" height="80" viewBox="0 0 80 80" fill="none" xmlns="http://www.w3.org/2000/svg">
<path d="M39.9992 0H0V40.0008V80H39.9992H80V40.0008V0H39.9992Z" fill="#002A5F"/>
<path d="M57.4784 20.6642H59.136C60.7037 20.6626 61.4317 22.1242 61.4317 23.2296V40.4333C61.4333 41.673 60.7037 42.8224 59.2995 42.8141H57.4784V20.6642ZM59.1464 20.0264H52.5526V20.6642H54.2974V59.3357H52.5526V60.0197H59.9917V59.3357H57.4781V43.6002H59.6456C62.7992 43.6002 64.5941 41.9392 64.5941 39.7064V24.2525C64.5944 22.0253 63.0451 20.0229 59.1464 20.0264Z" fill="white"/>
<path d="M24.2459 20.5398C24.2459 21.1777 23.8739 21.1297 23.5757 20.9204C22.5045 20.1681 21.1912 19.627 20.0181 19.6358C18.1059 19.6497 15.3656 20.5756 15.3568 24.6076V54.2529C15.3859 59.4022 17.8637 60.3644 20.3064 60.3902C22.208 60.4084 23.1133 59.4044 23.8827 59.0692C24.2885 58.8921 24.7325 59.3017 24.7325 60.0625H25.5221V41.2022H27.1064V40.5681H20.4152V41.2022H22.3563V57.4252C22.3563 58.7406 21.4627 59.7361 20.3368 59.7382C19.2523 59.7382 18.4213 58.7081 18.4213 57.4252V23.4289C18.4197 22.5046 18.5837 20.3558 20.0128 20.366C22.7637 20.3865 24.224 28.4313 24.2443 32.5929H25.0339V20.0044H24.248L24.2459 20.5398Z" fill="white"/>
<path d="M36.3928 42.8688L38.3203 25.612L40.288 42.8688H36.3928ZM40.3685 43.5746L42.1611 59.3272H40.3992V60.0109H47.02V59.3272H45.2755L40.8765 20.0176H38.0592L33.9728 57.1442C33.7323 58.4778 33.6077 59.2994 31.6907 59.3282V60.0112H36.6555V59.3274C35.2504 59.3285 34.6141 58.4301 34.7523 57.4752L36.3131 43.5749H40.3685V43.5746Z" fill="white"/>
</svg>
