<svg width="120" height="80" viewBox="0 0 120 80" fill="none" xmlns="http://www.w3.org/2000/svg">
<path d="M110.456 79.7546C104.882 79.7546 101.575 76.943 101.322 72.8931H106.653C106.653 74.243 107.412 76.0401 110.709 76.1519C112.995 76.1519 114.26 74.8019 114.26 73.7873C114.007 72.2138 111.974 72.102 109.95 71.7581C107.665 71.4314 105.894 70.9756 104.62 70.4167C102.849 69.5139 101.828 67.5965 101.828 65.5758C101.828 61.9731 104.882 59.1614 110.203 59.1614C115.281 59.1614 118.578 61.7495 118.822 65.6876H113.754C113.754 64.6816 113.501 62.9877 110.456 62.9877C108.424 62.9877 107.159 63.323 106.906 64.7848C106.906 66.814 111.215 66.7022 114.513 67.4847C117.557 68.2757 119.59 70.1846 119.59 72.8931C119.59 77.8458 115.534 79.7546 110.456 79.7546Z" fill="#2A2929"/>
<path d="M13.3263 46.5263L30.8263 36.5092L40.2132 52.3818H16.6239" fill="#2A2929"/>
<rect x="47.625" y="60.7407" width="4.87498" height="18.5185" fill="#2A2929"/>
<path d="M5.20403 69.4368C5.20403 72.5838 7.99566 75.172 11.0316 75.172C14.3379 75.172 16.8678 72.5838 16.8678 69.4368C16.8678 66.4016 14.3379 63.7017 11.0316 63.7017C7.99566 63.7017 5.20403 66.4016 5.20403 69.4368ZM10.7786 79.7893C5.20403 79.7893 0.388466 75.172 0.388466 69.4368C0.388466 63.7017 5.20403 59.1961 10.7786 59.1961C13.0642 59.1961 15.0969 59.7636 16.8678 60.9932V59.4196H21.9451V79.3336H16.8678V78.0954C15.3499 79.2218 13.0642 79.7893 10.7786 79.7893Z" fill="#2A2929"/>
<path d="M78.5123 52.3772L54.1642 10.5204L71.6641 0.391525L102.101 52.3772" fill="#2A2929"/>
<path d="M28.54 69.4368C28.54 72.5838 31.0786 75.172 34.3762 75.172C37.4121 75.172 40.2125 72.5838 40.2125 69.4368C40.2125 66.4016 37.4121 63.7017 34.3762 63.7017C31.0786 63.7017 28.54 66.4016 28.54 69.4368ZM34.1232 79.7893C28.287 79.7893 23.7244 75.172 23.7244 69.4368C23.7244 63.7017 28.287 59.1961 34.1232 59.1961C36.4002 59.1961 38.4328 59.7636 40.2125 60.9932V52.5581H45.281V79.3336H40.2125V78.0954C38.4328 79.2218 36.4002 79.7893 34.1232 79.7893Z" fill="#2A2929"/>
<path d="M33.8732 28.6357L51.6262 18.7389L71.1589 52.3759H52.6382V57.3286H47.5696V52.3759" fill="#2A2929"/>
<path d="M116.301 57.4846C115.028 57.4846 113.763 56.3582 113.763 55.0083C113.763 53.6583 115.028 52.5319 116.301 52.5319C117.819 52.5319 118.84 53.6583 118.84 55.0083C118.84 56.3582 117.819 57.4846 116.301 57.4846ZM116.301 52.8759C115.028 52.8759 114.269 53.8819 114.269 55.0083C114.269 56.1347 115.028 57.1493 116.301 57.1493C117.566 57.1493 118.325 56.1347 118.325 55.0083C118.325 53.8819 117.566 52.8759 116.301 52.8759Z" fill="#2A2929"/>
<path d="M116.825 56.3672L116.319 55.2408H115.813V56.3672H115.429V53.6673H116.572C116.825 53.6673 117.331 54.0112 117.331 54.4583C117.331 54.9055 117.078 55.129 116.825 55.2408L117.331 56.3672H116.825ZM116.319 54.0112H115.813V54.9055H116.319C116.825 54.9055 116.825 54.7937 116.825 54.4583C116.825 54.2262 116.825 54.0112 116.319 54.0112Z" fill="#2A2929"/>
<path d="M82.802 69.4368C82.802 72.5838 85.3406 75.172 88.6382 75.172C91.6828 75.172 94.4657 72.5838 94.4657 69.4368C94.4657 66.4016 91.6828 63.7017 88.6382 63.7017C85.3406 63.7017 82.802 66.4016 82.802 69.4368ZM88.3765 79.7893C82.549 79.7893 77.9864 75.172 77.9864 69.4368C77.9864 63.7017 82.549 59.1961 88.3765 59.1961C90.6621 59.1961 92.6948 59.7636 94.4657 60.9932V59.4196H99.29V79.3336H94.4657V78.0954C92.6948 79.2218 90.6621 79.7893 88.3765 79.7893Z" fill="#2A2929"/>
<path d="M59.4832 69.4368C59.4832 72.5838 62.2748 75.172 65.3194 75.172C68.6171 75.172 71.1557 72.5838 71.1557 69.4368C71.1557 66.4016 68.6171 63.7017 65.3194 63.7017C62.2748 63.7017 59.4832 66.4016 59.4832 69.4368ZM71.1557 52.5581H76.2242V79.3336H71.1557V78.0954C69.629 79.2218 67.5964 79.7893 65.3194 79.7893C59.4832 79.7893 54.6676 75.172 54.6676 69.4368C54.6676 63.7017 59.4832 59.1961 65.3194 59.1961C67.5964 59.1961 69.629 59.7636 71.1557 60.9932V52.5581Z" fill="#2A2929"/>
</svg>
