<svg width="78" height="80" viewBox="0 0 78 80" fill="none" xmlns="http://www.w3.org/2000/svg">
<path fill-rule="evenodd" clip-rule="evenodd" d="M39.7481 1.33447C34.5671 1.33447 29.5965 2.34436 24.8511 4.36414C20.2827 6.31826 16.2322 9.07063 12.6974 12.6375C9.17876 16.2044 6.43503 20.2923 4.51464 24.9016C2.49691 29.6901 1.49664 34.6896 1.49664 39.9344C1.49664 45.1624 2.49691 50.1787 4.51464 54.9503C6.43503 59.5754 9.17876 63.6638 12.6974 67.2302C16.2322 70.7966 20.2827 73.55 24.8511 75.5036C29.5959 77.5239 34.5666 78.5495 39.7481 78.5495C44.9451 78.5495 49.9002 77.5234 54.6455 75.5036C59.2134 73.55 63.2639 70.7966 66.7992 67.2302C70.3174 63.6638 73.0616 59.576 74.982 54.9503C76.9997 50.1787 78 45.1624 78 39.9344C78 34.6896 76.9997 29.6901 74.982 24.9016C73.0616 20.2923 70.3174 16.2044 66.7992 12.6375C63.2644 9.07063 59.2139 6.31826 54.6455 4.36414C49.9002 2.34436 44.9451 1.33447 39.7481 1.33447Z" fill="white"/>
<path fill-rule="evenodd" clip-rule="evenodd" d="M56.8891 13.973C57.2763 13.9241 57.5021 13.7608 57.5989 13.5334C57.7119 13.2561 57.6473 12.9794 57.4209 12.7026C55.614 9.60781 51.5301 7.70307 45.1387 7.01824C42.4751 6.7252 39.619 6.85598 36.5526 7.40895C33.3082 7.97929 30.4999 8.89096 28.1272 10.1781C22.2203 13.3864 18.8307 17.637 17.9429 22.9464C17.8133 23.4348 17.8455 23.7777 18.0069 23.9888C18.1849 24.2005 18.4758 24.233 18.8786 24.1023C26.7715 21.4313 32.8887 19.5097 37.214 18.337C44.0416 16.53 50.5944 15.0643 56.8891 13.973Z" fill="#FEBE10"/>
<path fill-rule="evenodd" clip-rule="evenodd" d="M50.901 4.91758C47.3178 3.7449 43.6862 3.17456 40.0384 3.17456C34.7285 3.17456 29.725 4.20127 25.0609 6.26881C20.6549 8.20719 16.7974 10.9433 13.4562 14.4613C10.2441 17.8654 7.74235 21.7579 5.98328 26.1388C4.20809 30.5197 3.33582 35.0146 3.33582 39.6408C3.33582 44.6246 4.25595 49.3804 6.11235 53.9398C7.91981 58.3859 10.4538 62.3109 13.7627 65.7318C17.0717 69.1837 20.913 71.8547 25.2545 73.7448C29.7895 75.732 34.5671 76.7093 39.6034 76.7093C48.367 76.7093 56.0174 74.0373 62.5546 68.6628C65.1203 66.5621 67.38 64.1191 69.3493 61.3678C71.0121 59.0381 72.3195 56.6765 73.2719 54.3154L67.1542 50.9596C64.5723 56.823 60.9891 61.4638 56.4056 64.8685C51.5468 68.4679 46.0432 70.3086 39.926 70.4063C35.3904 70.4709 31.1135 69.7546 27.1109 68.24C23.205 66.7743 19.7675 64.6406 16.7974 61.8236L13.2626 63.3539V57.8329C11.2933 55.1619 9.80902 52.2305 8.77541 48.9892C7.71008 45.6507 7.17768 42.1158 7.17768 38.403C7.17768 33.6308 8.04942 29.1197 9.79235 24.8527C11.4874 20.6998 13.9079 17.0515 17.0555 13.9084C20.2349 10.7159 23.9315 8.27339 28.1595 6.54665C32.5499 4.77161 37.2624 3.87568 42.282 3.87568C44.9779 3.87513 47.8668 4.23329 50.901 4.91758Z" fill="#0061A9"/>
<path fill-rule="evenodd" clip-rule="evenodd" d="M69.1068 30.1616C68.8653 29.6407 68.4771 29.2825 67.9291 29.0541C67.0735 28.7285 66.1372 28.5163 65.0719 28.4512C64.0227 28.3861 62.9735 28.4512 61.9081 28.6791C59.8754 29.0861 58.1319 29.9657 56.695 31.3175C54.6132 33.2722 53.564 35.9269 53.564 39.3141C53.564 42.1485 54.4842 44.2491 56.3244 45.6171C57.8899 46.7735 59.8103 47.2294 62.0706 46.9684C64.6201 46.6759 66.6061 45.812 68.042 44.3793C68.8653 43.5653 69.2687 42.4415 69.2848 41.0083C69.3176 40.0315 69.3176 37.9629 69.2848 34.8356L61.6506 36.5135V38.3048C61.6667 39.6083 62.2642 40.145 63.4747 39.9008L64.4438 39.6566L64.4599 41.1228C64.4755 41.2531 64.4265 41.3996 64.2819 41.5629C64.0065 41.9205 63.4575 42.1647 62.6508 42.3275C61.4241 42.5066 60.504 42.2624 59.8754 41.5461C59.2779 40.8781 58.9708 39.8194 58.9547 38.403C58.9875 36.9861 59.3586 35.8134 60.0845 34.9012C60.7466 34.0704 61.6021 33.5169 62.6836 33.2727C63.6355 33.0448 64.5395 32.9797 65.3951 33.0936L66.9767 33.403C67.5897 33.5012 68.0899 33.3547 68.526 33.0122C68.8971 32.6866 69.1552 32.2465 69.2687 31.7099C69.3816 31.1553 69.3171 30.65 69.1068 30.1616Z" fill="#ED1C2E"/>
<path fill-rule="evenodd" clip-rule="evenodd" d="M48.4632 32.9791C48.012 33.5815 47.7856 34.396 47.7856 35.471L47.7695 40.9106C45.7362 38.3373 44.0411 36.3664 42.7182 35.0146C41.9911 34.2983 41.0548 34.1518 39.8771 34.5751L37.2625 35.3728V53.5324L39.7964 52.6527C40.7322 52.3271 41.3942 51.8544 41.7975 51.2684C42.1847 50.6823 42.3627 49.9009 42.3627 48.9067L42.3299 42.6363L47.769 48.9713C48.5767 49.8021 49.577 50.0469 50.787 49.6887C51.336 49.5254 51.7872 49.216 52.1427 48.7445C52.5304 48.255 52.724 47.6857 52.7391 47.034V31.3018C51.8034 31.4966 50.9483 31.7088 50.1572 31.9367C49.4167 32.1489 48.851 32.4907 48.4632 32.9791Z" fill="#ED1C2E"/>
<path fill-rule="evenodd" clip-rule="evenodd" d="M32.6306 36.7576C31.7104 37.0995 31.0329 37.5716 30.6134 38.1414C30.1289 38.8257 29.903 39.7867 29.903 41.0571L29.8874 56.1387L32.8247 55.08C33.8417 54.6887 34.5515 54.2171 34.971 53.6142C35.3904 53.0282 35.6007 52.1974 35.6007 51.1381L35.6169 35.7803C34.5026 36.1064 33.5184 36.432 32.6306 36.7576Z" fill="#ED1C2E"/>
<path fill-rule="evenodd" clip-rule="evenodd" d="M19.4766 41.8554L14.0376 44.1357L14.0053 62.2307L17.8466 60.6016C18.3629 60.4714 18.7668 60.1458 19.0566 59.6731C19.3476 59.2173 19.4766 58.6312 19.4605 57.8986V52.1486L23.7541 56.758C24.2865 57.2952 24.9157 57.6208 25.6417 57.7022C26.4812 57.8167 27.2555 57.572 27.966 57.0016C28.6113 56.4644 28.9501 55.7806 28.9823 54.9498C28.9985 54.1847 28.8049 53.5655 28.3693 53.0771L24.4473 49.1195L28.4661 42.7188C28.8371 42.1002 28.9345 41.4647 28.7565 40.8298C28.5629 40.1618 28.1273 39.6734 27.4653 39.3804C26.771 39.0548 26.0773 39.0217 25.432 39.2664C24.8668 39.4781 24.4317 39.8199 24.1246 40.3083L19.4922 48.2561L19.4766 41.8554Z" fill="#ED1C2E"/>
<path fill-rule="evenodd" clip-rule="evenodd" d="M63.8608 48.4188C63.6678 48.2066 63.329 48.1583 62.8611 48.2885C57.4704 49.5594 51.2882 51.3019 44.2998 53.516C36.7946 55.8939 30.7097 58.0933 26.0617 60.1126L25.5933 60.3405C25.4809 60.4219 25.3835 60.5195 25.3351 60.6661C25.1899 60.9754 25.2706 61.2863 25.5777 61.6114C26.1101 62.262 26.9979 62.898 28.2569 63.5161C29.6126 64.1678 31.1619 64.7062 32.9371 65.1132C37.2624 66.0737 41.6039 66.0248 45.962 64.9661C52.1438 63.4684 56.937 60.6346 60.3432 56.4648C61.4731 55.0636 62.3932 53.5816 63.1025 52.0345C63.5392 51.0903 63.8452 50.2432 64.0227 49.4938C64.1195 48.9891 64.0716 48.631 63.8608 48.4188Z" fill="#FEBE10"/>
<path fill-rule="evenodd" clip-rule="evenodd" d="M18.5242 28.5494C17.6686 28.0935 16.571 28.0935 15.2314 28.5982C14.5533 28.8424 13.2142 29.3797 11.1965 30.2105L11.2126 43.4025L16.0225 41.3339C17.3459 40.7798 18.3306 40.1612 18.9759 39.4932C19.7831 38.6461 20.1703 37.653 20.1537 36.4804C20.1381 35.8286 19.9283 35.2751 19.4922 34.8193C19.0889 34.3792 18.5882 34.1024 17.9907 34.0053C19.1367 33.0768 19.7014 31.9855 19.7014 30.7151C19.7019 29.7058 19.2986 28.9889 18.5242 28.5494ZM15.1346 33.7611L14.521 34.0216V31.2372C15.0539 30.9436 15.5057 30.8785 15.8611 30.9924C16.1999 31.1227 16.3774 31.4163 16.3613 31.9046C16.3613 32.7349 15.9418 33.3541 15.1346 33.7611ZM16.0875 35.8617C16.4586 36.0571 16.6522 36.399 16.6522 36.9205C16.6845 37.8327 16.2161 38.5007 15.2965 38.924L14.5538 39.2658V36.0571C15.183 35.732 15.6998 35.6664 16.0875 35.8617Z" fill="#ED1C2E"/>
<path fill-rule="evenodd" clip-rule="evenodd" d="M29.3055 25.3405C29.3055 24.8038 29.1447 24.4451 28.8054 24.2498C28.515 24.0707 28.1111 24.0544 27.6433 24.201C27.1426 24.3475 26.6102 24.5265 26.0294 24.755V32.947C25.9971 34.1685 25.6261 34.8528 24.8839 35.0482C24.5129 35.1296 24.2225 35.0645 24.0283 34.8528C23.8509 34.6569 23.7546 34.3319 23.7546 33.9086L23.7374 27.1975C23.7374 26.6603 23.5755 26.2858 23.2529 26.0899C22.9463 25.8951 22.5591 25.8951 22.0751 26.0411L20.4285 26.6435V34.7709C20.4129 36.1389 20.8318 37.132 21.6874 37.7186C22.5597 38.3378 23.7046 38.4355 25.1093 38.0122C26.4806 37.6041 27.4814 36.986 28.1273 36.204C28.9022 35.2587 29.2894 33.9401 29.305 32.2296V25.3405H29.3055Z" fill="#ED1C2E"/>
<path fill-rule="evenodd" clip-rule="evenodd" d="M53.3705 21.8719V20.0318L56.162 19.4451C56.824 19.3149 57.1628 18.8428 57.1628 18.0608V16.6597C54.8547 17.0509 52.4982 17.5393 50.1099 18.0928L50.0615 30.129C52.6756 29.4947 54.6773 29.0383 56.1136 28.7284C56.8886 28.5488 57.2919 28.0279 57.2919 27.165V25.7639L53.3699 26.6272L53.3861 24.2982L55.8394 23.7777C56.517 23.6144 56.8563 23.1911 56.8563 22.4743L56.8407 21.1388L53.3705 21.8719Z" fill="#ED1C2E"/>
<path fill-rule="evenodd" clip-rule="evenodd" d="M30.21 35.7808L32.1627 35.1134C33.0506 34.7547 33.4861 34.1686 33.5023 33.3215L33.5184 30.0965L36.3267 33.0447C36.7467 33.4517 37.2145 33.6314 37.7631 33.5988C38.1992 33.5494 38.5541 33.4029 38.8445 33.1256C39.2 32.8 39.3775 32.3767 39.3775 31.8715C39.3613 31.3826 39.2 30.9761 38.8768 30.65L36.7472 28.5976C38.1191 27.458 38.7967 26.1383 38.8128 24.6726C38.8128 23.6464 38.4256 22.8813 37.6345 22.3923C36.8279 21.8876 35.7948 21.7737 34.552 22.0667C33.4867 22.3109 32.0342 22.7673 30.2106 23.4022V35.7808H30.21ZM33.5017 28.24V24.8039C34.7607 24.3312 35.4065 24.608 35.4227 25.6342C35.4388 26.7086 34.7929 27.572 33.5017 28.24Z" fill="#ED1C2E"/>
<path fill-rule="evenodd" clip-rule="evenodd" d="M65.3139 16.4322C64.5395 15.8293 63.5387 15.6019 62.3443 15.7647L58.019 16.4973V28.3544L59.8103 28.012C60.7299 27.7998 61.1983 27.2468 61.2144 26.3184V23.4195L63.9748 26.6928C64.2491 27.0021 64.5879 27.1812 64.959 27.2468C65.3951 27.3277 65.8146 27.2468 66.2174 26.9864C66.654 26.7091 66.896 26.3189 66.9444 25.83C66.9928 25.341 66.8638 24.9177 66.5411 24.5759L64.4104 22.1659C65.7339 21.27 66.412 20.1461 66.412 18.7944C66.4271 17.7834 66.0566 17.0182 65.3139 16.4322ZM61.2144 21.5788L61.1983 18.37C62.4416 18.1101 63.087 18.4194 63.1026 19.3148C63.1026 20.3404 62.4734 21.0898 61.2144 21.5788Z" fill="#ED1C2E"/>
<path fill-rule="evenodd" clip-rule="evenodd" d="M49.2387 20.6668C49.2548 20.0964 49.0128 19.6574 48.5121 19.3476C47.9631 19.0377 47.1887 18.9075 46.1556 18.9243C43.9604 19.0051 42.2336 19.7708 40.9747 21.2366C39.8125 22.5883 39.2318 24.2988 39.2318 26.3831C39.2318 28.3541 39.8125 29.8198 40.958 30.7809C42.0233 31.6763 43.4119 31.9698 45.0736 31.66C46.4939 31.3827 47.6081 30.8785 48.4148 30.1454C49.0117 29.6245 49.3027 28.9239 49.3027 28.0605V23.386L44.4116 24.4936V25.8617C44.4116 26.1878 44.5245 26.432 44.7343 26.6111C44.9445 26.7901 45.2027 26.8553 45.5092 26.7901L46.2191 26.6273L46.2352 27.9791C46.2352 28.2564 46.0733 28.468 45.7345 28.6308C45.4113 28.7942 45.0247 28.875 44.6041 28.8588C43.3941 28.8425 42.7967 27.9466 42.7644 26.1715C42.7805 25.0645 43.0387 24.168 43.5071 23.4517C43.9755 22.7842 44.5719 22.3604 45.3312 22.1488C45.8147 22.0348 46.4449 22.0191 47.2355 22.1162C47.8496 22.2302 48.3336 22.1325 48.688 21.872C49.0451 21.6115 49.222 21.204 49.2387 20.6668Z" fill="#ED1C2E"/>
<path fill-rule="evenodd" clip-rule="evenodd" d="M21.9294 21.2202C22.0907 21.1057 22.1719 20.9109 22.2036 20.6662C22.7527 18.565 23.8014 16.4964 25.3507 14.4934C26.8032 12.6202 28.3854 11.1544 30.1122 10.0957C27.6427 11.187 25.4636 12.93 23.5594 15.3242C22.785 16.3178 22.1558 17.2946 21.6707 18.272C21.219 19.2005 20.9608 19.9661 20.8963 20.6011C20.8963 20.829 20.9447 21.0081 21.0576 21.1551C21.17 21.2854 21.3158 21.3499 21.4932 21.3662C21.6551 21.383 21.8003 21.3342 21.9294 21.2202Z" fill="white"/>
<path fill-rule="evenodd" clip-rule="evenodd" d="M52.4347 12.0509C52.4503 11.5137 52.0953 10.9596 51.4011 10.3898C50.7396 9.85258 49.8195 9.36365 48.674 8.90781C47.4791 8.46826 46.2201 8.15894 44.8649 7.94676C43.4124 7.73567 41.9916 7.67001 40.6198 7.78451C43.3312 7.97932 45.5915 8.5171 47.3989 9.44559C48.19 9.8363 48.8025 10.2596 49.2387 10.7154C49.6576 11.155 49.8845 11.5788 49.8845 11.9695C49.9001 12.4584 49.7071 12.9143 49.3193 13.305C48.9639 13.712 48.4799 14.0056 47.9152 14.1846L49.8195 13.7283C50.4653 13.5817 50.9332 13.4515 51.2403 13.3213C52.0313 13.0445 52.4185 12.6212 52.4347 12.0509Z" fill="white"/>
<path fill-rule="evenodd" clip-rule="evenodd" d="M60.553 52.5711C60.7149 52.2298 60.7299 51.9205 60.6181 51.6595C60.5374 51.4158 60.3599 51.2525 60.1007 51.1711C59.8426 51.0897 59.6001 51.1222 59.3586 51.2525C59.0677 51.4158 58.8746 51.6915 58.745 52.0822C57.9862 54.0694 56.9203 55.8933 55.5495 57.5712C53.9351 59.5742 51.9819 61.2195 49.7072 62.5219C52.0147 61.6102 54.0809 60.3567 55.8883 58.7602C57.9061 56.9857 59.4554 54.9339 60.553 52.5711Z" fill="white"/>
<path fill-rule="evenodd" clip-rule="evenodd" d="M72.3669 51.0898H71.1563V51.2857H71.6247V52.2305H71.9318V51.2857H72.3669V51.0898Z" fill="#ED1C2E"/>
<path fill-rule="evenodd" clip-rule="evenodd" d="M72.8352 51.302L73.1095 52.2305H73.4166L73.6908 51.302V52.2305H73.9979V51.0898H73.5456L73.2714 51.9695L72.9804 51.0898H72.5287V52.2305H72.8352V51.302Z" fill="#ED1C2E"/>
</svg>
