<svg width="190" height="44" viewBox="0 0 190 44" fill="none" xmlns="http://www.w3.org/2000/svg">
<path d="M24.7575 10.0261C26.5568 10.0983 30.8749 9.66548 32.2424 10.5311C33.8977 11.5409 34.3295 14.2097 33.178 15.7966C31.9545 17.5278 29.3636 17.2393 27.1325 17.2393C24.7575 17.2393 22.3825 17.2393 20.0075 17.2393C17.9924 20.3409 15.9772 23.4425 13.9621 26.6163C18.2802 26.7606 23.1022 26.6163 27.3484 26.6163C29.1477 26.6163 31.8825 26.3999 32.7462 27.4819C34.0416 28.8524 34.1136 30.7278 33.178 32.3147C32.1704 34.0458 30.2272 33.9015 28.428 33.9015C24.6855 33.9015 11.0113 33.9737 9.21206 33.9737C7.19691 37.0032 5.25373 40.0327 3.31055 43.0622C8.78024 43.0622 14.178 43.1343 19.2878 43.1343C23.3181 43.1343 31.1628 43.5671 34.6893 42.413C40.7348 40.3934 44.2613 33.4688 42.8939 27.4819C42.1742 24.0917 41.8863 24.5966 40.303 21.9278C41.6704 19.4753 42.606 18.8983 43.0378 15.7245C44.1174 8.29499 38.7916 1.154 30.731 0.865479C29.6515 2.45236 25.909 8.22286 24.7575 10.0261Z" fill="white"/>
<path d="M3.31061 43.0623C5.25379 40.0328 7.19697 37.0033 9.21212 33.9738V26.6885H13.9621C14.4659 25.8951 19.7917 17.6721 20.0076 17.3115L9.21212 17.2394L9.35606 10.0984L24.7576 10.0262C25.9811 8.15084 29.6515 2.45247 30.7311 0.793457H0V43.0623H3.31061Z" fill="white"/>
<path d="M87.7311 40.0328H90.6099V41.4754H85.9319V34.1902H87.6592V40.0328H87.7311Z" fill="white"/>
<path d="M93.057 34.0459V35.6328H91.4736V34.0459H93.057ZM93.057 36.0656V41.4754H91.4736V36.0656H93.057Z" fill="white"/>
<path d="M96.0077 37.2918V41.4754H94.4243V37.2918H93.7766V36.0655H94.4243C94.4243 35.4885 94.4963 35.1278 94.5683 34.8393C94.6402 34.5508 94.8562 34.3344 95.144 34.1901C95.4319 33.9737 95.8637 33.9016 96.3675 33.9016C96.5834 33.9016 96.7993 33.9016 97.0872 33.9737V35.2C96.8713 35.2 96.6554 35.2 96.5115 35.2C96.2956 35.2 96.1516 35.2721 96.0796 35.3442C96.0077 35.4885 96.0077 35.6328 96.0077 35.9213V36.0655H97.0152V37.2918H96.0077Z" fill="white"/>
<path d="M102.629 39.0229H99.1743C99.1743 39.095 99.1743 39.2393 99.1743 39.2393C99.1743 39.5999 99.2463 39.8885 99.4622 40.1049C99.6781 40.3213 99.894 40.3934 100.182 40.3934C100.686 40.3934 101.046 40.1049 101.117 39.5278L102.557 39.5999C102.125 40.8262 101.333 41.4754 100.11 41.4754C99.6061 41.4754 99.1023 41.3311 98.7425 41.1868C98.3826 40.9704 98.0228 40.6819 97.8069 40.2491C97.591 39.8163 97.447 39.3114 97.447 38.7344C97.447 37.8688 97.6629 37.1475 98.1667 36.6426C98.6705 36.1377 99.3182 35.8491 100.038 35.8491C100.758 35.8491 101.333 36.0655 101.837 36.5704C102.413 37.2196 102.629 38.0131 102.629 39.0229ZM99.1743 38.1573H101.117C101.046 37.436 100.758 37.0754 100.182 37.0754C99.5341 37.0032 99.2463 37.3639 99.1743 38.1573Z" fill="white"/>
<path d="M113.568 36.0657L111.913 41.4755H110.473L109.61 38.0132L108.746 41.4755H107.379L105.795 36.0657H107.451L108.314 39.3837L109.178 36.0657H110.617L111.409 39.3837L112.345 36.0657H113.568Z" fill="white"/>
<path d="M115.871 34.0459V35.6328H114.288V34.0459H115.871ZM115.871 36.0656V41.4754H114.288V36.0656H115.871Z" fill="white"/>
<path d="M118.966 37.2917V39.5999C118.966 39.8885 119.038 40.1049 119.11 40.177C119.182 40.2491 119.398 40.3212 119.686 40.3212C119.83 40.3212 119.974 40.3212 120.189 40.3212V41.4753C119.758 41.5475 119.398 41.6196 119.182 41.6196C118.534 41.6196 118.03 41.4753 117.742 41.259C117.455 40.9704 117.311 40.5376 117.311 39.8885V37.3639H116.447V36.0655H117.383L117.527 34.4786L118.894 34.4065V36.0655H120.046V37.2917H118.966Z" fill="white"/>
<path d="M122.636 34.1902V36.7869C122.924 36.2099 123.428 35.9213 124.076 35.9213C124.436 35.9213 124.723 35.9935 125.011 36.1377C125.299 36.282 125.443 36.4984 125.587 36.7869C125.659 37.0033 125.731 37.4361 125.731 37.8689V41.4754H124.148V38.4459C124.148 38.0853 124.148 37.7967 124.076 37.7246C124.076 37.5804 124.004 37.5082 123.86 37.364C123.716 37.2197 123.644 37.2197 123.5 37.2197C123.284 37.2197 123.068 37.2918 122.924 37.4361C122.708 37.5803 122.636 37.941 122.636 38.4459V41.4754H121.053V34.1902H122.636Z" fill="white"/>
<path d="M134.511 39.4558C134.439 40.105 134.224 40.6099 133.72 41.0427C133.288 41.4033 132.712 41.6197 131.993 41.6197C131.201 41.6197 130.625 41.4033 130.121 40.8263C129.618 40.3214 129.402 39.6722 129.402 38.8066C129.402 37.9411 129.618 37.2919 130.121 36.7148C130.625 36.2099 131.273 35.9214 132.064 35.9214C132.712 35.9214 133.288 36.1378 133.72 36.4984C134.152 36.8591 134.368 37.364 134.439 38.0132L132.928 38.0853C132.856 37.4361 132.568 37.0755 132.064 37.0755C131.417 37.0755 131.129 37.5804 131.129 38.6624C131.129 39.3837 131.201 39.8165 131.417 39.9607C131.561 40.1771 131.777 40.2493 132.064 40.2493C132.568 40.2493 132.856 39.9607 132.928 39.3115L134.511 39.4558Z" fill="white"/>
<path d="M136.886 41.4755H135.303V36.0656H136.742V37.0755C136.958 36.3542 137.39 35.9214 137.894 35.9214C137.966 35.9214 138.038 35.9214 138.182 35.9214V37.5083C137.822 37.5083 137.606 37.5804 137.39 37.6525C137.174 37.7247 137.03 37.9411 136.958 38.1575C136.814 38.446 136.814 38.7345 136.814 39.2394V41.4755H136.886Z" fill="white"/>
<path d="M143.58 36.0657L141.852 41.2591C141.636 41.8362 141.493 42.269 141.349 42.4853C141.205 42.7017 140.989 42.9181 140.773 43.1345C140.557 43.2788 140.197 43.3509 139.693 43.3509C139.477 43.3509 139.19 43.3509 138.902 43.2788V42.0526C139.19 42.1247 139.477 42.1247 139.693 42.1247C139.981 42.1247 140.197 42.0526 140.341 41.9804C140.485 41.9083 140.557 41.6919 140.557 41.4755L138.614 36.0657H140.269L141.277 39.3116L142.284 36.0657H143.58Z" fill="white"/>
<path d="M144.299 43.3509V36.0656H145.739V36.8591C146.027 36.282 146.458 35.9214 147.178 35.9214C147.754 35.9214 148.258 36.1378 148.618 36.6427C148.977 37.1476 149.193 37.7968 149.193 38.6624C149.193 39.6001 148.977 40.3214 148.618 40.8263C148.258 41.3312 147.754 41.5476 147.178 41.5476C146.602 41.5476 146.099 41.3312 145.883 40.8263V43.2788H144.299V43.3509ZM145.811 39.0952C145.811 39.4558 145.811 39.7443 145.883 39.8886C145.955 40.0329 146.027 40.1771 146.171 40.2493C146.314 40.3935 146.458 40.3935 146.674 40.3935C146.89 40.3935 147.106 40.2493 147.25 40.0329C147.394 39.8165 147.538 39.3115 147.538 38.5902C147.538 37.5083 147.25 37.0034 146.674 37.0034C146.458 37.0034 146.243 37.0755 146.099 37.2919C145.955 37.5083 145.811 37.7968 145.811 38.2296V39.0952Z" fill="white"/>
<path d="M152.072 37.2917V39.5999C152.072 39.8885 152.144 40.1049 152.216 40.177C152.288 40.2491 152.504 40.3212 152.792 40.3212C152.936 40.3212 153.079 40.3212 153.295 40.3212V41.4753C152.864 41.5475 152.504 41.6196 152.288 41.6196C151.64 41.6196 151.136 41.4753 150.848 41.259C150.561 40.9704 150.417 40.5376 150.417 39.8885V37.3639H149.553V36.0655H150.489L150.633 34.4786L152 34.4065V36.0655H153.151V37.2917H152.072Z" fill="white"/>
<path d="M156.318 35.9934C157.11 35.9934 157.758 36.2819 158.261 36.7868C158.693 37.3639 158.981 38.0131 158.981 38.8065C158.981 39.6 158.765 40.2491 158.261 40.8262C157.758 41.3311 157.11 41.6196 156.318 41.6196C155.527 41.6196 154.951 41.3311 154.447 40.8262C154.015 40.3213 153.727 39.6 153.727 38.8065C153.727 38.2295 153.799 37.7246 154.015 37.3639C154.231 37.0032 154.519 36.6426 154.879 36.4262C155.311 36.0655 155.742 35.9934 156.318 35.9934ZM156.39 37.0032C156.102 37.0032 155.886 37.1475 155.742 37.3639C155.598 37.5803 155.527 38.0852 155.527 38.7344C155.527 39.3836 155.598 39.8164 155.742 40.1049C155.886 40.3934 156.102 40.5377 156.39 40.5377C156.678 40.5377 156.894 40.3934 157.038 40.177C157.182 39.9606 157.254 39.4557 157.254 38.8065C157.254 38.0852 157.182 37.5803 157.038 37.3639C156.894 37.1475 156.678 37.0032 156.39 37.0032Z" fill="white"/>
<path d="M78.5189 13.9213C77.9432 12.9836 77.1515 12.118 76.1439 11.4688C76.6477 11.0361 77.0076 10.5311 77.2954 9.95409C77.7273 9.16064 77.9432 8.15081 77.9432 7.14097C77.9432 5.04917 77.2954 3.39015 75.928 2.30819C74.6326 1.22622 72.7614 0.64917 70.2424 0.64917H55.6326V25.6065H71.0341C73.625 25.6065 75.7121 24.8852 77.2954 23.5147C78.8788 22.1443 79.6704 20.1967 79.6704 17.8885C79.5265 16.4459 79.1667 15.0754 78.5189 13.9213ZM71.5379 21.7836H59.5909V13.9213H71.5379C72.7613 13.9213 73.697 14.282 74.3447 14.9311C75.0644 15.6524 75.3523 16.5902 75.3523 17.8164C75.3523 19.0426 74.9924 20.0524 74.3447 20.7016C73.697 21.4229 72.7613 21.7836 71.5379 21.7836ZM59.5909 4.47212H70.4583C71.6098 4.47212 72.4735 4.68851 72.9773 5.19343C73.481 5.62622 73.7689 6.34753 73.7689 7.35737C73.7689 8.29507 73.481 8.94425 72.9773 9.37704C72.4015 9.88196 71.5379 10.0983 70.4583 10.0983H59.5909V4.47212Z" fill="white"/>
<path d="M103.132 21.8558V25.6066H83.9885V6.05908H102.341V9.8099H87.9469V13.3443H97.4469V17.0951H87.9469V21.8558H103.132Z" fill="white"/>
<path d="M110.689 4.47212V10.3869H120.261V14.2098H110.689V25.6065H106.659V0.64917H126.451V4.47212H110.689Z" fill="white"/>
<path d="M139.621 17.3115C140.773 17.023 141.708 16.3738 142.428 15.5083C143.364 14.4263 143.796 13.2001 143.796 11.7574C143.796 9.95416 143.22 8.58367 141.996 7.57384C140.845 6.564 139.261 6.05908 137.246 6.05908H124.004V25.6066H127.962V17.5279H135.159L140.413 25.6066H144.803L139.621 17.3115ZM128.034 9.8099H137.318C138.182 9.8099 138.83 9.95416 139.261 10.3148C139.621 10.6033 139.837 11.1083 139.837 11.7574C139.837 12.4066 139.621 12.8394 139.261 13.2001C138.83 13.5607 138.182 13.705 137.318 13.705H128.034V9.8099Z" fill="white"/>
<path d="M167.186 21.8558V25.6066H148.042V6.05908H166.394V9.8099H152V13.3443H161.428V17.0951H152V21.8558H167.186Z" fill="white"/>
<path d="M189.424 21.8558V25.6066H170.208V6.05908H188.561V9.8099H174.167V13.3443H183.667V17.0951H174.167V21.8558H189.424Z" fill="white"/>
</svg>
